{
	"asset":{
		"generator":"Khronos glTF Blender I/O v4.3.47",
		"version":"2.0"
	},
	"scene":0,
	"scenes":[
		{
			"name":"Scene",
			"nodes":[
				0
			]
		}
	],
	"nodes":[
		{
			"mesh":0,
			"name":"Brick_Window_Trim"
		}
	],
	"materials":[
		{
			"doubleSided":true,
			"name":"MI_RedBrick",
			"normalTexture":{
				"index":0
			},
			"pbrMetallicRoughness":{
				"baseColorTexture":{
					"index":1
				},
				"metallicRoughnessTexture":{
					"index":2
				}
			}
		},
		{
			"doubleSided":true,
			"name":"MI_Trim",
			"normalTexture":{
				"index":3
			},
			"pbrMetallicRoughness":{
				"baseColorTexture":{
					"index":4
				},
				"metallicRoughnessTexture":{
					"index":5
				}
			}
		},
		{
			"alphaMode":"BLEND",
			"doubleSided":true,
			"name":"MI_Glass",
			"pbrMetallicRoughness":{
				"baseColorFactor":[
					0.05215025693178177,
					0.05215025693178177,
					0.05215025693178177,
					0.586363673210144
				],
				"metallicFactor":0,
				"roughnessFactor":0.5
			}
		},
		{
			"doubleSided":true,
			"name":"MI_FakeInterior",
			"pbrMetallicRoughness":{
				"baseColorFactor":[
					0.800000011920929,
					0.800000011920929,
					0.800000011920929,
					1
				],
				"metallicFactor":0,
				"roughnessFactor":0.5
			}
		},
		{
			"doubleSided":true,
			"name":"MI_InteriorWall",
			"normalTexture":{
				"index":6
			},
			"pbrMetallicRoughness":{
				"baseColorTexture":{
					"index":7
				},
				"metallicRoughnessTexture":{
					"index":8
				}
			}
		}
	],
	"meshes":[
		{
			"name":"Cube.10030",
			"primitives":[
				{
					"attributes":{
						"POSITION":0,
						"NORMAL":1,
						"TEXCOORD_0":2,
						"TEXCOORD_1":3,
						"TEXCOORD_2":4,
						"COLOR_0":5,
						"COLOR_1":6
					},
					"indices":7,
					"material":0
				},
				{
					"attributes":{
						"POSITION":8,
						"NORMAL":9,
						"TEXCOORD_0":10,
						"TEXCOORD_1":11,
						"TEXCOORD_2":12,
						"COLOR_0":13,
						"COLOR_1":14
					},
					"indices":15,
					"material":1
				},
				{
					"attributes":{
						"POSITION":16,
						"NORMAL":17,
						"TEXCOORD_0":18,
						"TEXCOORD_1":19,
						"TEXCOORD_2":20,
						"COLOR_0":21,
						"COLOR_1":22
					},
					"indices":23,
					"material":2
				},
				{
					"attributes":{
						"POSITION":24,
						"NORMAL":25,
						"TEXCOORD_0":26,
						"TEXCOORD_1":27,
						"TEXCOORD_2":28,
						"COLOR_0":29,
						"COLOR_1":30
					},
					"indices":31,
					"material":3
				},
				{
					"attributes":{
						"POSITION":32,
						"NORMAL":33,
						"TEXCOORD_0":34,
						"TEXCOORD_1":35,
						"TEXCOORD_2":36,
						"COLOR_0":37,
						"COLOR_1":38
					},
					"indices":39,
					"material":4
				}
			]
		}
	],
	"textures":[
		{
			"sampler":0,
			"source":0
		},
		{
			"sampler":0,
			"source":1
		},
		{
			"sampler":0,
			"source":2
		},
		{
			"sampler":0,
			"source":3
		},
		{
			"sampler":0,
			"source":4
		},
		{
			"sampler":0,
			"source":5
		},
		{
			"sampler":0,
			"source":0
		},
		{
			"sampler":0,
			"source":1
		},
		{
			"sampler":0,
			"source":2
		}
	],
	"images":[
		{
			"mimeType":"image/png",
			"name":"T_RedBrick_Normal",
			"uri":"T_RedBrick_Normal.png"
		},
		{
			"mimeType":"image/png",
			"name":"T_RedBrick_BaseColor",
			"uri":"T_RedBrick_BaseColor.png"
		},
		{
			"mimeType":"image/png",
			"name":"T_RedBrick_ORM",
			"uri":"T_RedBrick_ORM.png"
		},
		{
			"mimeType":"image/png",
			"name":"T_Trim_Normal",
			"uri":"T_Trim_Normal.png"
		},
		{
			"mimeType":"image/png",
			"name":"T_Trim_BaseColor",
			"uri":"T_Trim_BaseColor.png"
		},
		{
			"mimeType":"image/png",
			"name":"T_Trim_ORM",
			"uri":"T_Trim_ORM.png"
		}
	],
	"accessors":[
		{
			"bufferView":0,
			"componentType":5126,
			"count":68,
			"max":[
				1,
				3,
				1.3113415775478643e-07
			],
			"min":[
				-1,
				0,
				-0.15878570079803467
			],
			"type":"VEC3"
		},
		{
			"bufferView":1,
			"componentType":5126,
			"count":68,
			"type":"VEC3"
		},
		{
			"bufferView":2,
			"componentType":5126,
			"count":68,
			"type":"VEC2"
		},
		{
			"bufferView":3,
			"componentType":5126,
			"count":68,
			"type":"VEC2"
		},
		{
			"bufferView":4,
			"componentType":5126,
			"count":68,
			"type":"VEC2"
		},
		{
			"bufferView":5,
			"componentType":5121,
			"count":68,
			"normalized":true,
			"type":"VEC4"
		},
		{
			"bufferView":6,
			"componentType":5123,
			"count":68,
			"normalized":true,
			"type":"VEC4"
		},
		{
			"bufferView":7,
			"componentType":5123,
			"count":144,
			"type":"SCALAR"
		},
		{
			"bufferView":8,
			"componentType":5126,
			"count":882,
			"max":[
				0.7214806079864502,
				2.982818603515625,
				0.04713759571313858
			],
			"min":[
				-0.7214806079864502,
				0,
				-0.2568173408508301
			],
			"type":"VEC3"
		},
		{
			"bufferView":9,
			"componentType":5126,
			"count":882,
			"type":"VEC3"
		},
		{
			"bufferView":10,
			"componentType":5126,
			"count":882,
			"type":"VEC2"
		},
		{
			"bufferView":11,
			"componentType":5126,
			"count":882,
			"type":"VEC2"
		},
		{
			"bufferView":12,
			"componentType":5126,
			"count":882,
			"type":"VEC2"
		},
		{
			"bufferView":13,
			"componentType":5121,
			"count":882,
			"normalized":true,
			"type":"VEC4"
		},
		{
			"bufferView":14,
			"componentType":5123,
			"count":882,
			"normalized":true,
			"type":"VEC4"
		},
		{
			"bufferView":15,
			"componentType":5123,
			"count":1686,
			"type":"SCALAR"
		},
		{
			"bufferView":16,
			"componentType":5126,
			"count":48,
			"max":[
				0.4960244297981262,
				2.324681282043457,
				-0.1999606192111969
			],
			"min":[
				-0.49756920337677,
				0.31414884328842163,
				-0.1999606192111969
			],
			"type":"VEC3"
		},
		{
			"bufferView":17,
			"componentType":5126,
			"count":48,
			"type":"VEC3"
		},
		{
			"bufferView":18,
			"componentType":5126,
			"count":48,
			"type":"VEC2"
		},
		{
			"bufferView":19,
			"componentType":5126,
			"count":48,
			"type":"VEC2"
		},
		{
			"bufferView":20,
			"componentType":5126,
			"count":48,
			"type":"VEC2"
		},
		{
			"bufferView":21,
			"componentType":5121,
			"count":48,
			"normalized":true,
			"type":"VEC4"
		},
		{
			"bufferView":22,
			"componentType":5123,
			"count":48,
			"normalized":true,
			"type":"VEC4"
		},
		{
			"bufferView":23,
			"componentType":5123,
			"count":72,
			"type":"SCALAR"
		},
		{
			"bufferView":24,
			"componentType":5126,
			"count":4,
			"max":[
				0.9182416200637817,
				2.8756752014160156,
				-0.19344349205493927
			],
			"min":[
				-0.9182416200637817,
				0.09556138515472412,
				-0.19344349205493927
			],
			"type":"VEC3"
		},
		{
			"bufferView":25,
			"componentType":5126,
			"count":4,
			"type":"VEC3"
		},
		{
			"bufferView":26,
			"componentType":5126,
			"count":4,
			"type":"VEC2"
		},
		{
			"bufferView":27,
			"componentType":5126,
			"count":4,
			"type":"VEC2"
		},
		{
			"bufferView":28,
			"componentType":5126,
			"count":4,
			"type":"VEC2"
		},
		{
			"bufferView":29,
			"componentType":5121,
			"count":4,
			"normalized":true,
			"type":"VEC4"
		},
		{
			"bufferView":30,
			"componentType":5123,
			"count":4,
			"normalized":true,
			"type":"VEC4"
		},
		{
			"bufferView":31,
			"componentType":5123,
			"count":6,
			"type":"SCALAR"
		},
		{
			"bufferView":32,
			"componentType":5126,
			"count":20,
			"max":[
				1,
				3.000000476837158,
				-0.2000000774860382
			],
			"min":[
				-1,
				0,
				-0.2000000923871994
			],
			"type":"VEC3"
		},
		{
			"bufferView":33,
			"componentType":5126,
			"count":20,
			"type":"VEC3"
		},
		{
			"bufferView":34,
			"componentType":5126,
			"count":20,
			"type":"VEC2"
		},
		{
			"bufferView":35,
			"componentType":5126,
			"count":20,
			"type":"VEC2"
		},
		{
			"bufferView":36,
			"componentType":5126,
			"count":20,
			"type":"VEC2"
		},
		{
			"bufferView":37,
			"componentType":5121,
			"count":20,
			"normalized":true,
			"type":"VEC4"
		},
		{
			"bufferView":38,
			"componentType":5123,
			"count":20,
			"normalized":true,
			"type":"VEC4"
		},
		{
			"bufferView":39,
			"componentType":5123,
			"count":48,
			"type":"SCALAR"
		}
	],
	"bufferViews":[
		{
			"buffer":0,
			"byteLength":816,
			"byteOffset":0,
			"target":34962
		},
		{
			"buffer":0,
			"byteLength":816,
			"byteOffset":816,
			"target":34962
		},
		{
			"buffer":0,
			"byteLength":544,
			"byteOffset":1632,
			"target":34962
		},
		{
			"buffer":0,
			"byteLength":544,
			"byteOffset":2176,
			"target":34962
		},
		{
			"buffer":0,
			"byteLength":544,
			"byteOffset":2720,
			"target":34962
		},
		{
			"buffer":0,
			"byteLength":272,
			"byteOffset":3264,
			"target":34962
		},
		{
			"buffer":0,
			"byteLength":544,
			"byteOffset":3536,
			"target":34962
		},
		{
			"buffer":0,
			"byteLength":288,
			"byteOffset":4080,
			"target":34963
		},
		{
			"buffer":0,
			"byteLength":10584,
			"byteOffset":4368,
			"target":34962
		},
		{
			"buffer":0,
			"byteLength":10584,
			"byteOffset":14952,
			"target":34962
		},
		{
			"buffer":0,
			"byteLength":7056,
			"byteOffset":25536,
			"target":34962
		},
		{
			"buffer":0,
			"byteLength":7056,
			"byteOffset":32592,
			"target":34962
		},
		{
			"buffer":0,
			"byteLength":7056,
			"byteOffset":39648,
			"target":34962
		},
		{
			"buffer":0,
			"byteLength":3528,
			"byteOffset":46704,
			"target":34962
		},
		{
			"buffer":0,
			"byteLength":7056,
			"byteOffset":50232,
			"target":34962
		},
		{
			"buffer":0,
			"byteLength":3372,
			"byteOffset":57288,
			"target":34963
		},
		{
			"buffer":0,
			"byteLength":576,
			"byteOffset":60660,
			"target":34962
		},
		{
			"buffer":0,
			"byteLength":576,
			"byteOffset":61236,
			"target":34962
		},
		{
			"buffer":0,
			"byteLength":384,
			"byteOffset":61812,
			"target":34962
		},
		{
			"buffer":0,
			"byteLength":384,
			"byteOffset":62196,
			"target":34962
		},
		{
			"buffer":0,
			"byteLength":384,
			"byteOffset":62580,
			"target":34962
		},
		{
			"buffer":0,
			"byteLength":192,
			"byteOffset":62964,
			"target":34962
		},
		{
			"buffer":0,
			"byteLength":384,
			"byteOffset":63156,
			"target":34962
		},
		{
			"buffer":0,
			"byteLength":144,
			"byteOffset":63540,
			"target":34963
		},
		{
			"buffer":0,
			"byteLength":48,
			"byteOffset":63684,
			"target":34962
		},
		{
			"buffer":0,
			"byteLength":48,
			"byteOffset":63732,
			"target":34962
		},
		{
			"buffer":0,
			"byteLength":32,
			"byteOffset":63780,
			"target":34962
		},
		{
			"buffer":0,
			"byteLength":32,
			"byteOffset":63812,
			"target":34962
		},
		{
			"buffer":0,
			"byteLength":32,
			"byteOffset":63844,
			"target":34962
		},
		{
			"buffer":0,
			"byteLength":16,
			"byteOffset":63876,
			"target":34962
		},
		{
			"buffer":0,
			"byteLength":32,
			"byteOffset":63892,
			"target":34962
		},
		{
			"buffer":0,
			"byteLength":12,
			"byteOffset":63924,
			"target":34963
		},
		{
			"buffer":0,
			"byteLength":240,
			"byteOffset":63936,
			"target":34962
		},
		{
			"buffer":0,
			"byteLength":240,
			"byteOffset":64176,
			"target":34962
		},
		{
			"buffer":0,
			"byteLength":160,
			"byteOffset":64416,
			"target":34962
		},
		{
			"buffer":0,
			"byteLength":160,
			"byteOffset":64576,
			"target":34962
		},
		{
			"buffer":0,
			"byteLength":160,
			"byteOffset":64736,
			"target":34962
		},
		{
			"buffer":0,
			"byteLength":80,
			"byteOffset":64896,
			"target":34962
		},
		{
			"buffer":0,
			"byteLength":160,
			"byteOffset":64976,
			"target":34962
		},
		{
			"buffer":0,
			"byteLength":96,
			"byteOffset":65136,
			"target":34963
		}
	],
	"samplers":[
		{
			"magFilter":9729,
			"minFilter":9987
		}
	],
	"buffers":[
		{
			"byteLength":65232,
			"uri":"Brick_Window_Trim.bin"
		}
	]
}
