{
	"asset":{
		"generator":"Khronos glTF Blender I/O v4.3.47",
		"version":"2.0"
	},
	"scene":0,
	"scenes":[
		{
			"name":"Scene",
			"nodes":[
				0
			]
		}
	],
	"nodes":[
		{
			"mesh":0,
			"name":"Brick_CornerColumn_CapShort"
		}
	],
	"materials":[
		{
			"doubleSided":true,
			"name":"MI_Trim",
			"normalTexture":{
				"index":0
			},
			"pbrMetallicRoughness":{
				"baseColorTexture":{
					"index":1
				},
				"metallicRoughnessTexture":{
					"index":2
				}
			}
		}
	],
	"meshes":[
		{
			"name":"Cube.261",
			"primitives":[
				{
					"attributes":{
						"POSITION":0,
						"NORMAL":1,
						"TEXCOORD_0":2,
						"TEXCOORD_1":3,
						"COLOR_0":4,
						"COLOR_1":5
					},
					"indices":6,
					"material":0
				}
			]
		}
	],
	"textures":[
		{
			"sampler":0,
			"source":0
		},
		{
			"sampler":0,
			"source":1
		},
		{
			"sampler":0,
			"source":2
		}
	],
	"images":[
		{
			"mimeType":"image/png",
			"name":"T_Trim_Normal",
			"uri":"T_Trim_Normal.png"
		},
		{
			"mimeType":"image/png",
			"name":"T_Trim_BaseColor",
			"uri":"T_Trim_BaseColor.png"
		},
		{
			"mimeType":"image/png",
			"name":"T_Trim_ORM",
			"uri":"T_Trim_ORM.png"
		}
	],
	"accessors":[
		{
			"bufferView":0,
			"componentType":5126,
			"count":74,
			"max":[
				0.2300001084804535,
				3.041142225265503,
				0.23000001907348633
			],
			"min":[
				-1.0299999713897705,
				2.799999952316284,
				-1.0299999713897705
			],
			"type":"VEC3"
		},
		{
			"bufferView":1,
			"componentType":5126,
			"count":74,
			"type":"VEC3"
		},
		{
			"bufferView":2,
			"componentType":5126,
			"count":74,
			"type":"VEC2"
		},
		{
			"bufferView":3,
			"componentType":5126,
			"count":74,
			"type":"VEC2"
		},
		{
			"bufferView":4,
			"componentType":5121,
			"count":74,
			"normalized":true,
			"type":"VEC4"
		},
		{
			"bufferView":5,
			"componentType":5123,
			"count":74,
			"normalized":true,
			"type":"VEC4"
		},
		{
			"bufferView":6,
			"componentType":5123,
			"count":180,
			"type":"SCALAR"
		}
	],
	"bufferViews":[
		{
			"buffer":0,
			"byteLength":888,
			"byteOffset":0,
			"target":34962
		},
		{
			"buffer":0,
			"byteLength":888,
			"byteOffset":888,
			"target":34962
		},
		{
			"buffer":0,
			"byteLength":592,
			"byteOffset":1776,
			"target":34962
		},
		{
			"buffer":0,
			"byteLength":592,
			"byteOffset":2368,
			"target":34962
		},
		{
			"buffer":0,
			"byteLength":296,
			"byteOffset":2960,
			"target":34962
		},
		{
			"buffer":0,
			"byteLength":592,
			"byteOffset":3256,
			"target":34962
		},
		{
			"buffer":0,
			"byteLength":360,
			"byteOffset":3848,
			"target":34963
		}
	],
	"samplers":[
		{
			"magFilter":9729,
			"minFilter":9987
		}
	],
	"buffers":[
		{
			"byteLength":4208,
			"uri":"Brick_CornerColumn_CapShort.bin"
		}
	]
}
