{
	"asset":{
		"generator":"Khronos glTF Blender I/O v4.3.47",
		"version":"2.0"
	},
	"scene":0,
	"scenes":[
		{
			"name":"Scene",
			"nodes":[
				0
			]
		}
	],
	"nodes":[
		{
			"mesh":0,
			"name":"Brick_Column_TrimBricks"
		}
	],
	"materials":[
		{
			"doubleSided":true,
			"name":"MI_RedBrick",
			"normalTexture":{
				"index":0
			},
			"pbrMetallicRoughness":{
				"baseColorTexture":{
					"index":1
				},
				"metallicRoughnessTexture":{
					"index":2
				}
			}
		},
		{
			"doubleSided":true,
			"name":"MI_Trim",
			"normalTexture":{
				"index":3
			},
			"pbrMetallicRoughness":{
				"baseColorTexture":{
					"index":4
				},
				"metallicRoughnessTexture":{
					"index":5
				}
			}
		}
	],
	"meshes":[
		{
			"name":"Cube.014",
			"primitives":[
				{
					"attributes":{
						"POSITION":0,
						"NORMAL":1,
						"TEXCOORD_0":2,
						"TEXCOORD_1":3
					},
					"indices":4,
					"material":0
				},
				{
					"attributes":{
						"POSITION":5,
						"NORMAL":6,
						"TEXCOORD_0":7,
						"TEXCOORD_1":8
					},
					"indices":9,
					"material":1
				}
			]
		}
	],
	"textures":[
		{
			"sampler":0,
			"source":0
		},
		{
			"sampler":0,
			"source":1
		},
		{
			"sampler":0,
			"source":2
		},
		{
			"sampler":0,
			"source":3
		},
		{
			"sampler":0,
			"source":4
		},
		{
			"sampler":0,
			"source":5
		}
	],
	"images":[
		{
			"mimeType":"image/png",
			"name":"T_RedBrick_Normal",
			"uri":"T_RedBrick_Normal.png"
		},
		{
			"mimeType":"image/png",
			"name":"T_RedBrick_BaseColor",
			"uri":"T_RedBrick_BaseColor.png"
		},
		{
			"mimeType":"image/png",
			"name":"T_RedBrick_ORM",
			"uri":"T_RedBrick_ORM.png"
		},
		{
			"mimeType":"image/png",
			"name":"T_Trim_Normal",
			"uri":"T_Trim_Normal.png"
		},
		{
			"mimeType":"image/png",
			"name":"T_Trim_BaseColor",
			"uri":"T_Trim_BaseColor.png"
		},
		{
			"mimeType":"image/png",
			"name":"T_Trim_ORM",
			"uri":"T_Trim_ORM.png"
		}
	],
	"accessors":[
		{
			"bufferView":0,
			"componentType":5126,
			"count":36,
			"max":[
				0.5,
				2.997941255569458,
				0.09229391813278198
			],
			"min":[
				-0.11518429964780807,
				-0.0020582638680934906,
				-0.5205486416816711
			],
			"type":"VEC3"
		},
		{
			"bufferView":1,
			"componentType":5126,
			"count":36,
			"type":"VEC3"
		},
		{
			"bufferView":2,
			"componentType":5126,
			"count":36,
			"type":"VEC2"
		},
		{
			"bufferView":3,
			"componentType":5126,
			"count":36,
			"type":"VEC2"
		},
		{
			"bufferView":4,
			"componentType":5123,
			"count":54,
			"type":"SCALAR"
		},
		{
			"bufferView":5,
			"componentType":5126,
			"count":560,
			"max":[
				0.46696585416793823,
				2.998769760131836,
				0.11540601402521133
			],
			"min":[
				-0.15136820077896118,
				0.0027678334154188633,
				-0.49305978417396545
			],
			"type":"VEC3"
		},
		{
			"bufferView":6,
			"componentType":5126,
			"count":560,
			"type":"VEC3"
		},
		{
			"bufferView":7,
			"componentType":5126,
			"count":560,
			"type":"VEC2"
		},
		{
			"bufferView":8,
			"componentType":5126,
			"count":560,
			"type":"VEC2"
		},
		{
			"bufferView":9,
			"componentType":5123,
			"count":840,
			"type":"SCALAR"
		}
	],
	"bufferViews":[
		{
			"buffer":0,
			"byteLength":432,
			"byteOffset":0,
			"target":34962
		},
		{
			"buffer":0,
			"byteLength":432,
			"byteOffset":432,
			"target":34962
		},
		{
			"buffer":0,
			"byteLength":288,
			"byteOffset":864,
			"target":34962
		},
		{
			"buffer":0,
			"byteLength":288,
			"byteOffset":1152,
			"target":34962
		},
		{
			"buffer":0,
			"byteLength":108,
			"byteOffset":1440,
			"target":34963
		},
		{
			"buffer":0,
			"byteLength":6720,
			"byteOffset":1548,
			"target":34962
		},
		{
			"buffer":0,
			"byteLength":6720,
			"byteOffset":8268,
			"target":34962
		},
		{
			"buffer":0,
			"byteLength":4480,
			"byteOffset":14988,
			"target":34962
		},
		{
			"buffer":0,
			"byteLength":4480,
			"byteOffset":19468,
			"target":34962
		},
		{
			"buffer":0,
			"byteLength":1680,
			"byteOffset":23948,
			"target":34963
		}
	],
	"samplers":[
		{
			"magFilter":9729,
			"minFilter":9987
		}
	],
	"buffers":[
		{
			"byteLength":25628,
			"uri":"Brick_Column_TrimBricks.bin"
		}
	]
}
