{
	"asset":{
		"generator":"Khronos glTF Blender I/O v4.3.47",
		"version":"2.0"
	},
	"scene":0,
	"scenes":[
		{
			"name":"Scene",
			"nodes":[
				0
			]
		}
	],
	"nodes":[
		{
			"mesh":0,
			"name":"Brick_Inset_Window_Curved"
		}
	],
	"materials":[
		{
			"doubleSided":true,
			"name":"MI_RedBrick_Pale",
			"normalTexture":{
				"index":0
			},
			"pbrMetallicRoughness":{
				"baseColorTexture":{
					"index":1
				},
				"metallicRoughnessTexture":{
					"index":2
				}
			}
		},
		{
			"doubleSided":true,
			"name":"MI_Trim",
			"normalTexture":{
				"index":3
			},
			"pbrMetallicRoughness":{
				"baseColorTexture":{
					"index":4
				},
				"metallicRoughnessTexture":{
					"index":5
				}
			}
		},
		{
			"alphaMode":"BLEND",
			"doubleSided":true,
			"name":"MI_Glass",
			"pbrMetallicRoughness":{
				"baseColorFactor":[
					0.05215025693178177,
					0.05215025693178177,
					0.05215025693178177,
					0.586363673210144
				],
				"metallicFactor":0,
				"roughnessFactor":0.5
			}
		},
		{
			"doubleSided":true,
			"name":"MI_FakeInterior",
			"pbrMetallicRoughness":{
				"baseColorFactor":[
					0.800000011920929,
					0.800000011920929,
					0.800000011920929,
					1
				],
				"metallicFactor":0,
				"roughnessFactor":0.5
			}
		},
		{
			"doubleSided":true,
			"name":"MI_InteriorWall",
			"normalTexture":{
				"index":6
			},
			"pbrMetallicRoughness":{
				"baseColorTexture":{
					"index":7
				},
				"metallicRoughnessTexture":{
					"index":8
				}
			}
		}
	],
	"meshes":[
		{
			"name":"Cube.221",
			"primitives":[
				{
					"attributes":{
						"POSITION":0,
						"NORMAL":1,
						"TEXCOORD_0":2,
						"TEXCOORD_1":3,
						"COLOR_0":4
					},
					"indices":5,
					"material":0
				},
				{
					"attributes":{
						"POSITION":6,
						"NORMAL":7,
						"TEXCOORD_0":8,
						"TEXCOORD_1":9,
						"COLOR_0":10
					},
					"indices":11,
					"material":1
				},
				{
					"attributes":{
						"POSITION":12,
						"NORMAL":13,
						"TEXCOORD_0":14,
						"TEXCOORD_1":15,
						"COLOR_0":16
					},
					"indices":17,
					"material":2
				},
				{
					"attributes":{
						"POSITION":18,
						"NORMAL":19,
						"TEXCOORD_0":20,
						"TEXCOORD_1":21,
						"COLOR_0":22
					},
					"indices":23,
					"material":3
				},
				{
					"attributes":{
						"POSITION":24,
						"NORMAL":25,
						"TEXCOORD_0":26,
						"TEXCOORD_1":27,
						"COLOR_0":28
					},
					"indices":29,
					"material":4
				}
			]
		}
	],
	"textures":[
		{
			"sampler":0,
			"source":0
		},
		{
			"sampler":0,
			"source":1
		},
		{
			"sampler":0,
			"source":2
		},
		{
			"sampler":0,
			"source":3
		},
		{
			"sampler":0,
			"source":4
		},
		{
			"sampler":0,
			"source":5
		},
		{
			"sampler":0,
			"source":0
		},
		{
			"sampler":0,
			"source":1
		},
		{
			"sampler":0,
			"source":2
		}
	],
	"images":[
		{
			"mimeType":"image/png",
			"name":"T_RedBrick_Normal",
			"uri":"T_RedBrick_Normal.png"
		},
		{
			"mimeType":"image/png",
			"name":"T_RedBrick_BaseColor",
			"uri":"T_RedBrick_BaseColor.png"
		},
		{
			"mimeType":"image/png",
			"name":"T_RedBrick_ORM",
			"uri":"T_RedBrick_ORM.png"
		},
		{
			"mimeType":"image/png",
			"name":"T_Trim_Normal",
			"uri":"T_Trim_Normal.png"
		},
		{
			"mimeType":"image/png",
			"name":"T_Trim_BaseColor",
			"uri":"T_Trim_BaseColor.png"
		},
		{
			"mimeType":"image/png",
			"name":"T_Trim_ORM",
			"uri":"T_Trim_ORM.png"
		}
	],
	"accessors":[
		{
			"bufferView":0,
			"componentType":5126,
			"count":105,
			"max":[
				2,
				2.6658434867858887,
				0
			],
			"min":[
				-2,
				-1.6292068139023286e-08,
				-0.10000031441450119
			],
			"type":"VEC3"
		},
		{
			"bufferView":1,
			"componentType":5126,
			"count":105,
			"type":"VEC3"
		},
		{
			"bufferView":2,
			"componentType":5126,
			"count":105,
			"type":"VEC2"
		},
		{
			"bufferView":3,
			"componentType":5126,
			"count":105,
			"type":"VEC2"
		},
		{
			"bufferView":4,
			"componentType":5123,
			"count":105,
			"normalized":true,
			"type":"VEC4"
		},
		{
			"bufferView":5,
			"componentType":5123,
			"count":228,
			"type":"SCALAR"
		},
		{
			"bufferView":6,
			"componentType":5126,
			"count":757,
			"max":[
				2,
				3,
				0.1316288858652115
			],
			"min":[
				-2,
				0.6938724517822266,
				-0.24205341935157776
			],
			"type":"VEC3"
		},
		{
			"bufferView":7,
			"componentType":5126,
			"count":757,
			"type":"VEC3"
		},
		{
			"bufferView":8,
			"componentType":5126,
			"count":757,
			"type":"VEC2"
		},
		{
			"bufferView":9,
			"componentType":5126,
			"count":757,
			"type":"VEC2"
		},
		{
			"bufferView":10,
			"componentType":5123,
			"count":757,
			"normalized":true,
			"type":"VEC4"
		},
		{
			"bufferView":11,
			"componentType":5123,
			"count":1590,
			"type":"SCALAR"
		},
		{
			"bufferView":12,
			"componentType":5126,
			"count":36,
			"max":[
				0.7760517597198486,
				2.2128353118896484,
				-0.13229890167713165
			],
			"min":[
				-0.7760517597198486,
				0.8391322493553162,
				-0.133418470621109
			],
			"type":"VEC3"
		},
		{
			"bufferView":13,
			"componentType":5126,
			"count":36,
			"type":"VEC3"
		},
		{
			"bufferView":14,
			"componentType":5126,
			"count":36,
			"type":"VEC2"
		},
		{
			"bufferView":15,
			"componentType":5126,
			"count":36,
			"type":"VEC2"
		},
		{
			"bufferView":16,
			"componentType":5123,
			"count":36,
			"normalized":true,
			"type":"VEC4"
		},
		{
			"bufferView":17,
			"componentType":5123,
			"count":72,
			"type":"SCALAR"
		},
		{
			"bufferView":18,
			"componentType":5126,
			"count":4,
			"max":[
				1.4260249137878418,
				2.8027091026306152,
				-0.19701145589351654
			],
			"min":[
				-1.4260249137878418,
				0.022595254704356194,
				-0.19701191782951355
			],
			"type":"VEC3"
		},
		{
			"bufferView":19,
			"componentType":5126,
			"count":4,
			"type":"VEC3"
		},
		{
			"bufferView":20,
			"componentType":5126,
			"count":4,
			"type":"VEC2"
		},
		{
			"bufferView":21,
			"componentType":5126,
			"count":4,
			"type":"VEC2"
		},
		{
			"bufferView":22,
			"componentType":5123,
			"count":4,
			"normalized":true,
			"type":"VEC4"
		},
		{
			"bufferView":23,
			"componentType":5123,
			"count":6,
			"type":"SCALAR"
		},
		{
			"bufferView":24,
			"componentType":5126,
			"count":32,
			"max":[
				2,
				3.000000476837158,
				-0.2000000923871994
			],
			"min":[
				-2,
				0,
				-0.2000001072883606
			],
			"type":"VEC3"
		},
		{
			"bufferView":25,
			"componentType":5126,
			"count":32,
			"type":"VEC3"
		},
		{
			"bufferView":26,
			"componentType":5126,
			"count":32,
			"type":"VEC2"
		},
		{
			"bufferView":27,
			"componentType":5126,
			"count":32,
			"type":"VEC2"
		},
		{
			"bufferView":28,
			"componentType":5123,
			"count":32,
			"normalized":true,
			"type":"VEC4"
		},
		{
			"bufferView":29,
			"componentType":5123,
			"count":72,
			"type":"SCALAR"
		}
	],
	"bufferViews":[
		{
			"buffer":0,
			"byteLength":1260,
			"byteOffset":0,
			"target":34962
		},
		{
			"buffer":0,
			"byteLength":1260,
			"byteOffset":1260,
			"target":34962
		},
		{
			"buffer":0,
			"byteLength":840,
			"byteOffset":2520,
			"target":34962
		},
		{
			"buffer":0,
			"byteLength":840,
			"byteOffset":3360,
			"target":34962
		},
		{
			"buffer":0,
			"byteLength":840,
			"byteOffset":4200,
			"target":34962
		},
		{
			"buffer":0,
			"byteLength":456,
			"byteOffset":5040,
			"target":34963
		},
		{
			"buffer":0,
			"byteLength":9084,
			"byteOffset":5496,
			"target":34962
		},
		{
			"buffer":0,
			"byteLength":9084,
			"byteOffset":14580,
			"target":34962
		},
		{
			"buffer":0,
			"byteLength":6056,
			"byteOffset":23664,
			"target":34962
		},
		{
			"buffer":0,
			"byteLength":6056,
			"byteOffset":29720,
			"target":34962
		},
		{
			"buffer":0,
			"byteLength":6056,
			"byteOffset":35776,
			"target":34962
		},
		{
			"buffer":0,
			"byteLength":3180,
			"byteOffset":41832,
			"target":34963
		},
		{
			"buffer":0,
			"byteLength":432,
			"byteOffset":45012,
			"target":34962
		},
		{
			"buffer":0,
			"byteLength":432,
			"byteOffset":45444,
			"target":34962
		},
		{
			"buffer":0,
			"byteLength":288,
			"byteOffset":45876,
			"target":34962
		},
		{
			"buffer":0,
			"byteLength":288,
			"byteOffset":46164,
			"target":34962
		},
		{
			"buffer":0,
			"byteLength":288,
			"byteOffset":46452,
			"target":34962
		},
		{
			"buffer":0,
			"byteLength":144,
			"byteOffset":46740,
			"target":34963
		},
		{
			"buffer":0,
			"byteLength":48,
			"byteOffset":46884,
			"target":34962
		},
		{
			"buffer":0,
			"byteLength":48,
			"byteOffset":46932,
			"target":34962
		},
		{
			"buffer":0,
			"byteLength":32,
			"byteOffset":46980,
			"target":34962
		},
		{
			"buffer":0,
			"byteLength":32,
			"byteOffset":47012,
			"target":34962
		},
		{
			"buffer":0,
			"byteLength":32,
			"byteOffset":47044,
			"target":34962
		},
		{
			"buffer":0,
			"byteLength":12,
			"byteOffset":47076,
			"target":34963
		},
		{
			"buffer":0,
			"byteLength":384,
			"byteOffset":47088,
			"target":34962
		},
		{
			"buffer":0,
			"byteLength":384,
			"byteOffset":47472,
			"target":34962
		},
		{
			"buffer":0,
			"byteLength":256,
			"byteOffset":47856,
			"target":34962
		},
		{
			"buffer":0,
			"byteLength":256,
			"byteOffset":48112,
			"target":34962
		},
		{
			"buffer":0,
			"byteLength":256,
			"byteOffset":48368,
			"target":34962
		},
		{
			"buffer":0,
			"byteLength":144,
			"byteOffset":48624,
			"target":34963
		}
	],
	"samplers":[
		{
			"magFilter":9729,
			"minFilter":9987
		}
	],
	"buffers":[
		{
			"byteLength":48768,
			"uri":"Brick_Inset_Window_Curved.bin"
		}
	]
}
