{
	"asset":{
		"generator":"Khronos glTF Blender I/O v4.3.47",
		"version":"2.0"
	},
	"scene":0,
	"scenes":[
		{
			"name":"Scene",
			"nodes":[
				0
			]
		}
	],
	"nodes":[
		{
			"mesh":0,
			"name":"Cornice_Brick_90Angle_R"
		}
	],
	"materials":[
		{
			"doubleSided":true,
			"name":"MI_RedBrick",
			"normalTexture":{
				"index":0
			},
			"pbrMetallicRoughness":{
				"baseColorTexture":{
					"index":1
				},
				"metallicRoughnessTexture":{
					"index":2
				}
			}
		}
	],
	"meshes":[
		{
			"name":"Cube.242",
			"primitives":[
				{
					"attributes":{
						"POSITION":0,
						"NORMAL":1,
						"TEXCOORD_0":2,
						"TEXCOORD_1":3,
						"COLOR_0":4,
						"COLOR_1":5
					},
					"indices":6,
					"material":0
				}
			]
		}
	],
	"textures":[
		{
			"sampler":0,
			"source":0
		},
		{
			"sampler":0,
			"source":1
		},
		{
			"sampler":0,
			"source":2
		}
	],
	"images":[
		{
			"mimeType":"image/png",
			"name":"T_RedBrick_Normal",
			"uri":"T_RedBrick_Normal.png"
		},
		{
			"mimeType":"image/png",
			"name":"T_RedBrick_BaseColor",
			"uri":"T_RedBrick_BaseColor.png"
		},
		{
			"mimeType":"image/png",
			"name":"T_RedBrick_ORM",
			"uri":"T_RedBrick_ORM.png"
		}
	],
	"accessors":[
		{
			"bufferView":0,
			"componentType":5126,
			"count":53,
			"max":[
				1,
				1,
				5.16580129783506e-08
			],
			"min":[
				-1,
				0,
				-0.9000000953674316
			],
			"type":"VEC3"
		},
		{
			"bufferView":1,
			"componentType":5126,
			"count":53,
			"type":"VEC3"
		},
		{
			"bufferView":2,
			"componentType":5126,
			"count":53,
			"type":"VEC2"
		},
		{
			"bufferView":3,
			"componentType":5126,
			"count":53,
			"type":"VEC2"
		},
		{
			"bufferView":4,
			"componentType":5121,
			"count":53,
			"normalized":true,
			"type":"VEC4"
		},
		{
			"bufferView":5,
			"componentType":5123,
			"count":53,
			"normalized":true,
			"type":"VEC4"
		},
		{
			"bufferView":6,
			"componentType":5123,
			"count":87,
			"type":"SCALAR"
		}
	],
	"bufferViews":[
		{
			"buffer":0,
			"byteLength":636,
			"byteOffset":0,
			"target":34962
		},
		{
			"buffer":0,
			"byteLength":636,
			"byteOffset":636,
			"target":34962
		},
		{
			"buffer":0,
			"byteLength":424,
			"byteOffset":1272,
			"target":34962
		},
		{
			"buffer":0,
			"byteLength":424,
			"byteOffset":1696,
			"target":34962
		},
		{
			"buffer":0,
			"byteLength":212,
			"byteOffset":2120,
			"target":34962
		},
		{
			"buffer":0,
			"byteLength":424,
			"byteOffset":2332,
			"target":34962
		},
		{
			"buffer":0,
			"byteLength":174,
			"byteOffset":2756,
			"target":34963
		}
	],
	"samplers":[
		{
			"magFilter":9729,
			"minFilter":9987
		}
	],
	"buffers":[
		{
			"byteLength":2932,
			"uri":"Cornice_Brick_90Angle_R.bin"
		}
	]
}
