{
	"asset":{
		"generator":"Khronos glTF Blender I/O v4.3.47",
		"version":"2.0"
	},
	"scene":0,
	"scenes":[
		{
			"name":"Scene",
			"nodes":[
				0
			]
		}
	],
	"nodes":[
		{
			"mesh":0,
			"name":"Metal_FirstFloor_Window"
		}
	],
	"materials":[
		{
			"doubleSided":true,
			"name":"MI_Trim_Dark",
			"normalTexture":{
				"index":0
			},
			"pbrMetallicRoughness":{
				"baseColorTexture":{
					"index":1
				},
				"metallicRoughnessTexture":{
					"index":2
				}
			}
		},
		{
			"doubleSided":true,
			"name":"MI_Trim_MetalConcrete",
			"normalTexture":{
				"index":3
			},
			"pbrMetallicRoughness":{
				"baseColorTexture":{
					"index":4
				},
				"metallicRoughnessTexture":{
					"index":5
				}
			}
		},
		{
			"alphaMode":"BLEND",
			"doubleSided":true,
			"name":"MI_Glass",
			"pbrMetallicRoughness":{
				"baseColorFactor":[
					0.05215025693178177,
					0.05215025693178177,
					0.05215025693178177,
					0.586363673210144
				],
				"metallicFactor":0,
				"roughnessFactor":0.5
			}
		},
		{
			"doubleSided":true,
			"name":"MI_FakeInterior",
			"pbrMetallicRoughness":{
				"baseColorFactor":[
					0.800000011920929,
					0.800000011920929,
					0.800000011920929,
					1
				],
				"metallicFactor":0,
				"roughnessFactor":0.5
			}
		},
		{
			"doubleSided":true,
			"name":"MI_InteriorWall",
			"normalTexture":{
				"index":6
			},
			"pbrMetallicRoughness":{
				"baseColorTexture":{
					"index":7
				},
				"metallicRoughnessTexture":{
					"index":8
				}
			}
		}
	],
	"meshes":[
		{
			"name":"Cube.007",
			"primitives":[
				{
					"attributes":{
						"POSITION":0,
						"NORMAL":1,
						"TEXCOORD_0":2,
						"TEXCOORD_1":3,
						"COLOR_0":4
					},
					"indices":5,
					"material":0
				},
				{
					"attributes":{
						"POSITION":6,
						"NORMAL":7,
						"TEXCOORD_0":8,
						"TEXCOORD_1":9,
						"COLOR_0":10
					},
					"indices":11,
					"material":1
				},
				{
					"attributes":{
						"POSITION":12,
						"NORMAL":13,
						"TEXCOORD_0":14,
						"TEXCOORD_1":15,
						"COLOR_0":16
					},
					"indices":17,
					"material":2
				},
				{
					"attributes":{
						"POSITION":18,
						"NORMAL":19,
						"TEXCOORD_0":20,
						"TEXCOORD_1":21,
						"COLOR_0":22
					},
					"indices":23,
					"material":3
				},
				{
					"attributes":{
						"POSITION":24,
						"NORMAL":25,
						"TEXCOORD_0":26,
						"TEXCOORD_1":27,
						"COLOR_0":28
					},
					"indices":29,
					"material":4
				}
			]
		}
	],
	"textures":[
		{
			"sampler":0,
			"source":0
		},
		{
			"sampler":0,
			"source":1
		},
		{
			"sampler":0,
			"source":2
		},
		{
			"sampler":0,
			"source":3
		},
		{
			"sampler":0,
			"source":4
		},
		{
			"sampler":0,
			"source":5
		},
		{
			"sampler":0,
			"source":6
		},
		{
			"sampler":0,
			"source":7
		},
		{
			"sampler":0,
			"source":8
		}
	],
	"images":[
		{
			"mimeType":"image/png",
			"name":"T_Trim_Normal",
			"uri":"T_Trim_Normal.png"
		},
		{
			"mimeType":"image/png",
			"name":"T_Trim_BaseColor",
			"uri":"T_Trim_BaseColor.png"
		},
		{
			"mimeType":"image/png",
			"name":"T_Trim_ORM",
			"uri":"T_Trim_ORM.png"
		},
		{
			"mimeType":"image/png",
			"name":"T_MetalConcrete_Normal",
			"uri":"T_MetalConcrete_Normal.png"
		},
		{
			"mimeType":"image/png",
			"name":"T_MetalConcrete_BaseColor",
			"uri":"T_MetalConcrete_BaseColor.png"
		},
		{
			"mimeType":"image/png",
			"name":"T_MetalConcrete_ORM",
			"uri":"T_MetalConcrete_ORM.png"
		},
		{
			"mimeType":"image/png",
			"name":"T_RedBrick_Normal",
			"uri":"T_RedBrick_Normal.png"
		},
		{
			"mimeType":"image/png",
			"name":"T_RedBrick_BaseColor",
			"uri":"T_RedBrick_BaseColor.png"
		},
		{
			"mimeType":"image/png",
			"name":"T_RedBrick_ORM",
			"uri":"T_RedBrick_ORM.png"
		}
	],
	"accessors":[
		{
			"bufferView":0,
			"componentType":5126,
			"count":40,
			"max":[
				1,
				0.4739086627960205,
				0.04200989753007889
			],
			"min":[
				-1,
				0,
				-0.21678370237350464
			],
			"type":"VEC3"
		},
		{
			"bufferView":1,
			"componentType":5126,
			"count":40,
			"type":"VEC3"
		},
		{
			"bufferView":2,
			"componentType":5126,
			"count":40,
			"type":"VEC2"
		},
		{
			"bufferView":3,
			"componentType":5126,
			"count":40,
			"type":"VEC2"
		},
		{
			"bufferView":4,
			"componentType":5123,
			"count":40,
			"normalized":true,
			"type":"VEC4"
		},
		{
			"bufferView":5,
			"componentType":5123,
			"count":84,
			"type":"SCALAR"
		},
		{
			"bufferView":6,
			"componentType":5126,
			"count":188,
			"max":[
				1,
				3,
				0.015472257509827614
			],
			"min":[
				-1,
				0.4739086329936981,
				-0.2167837917804718
			],
			"type":"VEC3"
		},
		{
			"bufferView":7,
			"componentType":5126,
			"count":188,
			"type":"VEC3"
		},
		{
			"bufferView":8,
			"componentType":5126,
			"count":188,
			"type":"VEC2"
		},
		{
			"bufferView":9,
			"componentType":5126,
			"count":188,
			"type":"VEC2"
		},
		{
			"bufferView":10,
			"componentType":5123,
			"count":188,
			"normalized":true,
			"type":"VEC4"
		},
		{
			"bufferView":11,
			"componentType":5123,
			"count":348,
			"type":"SCALAR"
		},
		{
			"bufferView":12,
			"componentType":5126,
			"count":8,
			"max":[
				0.9026076793670654,
				2.941300868988037,
				-0.06675992161035538
			],
			"min":[
				-0.9026076793670654,
				0.5159831643104553,
				-0.06676002591848373
			],
			"type":"VEC3"
		},
		{
			"bufferView":13,
			"componentType":5126,
			"count":8,
			"type":"VEC3"
		},
		{
			"bufferView":14,
			"componentType":5126,
			"count":8,
			"type":"VEC2"
		},
		{
			"bufferView":15,
			"componentType":5126,
			"count":8,
			"type":"VEC2"
		},
		{
			"bufferView":16,
			"componentType":5123,
			"count":8,
			"normalized":true,
			"type":"VEC4"
		},
		{
			"bufferView":17,
			"componentType":5123,
			"count":12,
			"type":"SCALAR"
		},
		{
			"bufferView":18,
			"componentType":5126,
			"count":4,
			"max":[
				0.9872606992721558,
				2.982274055480957,
				-0.07328123599290848
			],
			"min":[
				-0.9872606992721558,
				0.20216023921966553,
				-0.07328123599290848
			],
			"type":"VEC3"
		},
		{
			"bufferView":19,
			"componentType":5126,
			"count":4,
			"type":"VEC3"
		},
		{
			"bufferView":20,
			"componentType":5126,
			"count":4,
			"type":"VEC2"
		},
		{
			"bufferView":21,
			"componentType":5126,
			"count":4,
			"type":"VEC2"
		},
		{
			"bufferView":22,
			"componentType":5123,
			"count":4,
			"normalized":true,
			"type":"VEC4"
		},
		{
			"bufferView":23,
			"componentType":5123,
			"count":6,
			"type":"SCALAR"
		},
		{
			"bufferView":24,
			"componentType":5126,
			"count":8,
			"max":[
				1,
				0.4739086627960205,
				-0.2000000923871994
			],
			"min":[
				-1,
				0,
				-0.2000000923871994
			],
			"type":"VEC3"
		},
		{
			"bufferView":25,
			"componentType":5126,
			"count":8,
			"type":"VEC3"
		},
		{
			"bufferView":26,
			"componentType":5126,
			"count":8,
			"type":"VEC2"
		},
		{
			"bufferView":27,
			"componentType":5126,
			"count":8,
			"type":"VEC2"
		},
		{
			"bufferView":28,
			"componentType":5123,
			"count":8,
			"normalized":true,
			"type":"VEC4"
		},
		{
			"bufferView":29,
			"componentType":5123,
			"count":18,
			"type":"SCALAR"
		}
	],
	"bufferViews":[
		{
			"buffer":0,
			"byteLength":480,
			"byteOffset":0,
			"target":34962
		},
		{
			"buffer":0,
			"byteLength":480,
			"byteOffset":480,
			"target":34962
		},
		{
			"buffer":0,
			"byteLength":320,
			"byteOffset":960,
			"target":34962
		},
		{
			"buffer":0,
			"byteLength":320,
			"byteOffset":1280,
			"target":34962
		},
		{
			"buffer":0,
			"byteLength":320,
			"byteOffset":1600,
			"target":34962
		},
		{
			"buffer":0,
			"byteLength":168,
			"byteOffset":1920,
			"target":34963
		},
		{
			"buffer":0,
			"byteLength":2256,
			"byteOffset":2088,
			"target":34962
		},
		{
			"buffer":0,
			"byteLength":2256,
			"byteOffset":4344,
			"target":34962
		},
		{
			"buffer":0,
			"byteLength":1504,
			"byteOffset":6600,
			"target":34962
		},
		{
			"buffer":0,
			"byteLength":1504,
			"byteOffset":8104,
			"target":34962
		},
		{
			"buffer":0,
			"byteLength":1504,
			"byteOffset":9608,
			"target":34962
		},
		{
			"buffer":0,
			"byteLength":696,
			"byteOffset":11112,
			"target":34963
		},
		{
			"buffer":0,
			"byteLength":96,
			"byteOffset":11808,
			"target":34962
		},
		{
			"buffer":0,
			"byteLength":96,
			"byteOffset":11904,
			"target":34962
		},
		{
			"buffer":0,
			"byteLength":64,
			"byteOffset":12000,
			"target":34962
		},
		{
			"buffer":0,
			"byteLength":64,
			"byteOffset":12064,
			"target":34962
		},
		{
			"buffer":0,
			"byteLength":64,
			"byteOffset":12128,
			"target":34962
		},
		{
			"buffer":0,
			"byteLength":24,
			"byteOffset":12192,
			"target":34963
		},
		{
			"buffer":0,
			"byteLength":48,
			"byteOffset":12216,
			"target":34962
		},
		{
			"buffer":0,
			"byteLength":48,
			"byteOffset":12264,
			"target":34962
		},
		{
			"buffer":0,
			"byteLength":32,
			"byteOffset":12312,
			"target":34962
		},
		{
			"buffer":0,
			"byteLength":32,
			"byteOffset":12344,
			"target":34962
		},
		{
			"buffer":0,
			"byteLength":32,
			"byteOffset":12376,
			"target":34962
		},
		{
			"buffer":0,
			"byteLength":12,
			"byteOffset":12408,
			"target":34963
		},
		{
			"buffer":0,
			"byteLength":96,
			"byteOffset":12420,
			"target":34962
		},
		{
			"buffer":0,
			"byteLength":96,
			"byteOffset":12516,
			"target":34962
		},
		{
			"buffer":0,
			"byteLength":64,
			"byteOffset":12612,
			"target":34962
		},
		{
			"buffer":0,
			"byteLength":64,
			"byteOffset":12676,
			"target":34962
		},
		{
			"buffer":0,
			"byteLength":64,
			"byteOffset":12740,
			"target":34962
		},
		{
			"buffer":0,
			"byteLength":36,
			"byteOffset":12804,
			"target":34963
		}
	],
	"samplers":[
		{
			"magFilter":9729,
			"minFilter":9987
		}
	],
	"buffers":[
		{
			"byteLength":12840,
			"uri":"Metal_FirstFloor_Window.bin"
		}
	]
}
