{
	"asset":{
		"generator":"Khronos glTF Blender I/O v4.3.47",
		"version":"2.0"
	},
	"scene":0,
	"scenes":[
		{
			"name":"Scene",
			"nodes":[
				0
			]
		}
	],
	"nodes":[
		{
			"mesh":0,
			"name":"Metal_Plain_3"
		}
	],
	"materials":[
		{
			"doubleSided":true,
			"name":"MI_Trim_MetalConcrete",
			"normalTexture":{
				"index":0
			},
			"pbrMetallicRoughness":{
				"baseColorTexture":{
					"index":1
				},
				"metallicRoughnessTexture":{
					"index":2
				}
			}
		},
		{
			"doubleSided":true,
			"name":"MI_InteriorWall",
			"normalTexture":{
				"index":3
			},
			"pbrMetallicRoughness":{
				"baseColorTexture":{
					"index":4
				},
				"metallicRoughnessTexture":{
					"index":5
				}
			}
		}
	],
	"meshes":[
		{
			"name":"Cube.166",
			"primitives":[
				{
					"attributes":{
						"POSITION":0,
						"NORMAL":1,
						"TEXCOORD_0":2,
						"TEXCOORD_1":3,
						"COLOR_0":4,
						"COLOR_1":5
					},
					"indices":6,
					"material":0
				},
				{
					"attributes":{
						"POSITION":7,
						"NORMAL":8,
						"TEXCOORD_0":9,
						"TEXCOORD_1":10,
						"COLOR_0":11,
						"COLOR_1":12
					},
					"indices":13,
					"material":1
				}
			]
		}
	],
	"textures":[
		{
			"sampler":0,
			"source":0
		},
		{
			"sampler":0,
			"source":1
		},
		{
			"sampler":0,
			"source":2
		},
		{
			"sampler":0,
			"source":3
		},
		{
			"sampler":0,
			"source":4
		},
		{
			"sampler":0,
			"source":5
		}
	],
	"images":[
		{
			"mimeType":"image/png",
			"name":"T_MetalConcrete_Normal",
			"uri":"T_MetalConcrete_Normal.png"
		},
		{
			"mimeType":"image/png",
			"name":"T_MetalConcrete_BaseColor",
			"uri":"T_MetalConcrete_BaseColor.png"
		},
		{
			"mimeType":"image/png",
			"name":"T_MetalConcrete_ORM",
			"uri":"T_MetalConcrete_ORM.png"
		},
		{
			"mimeType":"image/png",
			"name":"T_RedBrick_Normal",
			"uri":"T_RedBrick_Normal.png"
		},
		{
			"mimeType":"image/png",
			"name":"T_RedBrick_BaseColor",
			"uri":"T_RedBrick_BaseColor.png"
		},
		{
			"mimeType":"image/png",
			"name":"T_RedBrick_ORM",
			"uri":"T_RedBrick_ORM.png"
		}
	],
	"accessors":[
		{
			"bufferView":0,
			"componentType":5126,
			"count":24,
			"max":[
				1.0000001192092896,
				3.000000476837158,
				6.556707887739321e-08
			],
			"min":[
				-1.0000003576278687,
				-2.384185791015625e-07,
				-3.516677224979503e-07
			],
			"type":"VEC3"
		},
		{
			"bufferView":1,
			"componentType":5126,
			"count":24,
			"type":"VEC3"
		},
		{
			"bufferView":2,
			"componentType":5126,
			"count":24,
			"type":"VEC2"
		},
		{
			"bufferView":3,
			"componentType":5126,
			"count":24,
			"type":"VEC2"
		},
		{
			"bufferView":4,
			"componentType":5121,
			"count":24,
			"normalized":true,
			"type":"VEC4"
		},
		{
			"bufferView":5,
			"componentType":5123,
			"count":24,
			"normalized":true,
			"type":"VEC4"
		},
		{
			"bufferView":6,
			"componentType":5123,
			"count":36,
			"type":"SCALAR"
		},
		{
			"bufferView":7,
			"componentType":5126,
			"count":10,
			"max":[
				1,
				3.000000476837158,
				-0.2000000923871994
			],
			"min":[
				-1,
				0,
				-0.2000000923871994
			],
			"type":"VEC3"
		},
		{
			"bufferView":8,
			"componentType":5126,
			"count":10,
			"type":"VEC3"
		},
		{
			"bufferView":9,
			"componentType":5126,
			"count":10,
			"type":"VEC2"
		},
		{
			"bufferView":10,
			"componentType":5126,
			"count":10,
			"type":"VEC2"
		},
		{
			"bufferView":11,
			"componentType":5121,
			"count":10,
			"normalized":true,
			"type":"VEC4"
		},
		{
			"bufferView":12,
			"componentType":5123,
			"count":10,
			"normalized":true,
			"type":"VEC4"
		},
		{
			"bufferView":13,
			"componentType":5123,
			"count":18,
			"type":"SCALAR"
		}
	],
	"bufferViews":[
		{
			"buffer":0,
			"byteLength":288,
			"byteOffset":0,
			"target":34962
		},
		{
			"buffer":0,
			"byteLength":288,
			"byteOffset":288,
			"target":34962
		},
		{
			"buffer":0,
			"byteLength":192,
			"byteOffset":576,
			"target":34962
		},
		{
			"buffer":0,
			"byteLength":192,
			"byteOffset":768,
			"target":34962
		},
		{
			"buffer":0,
			"byteLength":96,
			"byteOffset":960,
			"target":34962
		},
		{
			"buffer":0,
			"byteLength":192,
			"byteOffset":1056,
			"target":34962
		},
		{
			"buffer":0,
			"byteLength":72,
			"byteOffset":1248,
			"target":34963
		},
		{
			"buffer":0,
			"byteLength":120,
			"byteOffset":1320,
			"target":34962
		},
		{
			"buffer":0,
			"byteLength":120,
			"byteOffset":1440,
			"target":34962
		},
		{
			"buffer":0,
			"byteLength":80,
			"byteOffset":1560,
			"target":34962
		},
		{
			"buffer":0,
			"byteLength":80,
			"byteOffset":1640,
			"target":34962
		},
		{
			"buffer":0,
			"byteLength":40,
			"byteOffset":1720,
			"target":34962
		},
		{
			"buffer":0,
			"byteLength":80,
			"byteOffset":1760,
			"target":34962
		},
		{
			"buffer":0,
			"byteLength":36,
			"byteOffset":1840,
			"target":34963
		}
	],
	"samplers":[
		{
			"magFilter":9729,
			"minFilter":9987
		}
	],
	"buffers":[
		{
			"byteLength":1876,
			"uri":"Metal_Plain_3.bin"
		}
	]
}
