{
	"asset":{
		"generator":"Khronos glTF Blender I/O v4.3.47",
		"version":"2.0"
	},
	"scene":0,
	"scenes":[
		{
			"name":"Scene",
			"nodes":[
				0
			]
		}
	],
	"nodes":[
		{
			"mesh":0,
			"name":"Stairs_Rails_Metal_Straight_2"
		}
	],
	"materials":[
		{
			"doubleSided":true,
			"name":"MI_Trim_MetalConcrete",
			"normalTexture":{
				"index":0
			},
			"pbrMetallicRoughness":{
				"baseColorTexture":{
					"index":1
				},
				"metallicRoughnessTexture":{
					"index":2
				}
			}
		}
	],
	"meshes":[
		{
			"name":"Cube.236",
			"primitives":[
				{
					"attributes":{
						"POSITION":0,
						"NORMAL":1,
						"TEXCOORD_0":2,
						"TEXCOORD_1":3
					},
					"indices":4,
					"material":0
				}
			]
		}
	],
	"textures":[
		{
			"sampler":0,
			"source":0
		},
		{
			"sampler":0,
			"source":1
		},
		{
			"sampler":0,
			"source":2
		}
	],
	"images":[
		{
			"mimeType":"image/png",
			"name":"T_MetalConcrete_Normal",
			"uri":"T_MetalConcrete_Normal.png"
		},
		{
			"mimeType":"image/png",
			"name":"T_MetalConcrete_BaseColor",
			"uri":"T_MetalConcrete_BaseColor.png"
		},
		{
			"mimeType":"image/png",
			"name":"T_MetalConcrete_ORM",
			"uri":"T_MetalConcrete_ORM.png"
		}
	],
	"accessors":[
		{
			"bufferView":0,
			"componentType":5126,
			"count":624,
			"max":[
				0.9694748520851135,
				1.9694111347198486,
				1
			],
			"min":[
				-0.9694748520851135,
				0.9713395833969116,
				-1
			],
			"type":"VEC3"
		},
		{
			"bufferView":1,
			"componentType":5126,
			"count":624,
			"type":"VEC3"
		},
		{
			"bufferView":2,
			"componentType":5126,
			"count":624,
			"type":"VEC2"
		},
		{
			"bufferView":3,
			"componentType":5126,
			"count":624,
			"type":"VEC2"
		},
		{
			"bufferView":4,
			"componentType":5123,
			"count":960,
			"type":"SCALAR"
		}
	],
	"bufferViews":[
		{
			"buffer":0,
			"byteLength":7488,
			"byteOffset":0,
			"target":34962
		},
		{
			"buffer":0,
			"byteLength":7488,
			"byteOffset":7488,
			"target":34962
		},
		{
			"buffer":0,
			"byteLength":4992,
			"byteOffset":14976,
			"target":34962
		},
		{
			"buffer":0,
			"byteLength":4992,
			"byteOffset":19968,
			"target":34962
		},
		{
			"buffer":0,
			"byteLength":1920,
			"byteOffset":24960,
			"target":34963
		}
	],
	"samplers":[
		{
			"magFilter":9729,
			"minFilter":9987
		}
	],
	"buffers":[
		{
			"byteLength":26880,
			"uri":"Stairs_Rails_Metal_Straight_2.bin"
		}
	]
}
