{
	"asset":{
		"generator":"Khronos glTF Blender I/O v4.3.47",
		"version":"2.0"
	},
	"scene":0,
	"scenes":[
		{
			"name":"Scene",
			"nodes":[
				0
			]
		}
	],
	"nodes":[
		{
			"mesh":0,
			"name":"Trim_Window"
		}
	],
	"materials":[
		{
			"doubleSided":true,
			"name":"MI_Trim",
			"normalTexture":{
				"index":0
			},
			"pbrMetallicRoughness":{
				"baseColorTexture":{
					"index":1
				},
				"metallicRoughnessTexture":{
					"index":2
				}
			}
		},
		{
			"alphaMode":"BLEND",
			"doubleSided":true,
			"name":"MI_Glass",
			"pbrMetallicRoughness":{
				"baseColorFactor":[
					0.05215025693178177,
					0.05215025693178177,
					0.05215025693178177,
					0.586363673210144
				],
				"metallicFactor":0,
				"roughnessFactor":0.5
			}
		},
		{
			"doubleSided":true,
			"name":"MI_Trim_Dark",
			"normalTexture":{
				"index":3
			},
			"pbrMetallicRoughness":{
				"baseColorTexture":{
					"index":4
				},
				"metallicRoughnessTexture":{
					"index":5
				}
			}
		},
		{
			"doubleSided":true,
			"name":"MI_FakeInterior",
			"pbrMetallicRoughness":{
				"baseColorFactor":[
					0.800000011920929,
					0.800000011920929,
					0.800000011920929,
					1
				],
				"metallicFactor":0,
				"roughnessFactor":0.5
			}
		},
		{
			"doubleSided":true,
			"name":"MI_InteriorWall",
			"normalTexture":{
				"index":6
			},
			"pbrMetallicRoughness":{
				"baseColorTexture":{
					"index":7
				},
				"metallicRoughnessTexture":{
					"index":8
				}
			}
		}
	],
	"meshes":[
		{
			"name":"Cube.862",
			"primitives":[
				{
					"attributes":{
						"POSITION":0,
						"NORMAL":1,
						"TEXCOORD_0":2,
						"TEXCOORD_1":3,
						"COLOR_0":4,
						"COLOR_1":5
					},
					"indices":6,
					"material":0
				},
				{
					"attributes":{
						"POSITION":7,
						"NORMAL":8,
						"TEXCOORD_0":9,
						"TEXCOORD_1":10,
						"COLOR_0":11,
						"COLOR_1":12
					},
					"indices":13,
					"material":1
				},
				{
					"attributes":{
						"POSITION":14,
						"NORMAL":15,
						"TEXCOORD_0":16,
						"TEXCOORD_1":17,
						"COLOR_0":18,
						"COLOR_1":19
					},
					"indices":20,
					"material":2
				},
				{
					"attributes":{
						"POSITION":21,
						"NORMAL":22,
						"TEXCOORD_0":23,
						"TEXCOORD_1":24,
						"COLOR_0":25,
						"COLOR_1":26
					},
					"indices":27,
					"material":3
				},
				{
					"attributes":{
						"POSITION":28,
						"NORMAL":29,
						"TEXCOORD_0":30,
						"TEXCOORD_1":31,
						"COLOR_0":32,
						"COLOR_1":33
					},
					"indices":34,
					"material":4
				}
			]
		}
	],
	"textures":[
		{
			"sampler":0,
			"source":0
		},
		{
			"sampler":0,
			"source":1
		},
		{
			"sampler":0,
			"source":2
		},
		{
			"sampler":0,
			"source":0
		},
		{
			"sampler":0,
			"source":1
		},
		{
			"sampler":0,
			"source":2
		},
		{
			"sampler":0,
			"source":3
		},
		{
			"sampler":0,
			"source":4
		},
		{
			"sampler":0,
			"source":5
		}
	],
	"images":[
		{
			"mimeType":"image/png",
			"name":"T_Trim_Normal",
			"uri":"T_Trim_Normal.png"
		},
		{
			"mimeType":"image/png",
			"name":"T_Trim_BaseColor",
			"uri":"T_Trim_BaseColor.png"
		},
		{
			"mimeType":"image/png",
			"name":"T_Trim_ORM",
			"uri":"T_Trim_ORM.png"
		},
		{
			"mimeType":"image/png",
			"name":"T_RedBrick_Normal",
			"uri":"T_RedBrick_Normal.png"
		},
		{
			"mimeType":"image/png",
			"name":"T_RedBrick_BaseColor",
			"uri":"T_RedBrick_BaseColor.png"
		},
		{
			"mimeType":"image/png",
			"name":"T_RedBrick_ORM",
			"uri":"T_RedBrick_ORM.png"
		}
	],
	"accessors":[
		{
			"bufferView":0,
			"componentType":5126,
			"count":202,
			"max":[
				1,
				3,
				1.3113415775478643e-07
			],
			"min":[
				-1,
				0,
				-0.19205881655216217
			],
			"type":"VEC3"
		},
		{
			"bufferView":1,
			"componentType":5126,
			"count":202,
			"type":"VEC3"
		},
		{
			"bufferView":2,
			"componentType":5126,
			"count":202,
			"type":"VEC2"
		},
		{
			"bufferView":3,
			"componentType":5126,
			"count":202,
			"type":"VEC2"
		},
		{
			"bufferView":4,
			"componentType":5121,
			"count":202,
			"normalized":true,
			"type":"VEC4"
		},
		{
			"bufferView":5,
			"componentType":5123,
			"count":202,
			"normalized":true,
			"type":"VEC4"
		},
		{
			"bufferView":6,
			"componentType":5123,
			"count":450,
			"type":"SCALAR"
		},
		{
			"bufferView":7,
			"componentType":5126,
			"count":36,
			"max":[
				0.49369704723358154,
				2.214435338973999,
				-0.16576535999774933
			],
			"min":[
				-0.4975692331790924,
				1.1451929807662964,
				-0.16576535999774933
			],
			"type":"VEC3"
		},
		{
			"bufferView":8,
			"componentType":5126,
			"count":36,
			"type":"VEC3"
		},
		{
			"bufferView":9,
			"componentType":5126,
			"count":36,
			"type":"VEC2"
		},
		{
			"bufferView":10,
			"componentType":5126,
			"count":36,
			"type":"VEC2"
		},
		{
			"bufferView":11,
			"componentType":5121,
			"count":36,
			"normalized":true,
			"type":"VEC4"
		},
		{
			"bufferView":12,
			"componentType":5123,
			"count":36,
			"normalized":true,
			"type":"VEC4"
		},
		{
			"bufferView":13,
			"componentType":5123,
			"count":54,
			"type":"SCALAR"
		},
		{
			"bufferView":14,
			"componentType":5126,
			"count":602,
			"max":[
				0.5286238193511963,
				2.2444980144500732,
				-0.09910842776298523
			],
			"min":[
				-0.5324132442474365,
				1.0981332063674927,
				-0.23974889516830444
			],
			"type":"VEC3"
		},
		{
			"bufferView":15,
			"componentType":5126,
			"count":602,
			"type":"VEC3"
		},
		{
			"bufferView":16,
			"componentType":5126,
			"count":602,
			"type":"VEC2"
		},
		{
			"bufferView":17,
			"componentType":5126,
			"count":602,
			"type":"VEC2"
		},
		{
			"bufferView":18,
			"componentType":5121,
			"count":602,
			"normalized":true,
			"type":"VEC4"
		},
		{
			"bufferView":19,
			"componentType":5123,
			"count":602,
			"normalized":true,
			"type":"VEC4"
		},
		{
			"bufferView":20,
			"componentType":5123,
			"count":1164,
			"type":"SCALAR"
		},
		{
			"bufferView":21,
			"componentType":5126,
			"count":4,
			"max":[
				0.9872606992721558,
				2.7950658798217773,
				-0.19612467288970947
			],
			"min":[
				-0.9872606992721558,
				0.01495218276977539,
				-0.19612467288970947
			],
			"type":"VEC3"
		},
		{
			"bufferView":22,
			"componentType":5126,
			"count":4,
			"type":"VEC3"
		},
		{
			"bufferView":23,
			"componentType":5126,
			"count":4,
			"type":"VEC2"
		},
		{
			"bufferView":24,
			"componentType":5126,
			"count":4,
			"type":"VEC2"
		},
		{
			"bufferView":25,
			"componentType":5121,
			"count":4,
			"normalized":true,
			"type":"VEC4"
		},
		{
			"bufferView":26,
			"componentType":5123,
			"count":4,
			"normalized":true,
			"type":"VEC4"
		},
		{
			"bufferView":27,
			"componentType":5123,
			"count":6,
			"type":"SCALAR"
		},
		{
			"bufferView":28,
			"componentType":5126,
			"count":20,
			"max":[
				1,
				3.000000476837158,
				-0.2000000923871994
			],
			"min":[
				-1,
				0,
				-0.2000001072883606
			],
			"type":"VEC3"
		},
		{
			"bufferView":29,
			"componentType":5126,
			"count":20,
			"type":"VEC3"
		},
		{
			"bufferView":30,
			"componentType":5126,
			"count":20,
			"type":"VEC2"
		},
		{
			"bufferView":31,
			"componentType":5126,
			"count":20,
			"type":"VEC2"
		},
		{
			"bufferView":32,
			"componentType":5121,
			"count":20,
			"normalized":true,
			"type":"VEC4"
		},
		{
			"bufferView":33,
			"componentType":5123,
			"count":20,
			"normalized":true,
			"type":"VEC4"
		},
		{
			"bufferView":34,
			"componentType":5123,
			"count":48,
			"type":"SCALAR"
		}
	],
	"bufferViews":[
		{
			"buffer":0,
			"byteLength":2424,
			"byteOffset":0,
			"target":34962
		},
		{
			"buffer":0,
			"byteLength":2424,
			"byteOffset":2424,
			"target":34962
		},
		{
			"buffer":0,
			"byteLength":1616,
			"byteOffset":4848,
			"target":34962
		},
		{
			"buffer":0,
			"byteLength":1616,
			"byteOffset":6464,
			"target":34962
		},
		{
			"buffer":0,
			"byteLength":808,
			"byteOffset":8080,
			"target":34962
		},
		{
			"buffer":0,
			"byteLength":1616,
			"byteOffset":8888,
			"target":34962
		},
		{
			"buffer":0,
			"byteLength":900,
			"byteOffset":10504,
			"target":34963
		},
		{
			"buffer":0,
			"byteLength":432,
			"byteOffset":11404,
			"target":34962
		},
		{
			"buffer":0,
			"byteLength":432,
			"byteOffset":11836,
			"target":34962
		},
		{
			"buffer":0,
			"byteLength":288,
			"byteOffset":12268,
			"target":34962
		},
		{
			"buffer":0,
			"byteLength":288,
			"byteOffset":12556,
			"target":34962
		},
		{
			"buffer":0,
			"byteLength":144,
			"byteOffset":12844,
			"target":34962
		},
		{
			"buffer":0,
			"byteLength":288,
			"byteOffset":12988,
			"target":34962
		},
		{
			"buffer":0,
			"byteLength":108,
			"byteOffset":13276,
			"target":34963
		},
		{
			"buffer":0,
			"byteLength":7224,
			"byteOffset":13384,
			"target":34962
		},
		{
			"buffer":0,
			"byteLength":7224,
			"byteOffset":20608,
			"target":34962
		},
		{
			"buffer":0,
			"byteLength":4816,
			"byteOffset":27832,
			"target":34962
		},
		{
			"buffer":0,
			"byteLength":4816,
			"byteOffset":32648,
			"target":34962
		},
		{
			"buffer":0,
			"byteLength":2408,
			"byteOffset":37464,
			"target":34962
		},
		{
			"buffer":0,
			"byteLength":4816,
			"byteOffset":39872,
			"target":34962
		},
		{
			"buffer":0,
			"byteLength":2328,
			"byteOffset":44688,
			"target":34963
		},
		{
			"buffer":0,
			"byteLength":48,
			"byteOffset":47016,
			"target":34962
		},
		{
			"buffer":0,
			"byteLength":48,
			"byteOffset":47064,
			"target":34962
		},
		{
			"buffer":0,
			"byteLength":32,
			"byteOffset":47112,
			"target":34962
		},
		{
			"buffer":0,
			"byteLength":32,
			"byteOffset":47144,
			"target":34962
		},
		{
			"buffer":0,
			"byteLength":16,
			"byteOffset":47176,
			"target":34962
		},
		{
			"buffer":0,
			"byteLength":32,
			"byteOffset":47192,
			"target":34962
		},
		{
			"buffer":0,
			"byteLength":12,
			"byteOffset":47224,
			"target":34963
		},
		{
			"buffer":0,
			"byteLength":240,
			"byteOffset":47236,
			"target":34962
		},
		{
			"buffer":0,
			"byteLength":240,
			"byteOffset":47476,
			"target":34962
		},
		{
			"buffer":0,
			"byteLength":160,
			"byteOffset":47716,
			"target":34962
		},
		{
			"buffer":0,
			"byteLength":160,
			"byteOffset":47876,
			"target":34962
		},
		{
			"buffer":0,
			"byteLength":80,
			"byteOffset":48036,
			"target":34962
		},
		{
			"buffer":0,
			"byteLength":160,
			"byteOffset":48116,
			"target":34962
		},
		{
			"buffer":0,
			"byteLength":96,
			"byteOffset":48276,
			"target":34963
		}
	],
	"samplers":[
		{
			"magFilter":9729,
			"minFilter":9987
		}
	],
	"buffers":[
		{
			"byteLength":48372,
			"uri":"Trim_Window.bin"
		}
	]
}
