{
	"asset":{
		"generator":"Khronos glTF Blender I/O v4.3.47",
		"version":"2.0"
	},
	"scene":0,
	"scenes":[
		{
			"name":"Scene",
			"nodes":[
				0
			]
		}
	],
	"nodes":[
		{
			"mesh":0,
			"name":"Trim_Wall_Guard"
		}
	],
	"materials":[
		{
			"doubleSided":true,
			"name":"MI_Trim_Green",
			"normalTexture":{
				"index":0
			},
			"pbrMetallicRoughness":{
				"baseColorTexture":{
					"index":1
				},
				"metallicRoughnessTexture":{
					"index":2
				}
			}
		}
	],
	"meshes":[
		{
			"name":"Cube.050",
			"primitives":[
				{
					"attributes":{
						"POSITION":0,
						"NORMAL":1,
						"TEXCOORD_0":2,
						"TEXCOORD_1":3,
						"COLOR_0":4
					},
					"indices":5,
					"material":0
				}
			]
		}
	],
	"textures":[
		{
			"sampler":0,
			"source":0
		},
		{
			"sampler":0,
			"source":1
		},
		{
			"sampler":0,
			"source":2
		}
	],
	"images":[
		{
			"mimeType":"image/png",
			"name":"T_Trim_Normal",
			"uri":"T_Trim_Normal.png"
		},
		{
			"mimeType":"image/png",
			"name":"T_Trim_BaseColor",
			"uri":"T_Trim_BaseColor.png"
		},
		{
			"mimeType":"image/png",
			"name":"T_Trim_ORM",
			"uri":"T_Trim_ORM.png"
		}
	],
	"accessors":[
		{
			"bufferView":0,
			"componentType":5126,
			"count":54,
			"max":[
				1,
				0.6441842317581177,
				0.11848272383213043
			],
			"min":[
				-1,
				0,
				3.977736184879177e-08
			],
			"type":"VEC3"
		},
		{
			"bufferView":1,
			"componentType":5126,
			"count":54,
			"type":"VEC3"
		},
		{
			"bufferView":2,
			"componentType":5126,
			"count":54,
			"type":"VEC2"
		},
		{
			"bufferView":3,
			"componentType":5126,
			"count":54,
			"type":"VEC2"
		},
		{
			"bufferView":4,
			"componentType":5123,
			"count":54,
			"normalized":true,
			"type":"VEC4"
		},
		{
			"bufferView":5,
			"componentType":5123,
			"count":96,
			"type":"SCALAR"
		}
	],
	"bufferViews":[
		{
			"buffer":0,
			"byteLength":648,
			"byteOffset":0,
			"target":34962
		},
		{
			"buffer":0,
			"byteLength":648,
			"byteOffset":648,
			"target":34962
		},
		{
			"buffer":0,
			"byteLength":432,
			"byteOffset":1296,
			"target":34962
		},
		{
			"buffer":0,
			"byteLength":432,
			"byteOffset":1728,
			"target":34962
		},
		{
			"buffer":0,
			"byteLength":432,
			"byteOffset":2160,
			"target":34962
		},
		{
			"buffer":0,
			"byteLength":192,
			"byteOffset":2592,
			"target":34963
		}
	],
	"samplers":[
		{
			"magFilter":9729,
			"minFilter":9987
		}
	],
	"buffers":[
		{
			"byteLength":2784,
			"uri":"Trim_Wall_Guard.bin"
		}
	]
}
