{
	"asset":{
		"generator":"Khronos glTF Blender I/O v4.3.47",
		"version":"2.0"
	},
	"scene":0,
	"scenes":[
		{
			"name":"Scene",
			"nodes":[
				0
			]
		}
	],
	"nodes":[
		{
			"mesh":0,
			"name":"Brick_RedWhite_DoubleWindow"
		}
	],
	"materials":[
		{
			"doubleSided":true,
			"name":"MI_InteriorWall",
			"normalTexture":{
				"index":0
			},
			"pbrMetallicRoughness":{
				"baseColorTexture":{
					"index":1
				},
				"metallicRoughnessTexture":{
					"index":2
				}
			}
		},
		{
			"doubleSided":true,
			"name":"MI_Trim",
			"normalTexture":{
				"index":3
			},
			"pbrMetallicRoughness":{
				"baseColorTexture":{
					"index":4
				},
				"metallicRoughnessTexture":{
					"index":5
				}
			}
		},
		{
			"doubleSided":true,
			"name":"MI_RedBrick_Pale",
			"normalTexture":{
				"index":6
			},
			"pbrMetallicRoughness":{
				"baseColorTexture":{
					"index":7
				},
				"metallicRoughnessTexture":{
					"index":8
				}
			}
		},
		{
			"doubleSided":true,
			"name":"MI_Trim_MetalConcrete",
			"normalTexture":{
				"index":9
			},
			"pbrMetallicRoughness":{
				"baseColorTexture":{
					"index":10
				},
				"metallicRoughnessTexture":{
					"index":11
				}
			}
		},
		{
			"alphaMode":"BLEND",
			"doubleSided":true,
			"name":"MI_Glass",
			"pbrMetallicRoughness":{
				"baseColorFactor":[
					0.05215025693178177,
					0.05215025693178177,
					0.05215025693178177,
					0.586363673210144
				],
				"metallicFactor":0,
				"roughnessFactor":0.5
			}
		},
		{
			"doubleSided":true,
			"name":"MI_FakeInterior",
			"pbrMetallicRoughness":{
				"baseColorFactor":[
					0.800000011920929,
					0.800000011920929,
					0.800000011920929,
					1
				],
				"metallicFactor":0,
				"roughnessFactor":0.5
			}
		}
	],
	"meshes":[
		{
			"name":"Cube.238",
			"primitives":[
				{
					"attributes":{
						"POSITION":0,
						"NORMAL":1,
						"TEXCOORD_0":2,
						"TEXCOORD_1":3,
						"COLOR_0":4,
						"COLOR_1":5
					},
					"indices":6,
					"material":0
				},
				{
					"attributes":{
						"POSITION":7,
						"NORMAL":8,
						"TEXCOORD_0":9,
						"TEXCOORD_1":10,
						"COLOR_0":11,
						"COLOR_1":12
					},
					"indices":13,
					"material":1
				},
				{
					"attributes":{
						"POSITION":14,
						"NORMAL":15,
						"TEXCOORD_0":16,
						"TEXCOORD_1":17,
						"COLOR_0":18,
						"COLOR_1":19
					},
					"indices":20,
					"material":2
				},
				{
					"attributes":{
						"POSITION":21,
						"NORMAL":22,
						"TEXCOORD_0":23,
						"TEXCOORD_1":24,
						"COLOR_0":25,
						"COLOR_1":26
					},
					"indices":27,
					"material":3
				},
				{
					"attributes":{
						"POSITION":28,
						"NORMAL":29,
						"TEXCOORD_0":30,
						"TEXCOORD_1":31,
						"COLOR_0":32,
						"COLOR_1":33
					},
					"indices":34,
					"material":4
				},
				{
					"attributes":{
						"POSITION":35,
						"NORMAL":36,
						"TEXCOORD_0":37,
						"TEXCOORD_1":38,
						"COLOR_0":39,
						"COLOR_1":40
					},
					"indices":41,
					"material":5
				}
			]
		}
	],
	"textures":[
		{
			"sampler":0,
			"source":0
		},
		{
			"sampler":0,
			"source":1
		},
		{
			"sampler":0,
			"source":2
		},
		{
			"sampler":0,
			"source":3
		},
		{
			"sampler":0,
			"source":4
		},
		{
			"sampler":0,
			"source":5
		},
		{
			"sampler":0,
			"source":0
		},
		{
			"sampler":0,
			"source":1
		},
		{
			"sampler":0,
			"source":2
		},
		{
			"sampler":0,
			"source":6
		},
		{
			"sampler":0,
			"source":7
		},
		{
			"sampler":0,
			"source":8
		}
	],
	"images":[
		{
			"mimeType":"image/png",
			"name":"T_RedBrick_Normal",
			"uri":"T_RedBrick_Normal.png"
		},
		{
			"mimeType":"image/png",
			"name":"T_RedBrick_BaseColor",
			"uri":"T_RedBrick_BaseColor.png"
		},
		{
			"mimeType":"image/png",
			"name":"T_RedBrick_ORM",
			"uri":"T_RedBrick_ORM.png"
		},
		{
			"mimeType":"image/png",
			"name":"T_Trim_Normal",
			"uri":"T_Trim_Normal.png"
		},
		{
			"mimeType":"image/png",
			"name":"T_Trim_BaseColor",
			"uri":"T_Trim_BaseColor.png"
		},
		{
			"mimeType":"image/png",
			"name":"T_Trim_ORM",
			"uri":"T_Trim_ORM.png"
		},
		{
			"mimeType":"image/png",
			"name":"T_MetalConcrete_Normal",
			"uri":"T_MetalConcrete_Normal.png"
		},
		{
			"mimeType":"image/png",
			"name":"T_MetalConcrete_BaseColor",
			"uri":"T_MetalConcrete_BaseColor.png"
		},
		{
			"mimeType":"image/png",
			"name":"T_MetalConcrete_ORM",
			"uri":"T_MetalConcrete_ORM.png"
		}
	],
	"accessors":[
		{
			"bufferView":0,
			"componentType":5126,
			"count":40,
			"max":[
				2,
				3.000000476837158,
				-0.2000000923871994
			],
			"min":[
				-2,
				0,
				-0.2000000923871994
			],
			"type":"VEC3"
		},
		{
			"bufferView":1,
			"componentType":5126,
			"count":40,
			"type":"VEC3"
		},
		{
			"bufferView":2,
			"componentType":5126,
			"count":40,
			"type":"VEC2"
		},
		{
			"bufferView":3,
			"componentType":5126,
			"count":40,
			"type":"VEC2"
		},
		{
			"bufferView":4,
			"componentType":5121,
			"count":40,
			"normalized":true,
			"type":"VEC4"
		},
		{
			"bufferView":5,
			"componentType":5123,
			"count":40,
			"normalized":true,
			"type":"VEC4"
		},
		{
			"bufferView":6,
			"componentType":5123,
			"count":96,
			"type":"SCALAR"
		},
		{
			"bufferView":7,
			"componentType":5126,
			"count":806,
			"max":[
				2,
				3,
				0.035649046301841736
			],
			"min":[
				-2,
				0,
				-0.07388575375080109
			],
			"type":"VEC3"
		},
		{
			"bufferView":8,
			"componentType":5126,
			"count":806,
			"type":"VEC3"
		},
		{
			"bufferView":9,
			"componentType":5126,
			"count":806,
			"type":"VEC2"
		},
		{
			"bufferView":10,
			"componentType":5126,
			"count":806,
			"type":"VEC2"
		},
		{
			"bufferView":11,
			"componentType":5121,
			"count":806,
			"normalized":true,
			"type":"VEC4"
		},
		{
			"bufferView":12,
			"componentType":5123,
			"count":806,
			"normalized":true,
			"type":"VEC4"
		},
		{
			"bufferView":13,
			"componentType":5123,
			"count":1320,
			"type":"SCALAR"
		},
		{
			"bufferView":14,
			"componentType":5126,
			"count":36,
			"max":[
				2,
				2.6658434867858887,
				1.1652771547687735e-07
			],
			"min":[
				-2,
				0,
				0
			],
			"type":"VEC3"
		},
		{
			"bufferView":15,
			"componentType":5126,
			"count":36,
			"type":"VEC3"
		},
		{
			"bufferView":16,
			"componentType":5126,
			"count":36,
			"type":"VEC2"
		},
		{
			"bufferView":17,
			"componentType":5126,
			"count":36,
			"type":"VEC2"
		},
		{
			"bufferView":18,
			"componentType":5121,
			"count":36,
			"normalized":true,
			"type":"VEC4"
		},
		{
			"bufferView":19,
			"componentType":5123,
			"count":36,
			"normalized":true,
			"type":"VEC4"
		},
		{
			"bufferView":20,
			"componentType":5123,
			"count":96,
			"type":"SCALAR"
		},
		{
			"bufferView":21,
			"componentType":5126,
			"count":512,
			"max":[
				1.0595171451568604,
				2.407869815826416,
				-0.03430803865194321
			],
			"min":[
				-1.0595171451568604,
				0.3467772603034973,
				-0.2416905164718628
			],
			"type":"VEC3"
		},
		{
			"bufferView":22,
			"componentType":5126,
			"count":512,
			"type":"VEC3"
		},
		{
			"bufferView":23,
			"componentType":5126,
			"count":512,
			"type":"VEC2"
		},
		{
			"bufferView":24,
			"componentType":5126,
			"count":512,
			"type":"VEC2"
		},
		{
			"bufferView":25,
			"componentType":5121,
			"count":512,
			"normalized":true,
			"type":"VEC4"
		},
		{
			"bufferView":26,
			"componentType":5123,
			"count":512,
			"normalized":true,
			"type":"VEC4"
		},
		{
			"bufferView":27,
			"componentType":5123,
			"count":840,
			"type":"SCALAR"
		},
		{
			"bufferView":28,
			"componentType":5126,
			"count":16,
			"max":[
				0.9852449893951416,
				2.3183350563049316,
				-0.07897023856639862
			],
			"min":[
				-0.9852449893951416,
				0.4363119602203369,
				-0.07897035777568817
			],
			"type":"VEC3"
		},
		{
			"bufferView":29,
			"componentType":5126,
			"count":16,
			"type":"VEC3"
		},
		{
			"bufferView":30,
			"componentType":5126,
			"count":16,
			"type":"VEC2"
		},
		{
			"bufferView":31,
			"componentType":5126,
			"count":16,
			"type":"VEC2"
		},
		{
			"bufferView":32,
			"componentType":5121,
			"count":16,
			"normalized":true,
			"type":"VEC4"
		},
		{
			"bufferView":33,
			"componentType":5123,
			"count":16,
			"normalized":true,
			"type":"VEC4"
		},
		{
			"bufferView":34,
			"componentType":5123,
			"count":24,
			"type":"SCALAR"
		},
		{
			"bufferView":35,
			"componentType":5126,
			"count":4,
			"max":[
				1.4260249137878418,
				2.8756752014160156,
				-0.1970006227493286
			],
			"min":[
				-1.4260249137878418,
				0.09556138515472412,
				-0.1970006227493286
			],
			"type":"VEC3"
		},
		{
			"bufferView":36,
			"componentType":5126,
			"count":4,
			"type":"VEC3"
		},
		{
			"bufferView":37,
			"componentType":5126,
			"count":4,
			"type":"VEC2"
		},
		{
			"bufferView":38,
			"componentType":5126,
			"count":4,
			"type":"VEC2"
		},
		{
			"bufferView":39,
			"componentType":5121,
			"count":4,
			"normalized":true,
			"type":"VEC4"
		},
		{
			"bufferView":40,
			"componentType":5123,
			"count":4,
			"normalized":true,
			"type":"VEC4"
		},
		{
			"bufferView":41,
			"componentType":5123,
			"count":6,
			"type":"SCALAR"
		}
	],
	"bufferViews":[
		{
			"buffer":0,
			"byteLength":480,
			"byteOffset":0,
			"target":34962
		},
		{
			"buffer":0,
			"byteLength":480,
			"byteOffset":480,
			"target":34962
		},
		{
			"buffer":0,
			"byteLength":320,
			"byteOffset":960,
			"target":34962
		},
		{
			"buffer":0,
			"byteLength":320,
			"byteOffset":1280,
			"target":34962
		},
		{
			"buffer":0,
			"byteLength":160,
			"byteOffset":1600,
			"target":34962
		},
		{
			"buffer":0,
			"byteLength":320,
			"byteOffset":1760,
			"target":34962
		},
		{
			"buffer":0,
			"byteLength":192,
			"byteOffset":2080,
			"target":34963
		},
		{
			"buffer":0,
			"byteLength":9672,
			"byteOffset":2272,
			"target":34962
		},
		{
			"buffer":0,
			"byteLength":9672,
			"byteOffset":11944,
			"target":34962
		},
		{
			"buffer":0,
			"byteLength":6448,
			"byteOffset":21616,
			"target":34962
		},
		{
			"buffer":0,
			"byteLength":6448,
			"byteOffset":28064,
			"target":34962
		},
		{
			"buffer":0,
			"byteLength":3224,
			"byteOffset":34512,
			"target":34962
		},
		{
			"buffer":0,
			"byteLength":6448,
			"byteOffset":37736,
			"target":34962
		},
		{
			"buffer":0,
			"byteLength":2640,
			"byteOffset":44184,
			"target":34963
		},
		{
			"buffer":0,
			"byteLength":432,
			"byteOffset":46824,
			"target":34962
		},
		{
			"buffer":0,
			"byteLength":432,
			"byteOffset":47256,
			"target":34962
		},
		{
			"buffer":0,
			"byteLength":288,
			"byteOffset":47688,
			"target":34962
		},
		{
			"buffer":0,
			"byteLength":288,
			"byteOffset":47976,
			"target":34962
		},
		{
			"buffer":0,
			"byteLength":144,
			"byteOffset":48264,
			"target":34962
		},
		{
			"buffer":0,
			"byteLength":288,
			"byteOffset":48408,
			"target":34962
		},
		{
			"buffer":0,
			"byteLength":192,
			"byteOffset":48696,
			"target":34963
		},
		{
			"buffer":0,
			"byteLength":6144,
			"byteOffset":48888,
			"target":34962
		},
		{
			"buffer":0,
			"byteLength":6144,
			"byteOffset":55032,
			"target":34962
		},
		{
			"buffer":0,
			"byteLength":4096,
			"byteOffset":61176,
			"target":34962
		},
		{
			"buffer":0,
			"byteLength":4096,
			"byteOffset":65272,
			"target":34962
		},
		{
			"buffer":0,
			"byteLength":2048,
			"byteOffset":69368,
			"target":34962
		},
		{
			"buffer":0,
			"byteLength":4096,
			"byteOffset":71416,
			"target":34962
		},
		{
			"buffer":0,
			"byteLength":1680,
			"byteOffset":75512,
			"target":34963
		},
		{
			"buffer":0,
			"byteLength":192,
			"byteOffset":77192,
			"target":34962
		},
		{
			"buffer":0,
			"byteLength":192,
			"byteOffset":77384,
			"target":34962
		},
		{
			"buffer":0,
			"byteLength":128,
			"byteOffset":77576,
			"target":34962
		},
		{
			"buffer":0,
			"byteLength":128,
			"byteOffset":77704,
			"target":34962
		},
		{
			"buffer":0,
			"byteLength":64,
			"byteOffset":77832,
			"target":34962
		},
		{
			"buffer":0,
			"byteLength":128,
			"byteOffset":77896,
			"target":34962
		},
		{
			"buffer":0,
			"byteLength":48,
			"byteOffset":78024,
			"target":34963
		},
		{
			"buffer":0,
			"byteLength":48,
			"byteOffset":78072,
			"target":34962
		},
		{
			"buffer":0,
			"byteLength":48,
			"byteOffset":78120,
			"target":34962
		},
		{
			"buffer":0,
			"byteLength":32,
			"byteOffset":78168,
			"target":34962
		},
		{
			"buffer":0,
			"byteLength":32,
			"byteOffset":78200,
			"target":34962
		},
		{
			"buffer":0,
			"byteLength":16,
			"byteOffset":78232,
			"target":34962
		},
		{
			"buffer":0,
			"byteLength":32,
			"byteOffset":78248,
			"target":34962
		},
		{
			"buffer":0,
			"byteLength":12,
			"byteOffset":78280,
			"target":34963
		}
	],
	"samplers":[
		{
			"magFilter":9729,
			"minFilter":9987
		}
	],
	"buffers":[
		{
			"byteLength":78292,
			"uri":"Brick_RedWhite_DoubleWindow.bin"
		}
	]
}
