{
	"asset":{
		"generator":"Khronos glTF Blender I/O v4.3.47",
		"version":"2.0"
	},
	"scene":0,
	"scenes":[
		{
			"name":"Scene",
			"nodes":[
				0
			]
		}
	],
	"nodes":[
		{
			"mesh":0,
			"name":"Brick_Inset_Window"
		}
	],
	"materials":[
		{
			"doubleSided":true,
			"name":"MI_RedBrick_Pale",
			"normalTexture":{
				"index":0
			},
			"pbrMetallicRoughness":{
				"baseColorTexture":{
					"index":1
				},
				"metallicRoughnessTexture":{
					"index":2
				}
			}
		},
		{
			"doubleSided":true,
			"name":"MI_Trim",
			"normalTexture":{
				"index":3
			},
			"pbrMetallicRoughness":{
				"baseColorTexture":{
					"index":4
				},
				"metallicRoughnessTexture":{
					"index":5
				}
			}
		},
		{
			"alphaMode":"BLEND",
			"doubleSided":true,
			"name":"MI_Glass",
			"pbrMetallicRoughness":{
				"baseColorFactor":[
					0.05215025693178177,
					0.05215025693178177,
					0.05215025693178177,
					0.586363673210144
				],
				"metallicFactor":0,
				"roughnessFactor":0.5
			}
		},
		{
			"doubleSided":true,
			"name":"MI_FakeInterior",
			"pbrMetallicRoughness":{
				"baseColorFactor":[
					0.800000011920929,
					0.800000011920929,
					0.800000011920929,
					1
				],
				"metallicFactor":0,
				"roughnessFactor":0.5
			}
		},
		{
			"doubleSided":true,
			"name":"MI_InteriorWall",
			"normalTexture":{
				"index":6
			},
			"pbrMetallicRoughness":{
				"baseColorTexture":{
					"index":7
				},
				"metallicRoughnessTexture":{
					"index":8
				}
			}
		}
	],
	"meshes":[
		{
			"name":"Cube.230",
			"primitives":[
				{
					"attributes":{
						"POSITION":0,
						"NORMAL":1,
						"TEXCOORD_0":2,
						"TEXCOORD_1":3,
						"COLOR_0":4
					},
					"indices":5,
					"material":0
				},
				{
					"attributes":{
						"POSITION":6,
						"NORMAL":7,
						"TEXCOORD_0":8,
						"TEXCOORD_1":9,
						"COLOR_0":10
					},
					"indices":11,
					"material":1
				},
				{
					"attributes":{
						"POSITION":12,
						"NORMAL":13,
						"TEXCOORD_0":14,
						"TEXCOORD_1":15,
						"COLOR_0":16
					},
					"indices":17,
					"material":2
				},
				{
					"attributes":{
						"POSITION":18,
						"NORMAL":19,
						"TEXCOORD_0":20,
						"TEXCOORD_1":21,
						"COLOR_0":22
					},
					"indices":23,
					"material":3
				},
				{
					"attributes":{
						"POSITION":24,
						"NORMAL":25,
						"TEXCOORD_0":26,
						"TEXCOORD_1":27,
						"COLOR_0":28
					},
					"indices":29,
					"material":4
				}
			]
		}
	],
	"textures":[
		{
			"sampler":0,
			"source":0
		},
		{
			"sampler":0,
			"source":1
		},
		{
			"sampler":0,
			"source":2
		},
		{
			"sampler":0,
			"source":3
		},
		{
			"sampler":0,
			"source":4
		},
		{
			"sampler":0,
			"source":5
		},
		{
			"sampler":0,
			"source":0
		},
		{
			"sampler":0,
			"source":1
		},
		{
			"sampler":0,
			"source":2
		}
	],
	"images":[
		{
			"mimeType":"image/png",
			"name":"T_RedBrick_Normal",
			"uri":"T_RedBrick_Normal.png"
		},
		{
			"mimeType":"image/png",
			"name":"T_RedBrick_BaseColor",
			"uri":"T_RedBrick_BaseColor.png"
		},
		{
			"mimeType":"image/png",
			"name":"T_RedBrick_ORM",
			"uri":"T_RedBrick_ORM.png"
		},
		{
			"mimeType":"image/png",
			"name":"T_Trim_Normal",
			"uri":"T_Trim_Normal.png"
		},
		{
			"mimeType":"image/png",
			"name":"T_Trim_BaseColor",
			"uri":"T_Trim_BaseColor.png"
		},
		{
			"mimeType":"image/png",
			"name":"T_Trim_ORM",
			"uri":"T_Trim_ORM.png"
		}
	],
	"accessors":[
		{
			"bufferView":0,
			"componentType":5126,
			"count":82,
			"max":[
				2,
				2.6658434867858887,
				1.1652771547687735e-07
			],
			"min":[
				-2,
				0,
				-0.10000000149011612
			],
			"type":"VEC3"
		},
		{
			"bufferView":1,
			"componentType":5126,
			"count":82,
			"type":"VEC3"
		},
		{
			"bufferView":2,
			"componentType":5126,
			"count":82,
			"type":"VEC2"
		},
		{
			"bufferView":3,
			"componentType":5126,
			"count":82,
			"type":"VEC2"
		},
		{
			"bufferView":4,
			"componentType":5123,
			"count":82,
			"normalized":true,
			"type":"VEC4"
		},
		{
			"bufferView":5,
			"componentType":5123,
			"count":204,
			"type":"SCALAR"
		},
		{
			"bufferView":6,
			"componentType":5126,
			"count":633,
			"max":[
				2,
				3,
				0.12901781499385834
			],
			"min":[
				-2,
				0.6567046642303467,
				-0.24526718258857727
			],
			"type":"VEC3"
		},
		{
			"bufferView":7,
			"componentType":5126,
			"count":633,
			"type":"VEC3"
		},
		{
			"bufferView":8,
			"componentType":5126,
			"count":633,
			"type":"VEC2"
		},
		{
			"bufferView":9,
			"componentType":5126,
			"count":633,
			"type":"VEC2"
		},
		{
			"bufferView":10,
			"componentType":5123,
			"count":633,
			"normalized":true,
			"type":"VEC4"
		},
		{
			"bufferView":11,
			"componentType":5123,
			"count":1158,
			"type":"SCALAR"
		},
		{
			"bufferView":12,
			"componentType":5126,
			"count":24,
			"max":[
				0.7832502722740173,
				2.0377230644226074,
				-0.14566266536712646
			],
			"min":[
				-0.7832502126693726,
				0.8033118844032288,
				-0.14679259061813354
			],
			"type":"VEC3"
		},
		{
			"bufferView":13,
			"componentType":5126,
			"count":24,
			"type":"VEC3"
		},
		{
			"bufferView":14,
			"componentType":5126,
			"count":24,
			"type":"VEC2"
		},
		{
			"bufferView":15,
			"componentType":5126,
			"count":24,
			"type":"VEC2"
		},
		{
			"bufferView":16,
			"componentType":5123,
			"count":24,
			"normalized":true,
			"type":"VEC4"
		},
		{
			"bufferView":17,
			"componentType":5123,
			"count":36,
			"type":"SCALAR"
		},
		{
			"bufferView":18,
			"componentType":5126,
			"count":4,
			"max":[
				1.4260249137878418,
				2.8027091026306152,
				-0.19701145589351654
			],
			"min":[
				-1.4260249137878418,
				0.02259528636932373,
				-0.19701145589351654
			],
			"type":"VEC3"
		},
		{
			"bufferView":19,
			"componentType":5126,
			"count":4,
			"type":"VEC3"
		},
		{
			"bufferView":20,
			"componentType":5126,
			"count":4,
			"type":"VEC2"
		},
		{
			"bufferView":21,
			"componentType":5126,
			"count":4,
			"type":"VEC2"
		},
		{
			"bufferView":22,
			"componentType":5123,
			"count":4,
			"normalized":true,
			"type":"VEC4"
		},
		{
			"bufferView":23,
			"componentType":5123,
			"count":6,
			"type":"SCALAR"
		},
		{
			"bufferView":24,
			"componentType":5126,
			"count":28,
			"max":[
				2,
				3.000000476837158,
				-0.19999960064888
			],
			"min":[
				-2,
				3.258415048890129e-08,
				-0.2000000923871994
			],
			"type":"VEC3"
		},
		{
			"bufferView":25,
			"componentType":5126,
			"count":28,
			"type":"VEC3"
		},
		{
			"bufferView":26,
			"componentType":5126,
			"count":28,
			"type":"VEC2"
		},
		{
			"bufferView":27,
			"componentType":5126,
			"count":28,
			"type":"VEC2"
		},
		{
			"bufferView":28,
			"componentType":5123,
			"count":28,
			"normalized":true,
			"type":"VEC4"
		},
		{
			"bufferView":29,
			"componentType":5123,
			"count":60,
			"type":"SCALAR"
		}
	],
	"bufferViews":[
		{
			"buffer":0,
			"byteLength":984,
			"byteOffset":0,
			"target":34962
		},
		{
			"buffer":0,
			"byteLength":984,
			"byteOffset":984,
			"target":34962
		},
		{
			"buffer":0,
			"byteLength":656,
			"byteOffset":1968,
			"target":34962
		},
		{
			"buffer":0,
			"byteLength":656,
			"byteOffset":2624,
			"target":34962
		},
		{
			"buffer":0,
			"byteLength":656,
			"byteOffset":3280,
			"target":34962
		},
		{
			"buffer":0,
			"byteLength":408,
			"byteOffset":3936,
			"target":34963
		},
		{
			"buffer":0,
			"byteLength":7596,
			"byteOffset":4344,
			"target":34962
		},
		{
			"buffer":0,
			"byteLength":7596,
			"byteOffset":11940,
			"target":34962
		},
		{
			"buffer":0,
			"byteLength":5064,
			"byteOffset":19536,
			"target":34962
		},
		{
			"buffer":0,
			"byteLength":5064,
			"byteOffset":24600,
			"target":34962
		},
		{
			"buffer":0,
			"byteLength":5064,
			"byteOffset":29664,
			"target":34962
		},
		{
			"buffer":0,
			"byteLength":2316,
			"byteOffset":34728,
			"target":34963
		},
		{
			"buffer":0,
			"byteLength":288,
			"byteOffset":37044,
			"target":34962
		},
		{
			"buffer":0,
			"byteLength":288,
			"byteOffset":37332,
			"target":34962
		},
		{
			"buffer":0,
			"byteLength":192,
			"byteOffset":37620,
			"target":34962
		},
		{
			"buffer":0,
			"byteLength":192,
			"byteOffset":37812,
			"target":34962
		},
		{
			"buffer":0,
			"byteLength":192,
			"byteOffset":38004,
			"target":34962
		},
		{
			"buffer":0,
			"byteLength":72,
			"byteOffset":38196,
			"target":34963
		},
		{
			"buffer":0,
			"byteLength":48,
			"byteOffset":38268,
			"target":34962
		},
		{
			"buffer":0,
			"byteLength":48,
			"byteOffset":38316,
			"target":34962
		},
		{
			"buffer":0,
			"byteLength":32,
			"byteOffset":38364,
			"target":34962
		},
		{
			"buffer":0,
			"byteLength":32,
			"byteOffset":38396,
			"target":34962
		},
		{
			"buffer":0,
			"byteLength":32,
			"byteOffset":38428,
			"target":34962
		},
		{
			"buffer":0,
			"byteLength":12,
			"byteOffset":38460,
			"target":34963
		},
		{
			"buffer":0,
			"byteLength":336,
			"byteOffset":38472,
			"target":34962
		},
		{
			"buffer":0,
			"byteLength":336,
			"byteOffset":38808,
			"target":34962
		},
		{
			"buffer":0,
			"byteLength":224,
			"byteOffset":39144,
			"target":34962
		},
		{
			"buffer":0,
			"byteLength":224,
			"byteOffset":39368,
			"target":34962
		},
		{
			"buffer":0,
			"byteLength":224,
			"byteOffset":39592,
			"target":34962
		},
		{
			"buffer":0,
			"byteLength":120,
			"byteOffset":39816,
			"target":34963
		}
	],
	"samplers":[
		{
			"magFilter":9729,
			"minFilter":9987
		}
	],
	"buffers":[
		{
			"byteLength":39936,
			"uri":"Brick_Inset_Window.bin"
		}
	]
}
