{
	"asset":{
		"generator":"Khronos glTF Blender I/O v4.3.47",
		"version":"2.0"
	},
	"scene":0,
	"scenes":[
		{
			"name":"Scene",
			"nodes":[
				0
			]
		}
	],
	"nodes":[
		{
			"mesh":0,
			"name":"Brick_Window_Square_Single"
		}
	],
	"materials":[
		{
			"doubleSided":true,
			"name":"MI_RedBrick_Pale",
			"normalTexture":{
				"index":0
			},
			"pbrMetallicRoughness":{
				"baseColorTexture":{
					"index":1
				},
				"metallicRoughnessTexture":{
					"index":2
				}
			}
		},
		{
			"doubleSided":true,
			"name":"MI_Trim",
			"normalTexture":{
				"index":3
			},
			"pbrMetallicRoughness":{
				"baseColorTexture":{
					"index":4
				},
				"metallicRoughnessTexture":{
					"index":5
				}
			}
		},
		{
			"alphaMode":"BLEND",
			"doubleSided":true,
			"name":"MI_Glass",
			"pbrMetallicRoughness":{
				"baseColorFactor":[
					0.05215025693178177,
					0.05215025693178177,
					0.05215025693178177,
					0.586363673210144
				],
				"metallicFactor":0,
				"roughnessFactor":0.5
			}
		},
		{
			"doubleSided":true,
			"name":"MI_FakeInterior",
			"pbrMetallicRoughness":{
				"baseColorFactor":[
					0.800000011920929,
					0.800000011920929,
					0.800000011920929,
					1
				],
				"metallicFactor":0,
				"roughnessFactor":0.5
			}
		},
		{
			"doubleSided":true,
			"name":"MI_InteriorWall",
			"normalTexture":{
				"index":6
			},
			"pbrMetallicRoughness":{
				"baseColorTexture":{
					"index":7
				},
				"metallicRoughnessTexture":{
					"index":8
				}
			}
		}
	],
	"meshes":[
		{
			"name":"Cube.185",
			"primitives":[
				{
					"attributes":{
						"POSITION":0,
						"NORMAL":1,
						"TEXCOORD_0":2,
						"TEXCOORD_1":3,
						"COLOR_0":4,
						"COLOR_1":5
					},
					"indices":6,
					"material":0
				},
				{
					"attributes":{
						"POSITION":7,
						"NORMAL":8,
						"TEXCOORD_0":9,
						"TEXCOORD_1":10,
						"COLOR_0":11,
						"COLOR_1":12
					},
					"indices":13,
					"material":1
				},
				{
					"attributes":{
						"POSITION":14,
						"NORMAL":15,
						"TEXCOORD_0":16,
						"TEXCOORD_1":17,
						"COLOR_0":18,
						"COLOR_1":19
					},
					"indices":20,
					"material":2
				},
				{
					"attributes":{
						"POSITION":21,
						"NORMAL":22,
						"TEXCOORD_0":23,
						"TEXCOORD_1":24,
						"COLOR_0":25,
						"COLOR_1":26
					},
					"indices":27,
					"material":3
				},
				{
					"attributes":{
						"POSITION":28,
						"NORMAL":29,
						"TEXCOORD_0":30,
						"TEXCOORD_1":31,
						"COLOR_0":32,
						"COLOR_1":33
					},
					"indices":34,
					"material":4
				}
			]
		}
	],
	"textures":[
		{
			"sampler":0,
			"source":0
		},
		{
			"sampler":0,
			"source":1
		},
		{
			"sampler":0,
			"source":2
		},
		{
			"sampler":0,
			"source":3
		},
		{
			"sampler":0,
			"source":4
		},
		{
			"sampler":0,
			"source":5
		},
		{
			"sampler":0,
			"source":0
		},
		{
			"sampler":0,
			"source":1
		},
		{
			"sampler":0,
			"source":2
		}
	],
	"images":[
		{
			"mimeType":"image/png",
			"name":"T_RedBrick_Normal",
			"uri":"T_RedBrick_Normal.png"
		},
		{
			"mimeType":"image/png",
			"name":"T_RedBrick_BaseColor",
			"uri":"T_RedBrick_BaseColor.png"
		},
		{
			"mimeType":"image/png",
			"name":"T_RedBrick_ORM",
			"uri":"T_RedBrick_ORM.png"
		},
		{
			"mimeType":"image/png",
			"name":"T_Trim_Normal",
			"uri":"T_Trim_Normal.png"
		},
		{
			"mimeType":"image/png",
			"name":"T_Trim_BaseColor",
			"uri":"T_Trim_BaseColor.png"
		},
		{
			"mimeType":"image/png",
			"name":"T_Trim_ORM",
			"uri":"T_Trim_ORM.png"
		}
	],
	"accessors":[
		{
			"bufferView":0,
			"componentType":5126,
			"count":24,
			"max":[
				1,
				2.6658434867858887,
				1.1652771547687735e-07
			],
			"min":[
				-1,
				0,
				0
			],
			"type":"VEC3"
		},
		{
			"bufferView":1,
			"componentType":5126,
			"count":24,
			"type":"VEC3"
		},
		{
			"bufferView":2,
			"componentType":5126,
			"count":24,
			"type":"VEC2"
		},
		{
			"bufferView":3,
			"componentType":5126,
			"count":24,
			"type":"VEC2"
		},
		{
			"bufferView":4,
			"componentType":5121,
			"count":24,
			"normalized":true,
			"type":"VEC4"
		},
		{
			"bufferView":5,
			"componentType":5123,
			"count":24,
			"normalized":true,
			"type":"VEC4"
		},
		{
			"bufferView":6,
			"componentType":5123,
			"count":66,
			"type":"SCALAR"
		},
		{
			"bufferView":7,
			"componentType":5126,
			"count":254,
			"max":[
				1,
				3,
				0.035547032952308655
			],
			"min":[
				-1,
				0.4924987554550171,
				-0.2354610413312912
			],
			"type":"VEC3"
		},
		{
			"bufferView":8,
			"componentType":5126,
			"count":254,
			"type":"VEC3"
		},
		{
			"bufferView":9,
			"componentType":5126,
			"count":254,
			"type":"VEC2"
		},
		{
			"bufferView":10,
			"componentType":5126,
			"count":254,
			"type":"VEC2"
		},
		{
			"bufferView":11,
			"componentType":5121,
			"count":254,
			"normalized":true,
			"type":"VEC4"
		},
		{
			"bufferView":12,
			"componentType":5123,
			"count":254,
			"normalized":true,
			"type":"VEC4"
		},
		{
			"bufferView":13,
			"componentType":5123,
			"count":438,
			"type":"SCALAR"
		},
		{
			"bufferView":14,
			"componentType":5126,
			"count":8,
			"max":[
				0.21986213326454163,
				1.8511582612991333,
				-0.08227889984846115
			],
			"min":[
				-0.21987539529800415,
				0.6097697615623474,
				-0.08227889984846115
			],
			"type":"VEC3"
		},
		{
			"bufferView":15,
			"componentType":5126,
			"count":8,
			"type":"VEC3"
		},
		{
			"bufferView":16,
			"componentType":5126,
			"count":8,
			"type":"VEC2"
		},
		{
			"bufferView":17,
			"componentType":5126,
			"count":8,
			"type":"VEC2"
		},
		{
			"bufferView":18,
			"componentType":5121,
			"count":8,
			"normalized":true,
			"type":"VEC4"
		},
		{
			"bufferView":19,
			"componentType":5123,
			"count":8,
			"normalized":true,
			"type":"VEC4"
		},
		{
			"bufferView":20,
			"componentType":5123,
			"count":12,
			"type":"SCALAR"
		},
		{
			"bufferView":21,
			"componentType":5126,
			"count":4,
			"max":[
				0.9625167846679688,
				2.8027091026306152,
				-0.09741268306970596
			],
			"min":[
				-0.9625167846679688,
				0.02259528636932373,
				-0.09741268306970596
			],
			"type":"VEC3"
		},
		{
			"bufferView":22,
			"componentType":5126,
			"count":4,
			"type":"VEC3"
		},
		{
			"bufferView":23,
			"componentType":5126,
			"count":4,
			"type":"VEC2"
		},
		{
			"bufferView":24,
			"componentType":5126,
			"count":4,
			"type":"VEC2"
		},
		{
			"bufferView":25,
			"componentType":5121,
			"count":4,
			"normalized":true,
			"type":"VEC4"
		},
		{
			"bufferView":26,
			"componentType":5123,
			"count":4,
			"normalized":true,
			"type":"VEC4"
		},
		{
			"bufferView":27,
			"componentType":5123,
			"count":6,
			"type":"SCALAR"
		},
		{
			"bufferView":28,
			"componentType":5126,
			"count":20,
			"max":[
				1,
				3.000000476837158,
				-0.2000000774860382
			],
			"min":[
				-1,
				0,
				-0.2000000923871994
			],
			"type":"VEC3"
		},
		{
			"bufferView":29,
			"componentType":5126,
			"count":20,
			"type":"VEC3"
		},
		{
			"bufferView":30,
			"componentType":5126,
			"count":20,
			"type":"VEC2"
		},
		{
			"bufferView":31,
			"componentType":5126,
			"count":20,
			"type":"VEC2"
		},
		{
			"bufferView":32,
			"componentType":5121,
			"count":20,
			"normalized":true,
			"type":"VEC4"
		},
		{
			"bufferView":33,
			"componentType":5123,
			"count":20,
			"normalized":true,
			"type":"VEC4"
		},
		{
			"bufferView":34,
			"componentType":5123,
			"count":48,
			"type":"SCALAR"
		}
	],
	"bufferViews":[
		{
			"buffer":0,
			"byteLength":288,
			"byteOffset":0,
			"target":34962
		},
		{
			"buffer":0,
			"byteLength":288,
			"byteOffset":288,
			"target":34962
		},
		{
			"buffer":0,
			"byteLength":192,
			"byteOffset":576,
			"target":34962
		},
		{
			"buffer":0,
			"byteLength":192,
			"byteOffset":768,
			"target":34962
		},
		{
			"buffer":0,
			"byteLength":96,
			"byteOffset":960,
			"target":34962
		},
		{
			"buffer":0,
			"byteLength":192,
			"byteOffset":1056,
			"target":34962
		},
		{
			"buffer":0,
			"byteLength":132,
			"byteOffset":1248,
			"target":34963
		},
		{
			"buffer":0,
			"byteLength":3048,
			"byteOffset":1380,
			"target":34962
		},
		{
			"buffer":0,
			"byteLength":3048,
			"byteOffset":4428,
			"target":34962
		},
		{
			"buffer":0,
			"byteLength":2032,
			"byteOffset":7476,
			"target":34962
		},
		{
			"buffer":0,
			"byteLength":2032,
			"byteOffset":9508,
			"target":34962
		},
		{
			"buffer":0,
			"byteLength":1016,
			"byteOffset":11540,
			"target":34962
		},
		{
			"buffer":0,
			"byteLength":2032,
			"byteOffset":12556,
			"target":34962
		},
		{
			"buffer":0,
			"byteLength":876,
			"byteOffset":14588,
			"target":34963
		},
		{
			"buffer":0,
			"byteLength":96,
			"byteOffset":15464,
			"target":34962
		},
		{
			"buffer":0,
			"byteLength":96,
			"byteOffset":15560,
			"target":34962
		},
		{
			"buffer":0,
			"byteLength":64,
			"byteOffset":15656,
			"target":34962
		},
		{
			"buffer":0,
			"byteLength":64,
			"byteOffset":15720,
			"target":34962
		},
		{
			"buffer":0,
			"byteLength":32,
			"byteOffset":15784,
			"target":34962
		},
		{
			"buffer":0,
			"byteLength":64,
			"byteOffset":15816,
			"target":34962
		},
		{
			"buffer":0,
			"byteLength":24,
			"byteOffset":15880,
			"target":34963
		},
		{
			"buffer":0,
			"byteLength":48,
			"byteOffset":15904,
			"target":34962
		},
		{
			"buffer":0,
			"byteLength":48,
			"byteOffset":15952,
			"target":34962
		},
		{
			"buffer":0,
			"byteLength":32,
			"byteOffset":16000,
			"target":34962
		},
		{
			"buffer":0,
			"byteLength":32,
			"byteOffset":16032,
			"target":34962
		},
		{
			"buffer":0,
			"byteLength":16,
			"byteOffset":16064,
			"target":34962
		},
		{
			"buffer":0,
			"byteLength":32,
			"byteOffset":16080,
			"target":34962
		},
		{
			"buffer":0,
			"byteLength":12,
			"byteOffset":16112,
			"target":34963
		},
		{
			"buffer":0,
			"byteLength":240,
			"byteOffset":16124,
			"target":34962
		},
		{
			"buffer":0,
			"byteLength":240,
			"byteOffset":16364,
			"target":34962
		},
		{
			"buffer":0,
			"byteLength":160,
			"byteOffset":16604,
			"target":34962
		},
		{
			"buffer":0,
			"byteLength":160,
			"byteOffset":16764,
			"target":34962
		},
		{
			"buffer":0,
			"byteLength":80,
			"byteOffset":16924,
			"target":34962
		},
		{
			"buffer":0,
			"byteLength":160,
			"byteOffset":17004,
			"target":34962
		},
		{
			"buffer":0,
			"byteLength":96,
			"byteOffset":17164,
			"target":34963
		}
	],
	"samplers":[
		{
			"magFilter":9729,
			"minFilter":9987
		}
	],
	"buffers":[
		{
			"byteLength":17260,
			"uri":"Brick_Window_Square_Single.bin"
		}
	]
}
