{
	"asset":{
		"generator":"Khronos glTF Blender I/O v4.3.47",
		"version":"2.0"
	},
	"scene":0,
	"scenes":[
		{
			"name":"Scene",
			"nodes":[
				0
			]
		}
	],
	"nodes":[
		{
			"mesh":0,
			"name":"Brick_Inset_Window_Curved_Small"
		}
	],
	"materials":[
		{
			"doubleSided":true,
			"name":"MI_RedBrick_Pale",
			"normalTexture":{
				"index":0
			},
			"pbrMetallicRoughness":{
				"baseColorTexture":{
					"index":1
				},
				"metallicRoughnessTexture":{
					"index":2
				}
			}
		},
		{
			"doubleSided":true,
			"name":"MI_Trim",
			"normalTexture":{
				"index":3
			},
			"pbrMetallicRoughness":{
				"baseColorTexture":{
					"index":4
				},
				"metallicRoughnessTexture":{
					"index":5
				}
			}
		},
		{
			"alphaMode":"BLEND",
			"doubleSided":true,
			"name":"MI_Glass",
			"pbrMetallicRoughness":{
				"baseColorFactor":[
					0.05215025693178177,
					0.05215025693178177,
					0.05215025693178177,
					0.586363673210144
				],
				"metallicFactor":0,
				"roughnessFactor":0.5
			}
		},
		{
			"doubleSided":true,
			"name":"MI_InteriorWall",
			"normalTexture":{
				"index":6
			},
			"pbrMetallicRoughness":{
				"baseColorTexture":{
					"index":7
				},
				"metallicRoughnessTexture":{
					"index":8
				}
			}
		},
		{
			"doubleSided":true,
			"name":"MI_FakeInterior",
			"pbrMetallicRoughness":{
				"baseColorFactor":[
					0.800000011920929,
					0.800000011920929,
					0.800000011920929,
					1
				],
				"metallicFactor":0,
				"roughnessFactor":0.5
			}
		}
	],
	"meshes":[
		{
			"name":"Cube.205",
			"primitives":[
				{
					"attributes":{
						"POSITION":0,
						"NORMAL":1,
						"TEXCOORD_0":2,
						"TEXCOORD_1":3,
						"COLOR_0":4,
						"COLOR_1":5
					},
					"indices":6,
					"material":0
				},
				{
					"attributes":{
						"POSITION":7,
						"NORMAL":8,
						"TEXCOORD_0":9,
						"TEXCOORD_1":10,
						"COLOR_0":11,
						"COLOR_1":12
					},
					"indices":13,
					"material":1
				},
				{
					"attributes":{
						"POSITION":14,
						"NORMAL":15,
						"TEXCOORD_0":16,
						"TEXCOORD_1":17,
						"COLOR_0":18,
						"COLOR_1":19
					},
					"indices":20,
					"material":2
				},
				{
					"attributes":{
						"POSITION":21,
						"NORMAL":22,
						"TEXCOORD_0":23,
						"TEXCOORD_1":24,
						"COLOR_0":25,
						"COLOR_1":26
					},
					"indices":27,
					"material":3
				},
				{
					"attributes":{
						"POSITION":28,
						"NORMAL":29,
						"TEXCOORD_0":30,
						"TEXCOORD_1":31,
						"COLOR_0":32,
						"COLOR_1":33
					},
					"indices":34,
					"material":4
				}
			]
		}
	],
	"textures":[
		{
			"sampler":0,
			"source":0
		},
		{
			"sampler":0,
			"source":1
		},
		{
			"sampler":0,
			"source":2
		},
		{
			"sampler":0,
			"source":3
		},
		{
			"sampler":0,
			"source":4
		},
		{
			"sampler":0,
			"source":5
		},
		{
			"sampler":0,
			"source":0
		},
		{
			"sampler":0,
			"source":1
		},
		{
			"sampler":0,
			"source":2
		}
	],
	"images":[
		{
			"mimeType":"image/png",
			"name":"T_RedBrick_Normal",
			"uri":"T_RedBrick_Normal.png"
		},
		{
			"mimeType":"image/png",
			"name":"T_RedBrick_BaseColor",
			"uri":"T_RedBrick_BaseColor.png"
		},
		{
			"mimeType":"image/png",
			"name":"T_RedBrick_ORM",
			"uri":"T_RedBrick_ORM.png"
		},
		{
			"mimeType":"image/png",
			"name":"T_Trim_Normal",
			"uri":"T_Trim_Normal.png"
		},
		{
			"mimeType":"image/png",
			"name":"T_Trim_BaseColor",
			"uri":"T_Trim_BaseColor.png"
		},
		{
			"mimeType":"image/png",
			"name":"T_Trim_ORM",
			"uri":"T_Trim_ORM.png"
		}
	],
	"accessors":[
		{
			"bufferView":0,
			"componentType":5126,
			"count":68,
			"max":[
				2,
				2.6658434867858887,
				1.1652771547687735e-07
			],
			"min":[
				-2,
				0,
				-0.10000000149011612
			],
			"type":"VEC3"
		},
		{
			"bufferView":1,
			"componentType":5126,
			"count":68,
			"type":"VEC3"
		},
		{
			"bufferView":2,
			"componentType":5126,
			"count":68,
			"type":"VEC2"
		},
		{
			"bufferView":3,
			"componentType":5126,
			"count":68,
			"type":"VEC2"
		},
		{
			"bufferView":4,
			"componentType":5121,
			"count":68,
			"normalized":true,
			"type":"VEC4"
		},
		{
			"bufferView":5,
			"componentType":5123,
			"count":68,
			"normalized":true,
			"type":"VEC4"
		},
		{
			"bufferView":6,
			"componentType":5123,
			"count":132,
			"type":"SCALAR"
		},
		{
			"bufferView":7,
			"componentType":5126,
			"count":647,
			"max":[
				2,
				3,
				0.09856842458248138
			],
			"min":[
				-2,
				0.567543089389801,
				-0.24406950175762177
			],
			"type":"VEC3"
		},
		{
			"bufferView":8,
			"componentType":5126,
			"count":647,
			"type":"VEC3"
		},
		{
			"bufferView":9,
			"componentType":5126,
			"count":647,
			"type":"VEC2"
		},
		{
			"bufferView":10,
			"componentType":5126,
			"count":647,
			"type":"VEC2"
		},
		{
			"bufferView":11,
			"componentType":5121,
			"count":647,
			"normalized":true,
			"type":"VEC4"
		},
		{
			"bufferView":12,
			"componentType":5123,
			"count":647,
			"normalized":true,
			"type":"VEC4"
		},
		{
			"bufferView":13,
			"componentType":5123,
			"count":1434,
			"type":"SCALAR"
		},
		{
			"bufferView":14,
			"componentType":5126,
			"count":32,
			"max":[
				0.37680667638778687,
				1.8261065483093262,
				-0.11225287616252899
			],
			"min":[
				-0.37680667638778687,
				0.678891658782959,
				-0.11225287616252899
			],
			"type":"VEC3"
		},
		{
			"bufferView":15,
			"componentType":5126,
			"count":32,
			"type":"VEC3"
		},
		{
			"bufferView":16,
			"componentType":5126,
			"count":32,
			"type":"VEC2"
		},
		{
			"bufferView":17,
			"componentType":5126,
			"count":32,
			"type":"VEC2"
		},
		{
			"bufferView":18,
			"componentType":5121,
			"count":32,
			"normalized":true,
			"type":"VEC4"
		},
		{
			"bufferView":19,
			"componentType":5123,
			"count":32,
			"normalized":true,
			"type":"VEC4"
		},
		{
			"bufferView":20,
			"componentType":5123,
			"count":72,
			"type":"SCALAR"
		},
		{
			"bufferView":21,
			"componentType":5126,
			"count":28,
			"max":[
				2,
				3.000000476837158,
				-0.2000000923871994
			],
			"min":[
				-2,
				0,
				-0.2000000923871994
			],
			"type":"VEC3"
		},
		{
			"bufferView":22,
			"componentType":5126,
			"count":28,
			"type":"VEC3"
		},
		{
			"bufferView":23,
			"componentType":5126,
			"count":28,
			"type":"VEC2"
		},
		{
			"bufferView":24,
			"componentType":5126,
			"count":28,
			"type":"VEC2"
		},
		{
			"bufferView":25,
			"componentType":5121,
			"count":28,
			"normalized":true,
			"type":"VEC4"
		},
		{
			"bufferView":26,
			"componentType":5123,
			"count":28,
			"normalized":true,
			"type":"VEC4"
		},
		{
			"bufferView":27,
			"componentType":5123,
			"count":60,
			"type":"SCALAR"
		},
		{
			"bufferView":28,
			"componentType":5126,
			"count":4,
			"max":[
				0.9625167846679688,
				2.8027091026306152,
				-0.19275686144828796
			],
			"min":[
				-0.9625167846679688,
				0.02259528636932373,
				-0.19275686144828796
			],
			"type":"VEC3"
		},
		{
			"bufferView":29,
			"componentType":5126,
			"count":4,
			"type":"VEC3"
		},
		{
			"bufferView":30,
			"componentType":5126,
			"count":4,
			"type":"VEC2"
		},
		{
			"bufferView":31,
			"componentType":5126,
			"count":4,
			"type":"VEC2"
		},
		{
			"bufferView":32,
			"componentType":5121,
			"count":4,
			"normalized":true,
			"type":"VEC4"
		},
		{
			"bufferView":33,
			"componentType":5123,
			"count":4,
			"normalized":true,
			"type":"VEC4"
		},
		{
			"bufferView":34,
			"componentType":5123,
			"count":6,
			"type":"SCALAR"
		}
	],
	"bufferViews":[
		{
			"buffer":0,
			"byteLength":816,
			"byteOffset":0,
			"target":34962
		},
		{
			"buffer":0,
			"byteLength":816,
			"byteOffset":816,
			"target":34962
		},
		{
			"buffer":0,
			"byteLength":544,
			"byteOffset":1632,
			"target":34962
		},
		{
			"buffer":0,
			"byteLength":544,
			"byteOffset":2176,
			"target":34962
		},
		{
			"buffer":0,
			"byteLength":272,
			"byteOffset":2720,
			"target":34962
		},
		{
			"buffer":0,
			"byteLength":544,
			"byteOffset":2992,
			"target":34962
		},
		{
			"buffer":0,
			"byteLength":264,
			"byteOffset":3536,
			"target":34963
		},
		{
			"buffer":0,
			"byteLength":7764,
			"byteOffset":3800,
			"target":34962
		},
		{
			"buffer":0,
			"byteLength":7764,
			"byteOffset":11564,
			"target":34962
		},
		{
			"buffer":0,
			"byteLength":5176,
			"byteOffset":19328,
			"target":34962
		},
		{
			"buffer":0,
			"byteLength":5176,
			"byteOffset":24504,
			"target":34962
		},
		{
			"buffer":0,
			"byteLength":2588,
			"byteOffset":29680,
			"target":34962
		},
		{
			"buffer":0,
			"byteLength":5176,
			"byteOffset":32268,
			"target":34962
		},
		{
			"buffer":0,
			"byteLength":2868,
			"byteOffset":37444,
			"target":34963
		},
		{
			"buffer":0,
			"byteLength":384,
			"byteOffset":40312,
			"target":34962
		},
		{
			"buffer":0,
			"byteLength":384,
			"byteOffset":40696,
			"target":34962
		},
		{
			"buffer":0,
			"byteLength":256,
			"byteOffset":41080,
			"target":34962
		},
		{
			"buffer":0,
			"byteLength":256,
			"byteOffset":41336,
			"target":34962
		},
		{
			"buffer":0,
			"byteLength":128,
			"byteOffset":41592,
			"target":34962
		},
		{
			"buffer":0,
			"byteLength":256,
			"byteOffset":41720,
			"target":34962
		},
		{
			"buffer":0,
			"byteLength":144,
			"byteOffset":41976,
			"target":34963
		},
		{
			"buffer":0,
			"byteLength":336,
			"byteOffset":42120,
			"target":34962
		},
		{
			"buffer":0,
			"byteLength":336,
			"byteOffset":42456,
			"target":34962
		},
		{
			"buffer":0,
			"byteLength":224,
			"byteOffset":42792,
			"target":34962
		},
		{
			"buffer":0,
			"byteLength":224,
			"byteOffset":43016,
			"target":34962
		},
		{
			"buffer":0,
			"byteLength":112,
			"byteOffset":43240,
			"target":34962
		},
		{
			"buffer":0,
			"byteLength":224,
			"byteOffset":43352,
			"target":34962
		},
		{
			"buffer":0,
			"byteLength":120,
			"byteOffset":43576,
			"target":34963
		},
		{
			"buffer":0,
			"byteLength":48,
			"byteOffset":43696,
			"target":34962
		},
		{
			"buffer":0,
			"byteLength":48,
			"byteOffset":43744,
			"target":34962
		},
		{
			"buffer":0,
			"byteLength":32,
			"byteOffset":43792,
			"target":34962
		},
		{
			"buffer":0,
			"byteLength":32,
			"byteOffset":43824,
			"target":34962
		},
		{
			"buffer":0,
			"byteLength":16,
			"byteOffset":43856,
			"target":34962
		},
		{
			"buffer":0,
			"byteLength":32,
			"byteOffset":43872,
			"target":34962
		},
		{
			"buffer":0,
			"byteLength":12,
			"byteOffset":43904,
			"target":34963
		}
	],
	"samplers":[
		{
			"magFilter":9729,
			"minFilter":9987
		}
	],
	"buffers":[
		{
			"byteLength":43916,
			"uri":"Brick_Inset_Window_Curved_Small.bin"
		}
	]
}
