{
	"asset":{
		"generator":"Khronos glTF Blender I/O v4.3.47",
		"version":"2.0"
	},
	"scene":0,
	"scenes":[
		{
			"name":"Scene",
			"nodes":[
				0
			]
		}
	],
	"nodes":[
		{
			"mesh":0,
			"name":"Brick_Window_CurvedDouble"
		}
	],
	"materials":[
		{
			"doubleSided":true,
			"name":"MI_RedBrick_Pale",
			"normalTexture":{
				"index":0
			},
			"pbrMetallicRoughness":{
				"baseColorTexture":{
					"index":1
				},
				"metallicRoughnessTexture":{
					"index":2
				}
			}
		},
		{
			"doubleSided":true,
			"name":"MI_InteriorWall",
			"normalTexture":{
				"index":3
			},
			"pbrMetallicRoughness":{
				"baseColorTexture":{
					"index":4
				},
				"metallicRoughnessTexture":{
					"index":5
				}
			}
		},
		{
			"doubleSided":true,
			"name":"MI_Trim_MetalConcrete",
			"normalTexture":{
				"index":6
			},
			"pbrMetallicRoughness":{
				"baseColorTexture":{
					"index":7
				},
				"metallicRoughnessTexture":{
					"index":8
				}
			}
		},
		{
			"alphaMode":"BLEND",
			"doubleSided":true,
			"name":"MI_Glass",
			"pbrMetallicRoughness":{
				"baseColorFactor":[
					0.05215025693178177,
					0.05215025693178177,
					0.05215025693178177,
					0.586363673210144
				],
				"metallicFactor":0,
				"roughnessFactor":0.5
			}
		},
		{
			"doubleSided":true,
			"name":"MI_FakeInterior",
			"pbrMetallicRoughness":{
				"baseColorFactor":[
					0.800000011920929,
					0.800000011920929,
					0.800000011920929,
					1
				],
				"metallicFactor":0,
				"roughnessFactor":0.5
			}
		}
	],
	"meshes":[
		{
			"name":"Cube.240",
			"primitives":[
				{
					"attributes":{
						"POSITION":0,
						"NORMAL":1,
						"TEXCOORD_0":2,
						"TEXCOORD_1":3,
						"COLOR_0":4
					},
					"indices":5,
					"material":0
				},
				{
					"attributes":{
						"POSITION":6,
						"NORMAL":7,
						"TEXCOORD_0":8,
						"TEXCOORD_1":9,
						"COLOR_0":10
					},
					"indices":11,
					"material":1
				},
				{
					"attributes":{
						"POSITION":12,
						"NORMAL":13,
						"TEXCOORD_0":14,
						"TEXCOORD_1":15,
						"COLOR_0":16
					},
					"indices":17,
					"material":2
				},
				{
					"attributes":{
						"POSITION":18,
						"NORMAL":19,
						"TEXCOORD_0":20,
						"TEXCOORD_1":21,
						"COLOR_0":22
					},
					"indices":23,
					"material":3
				},
				{
					"attributes":{
						"POSITION":24,
						"NORMAL":25,
						"TEXCOORD_0":26,
						"TEXCOORD_1":27,
						"COLOR_0":28
					},
					"indices":29,
					"material":4
				}
			]
		}
	],
	"textures":[
		{
			"sampler":0,
			"source":0
		},
		{
			"sampler":0,
			"source":1
		},
		{
			"sampler":0,
			"source":2
		},
		{
			"sampler":0,
			"source":0
		},
		{
			"sampler":0,
			"source":1
		},
		{
			"sampler":0,
			"source":2
		},
		{
			"sampler":0,
			"source":3
		},
		{
			"sampler":0,
			"source":4
		},
		{
			"sampler":0,
			"source":5
		}
	],
	"images":[
		{
			"mimeType":"image/png",
			"name":"T_RedBrick_Normal",
			"uri":"T_RedBrick_Normal.png"
		},
		{
			"mimeType":"image/png",
			"name":"T_RedBrick_BaseColor",
			"uri":"T_RedBrick_BaseColor.png"
		},
		{
			"mimeType":"image/png",
			"name":"T_RedBrick_ORM",
			"uri":"T_RedBrick_ORM.png"
		},
		{
			"mimeType":"image/png",
			"name":"T_MetalConcrete_Normal",
			"uri":"T_MetalConcrete_Normal.png"
		},
		{
			"mimeType":"image/png",
			"name":"T_MetalConcrete_BaseColor",
			"uri":"T_MetalConcrete_BaseColor.png"
		},
		{
			"mimeType":"image/png",
			"name":"T_MetalConcrete_ORM",
			"uri":"T_MetalConcrete_ORM.png"
		}
	],
	"accessors":[
		{
			"bufferView":0,
			"componentType":5126,
			"count":126,
			"max":[
				2,
				3,
				1.3113415775478643e-07
			],
			"min":[
				-2,
				0,
				-0.16487307846546173
			],
			"type":"VEC3"
		},
		{
			"bufferView":1,
			"componentType":5126,
			"count":126,
			"type":"VEC3"
		},
		{
			"bufferView":2,
			"componentType":5126,
			"count":126,
			"type":"VEC2"
		},
		{
			"bufferView":3,
			"componentType":5126,
			"count":126,
			"type":"VEC2"
		},
		{
			"bufferView":4,
			"componentType":5123,
			"count":126,
			"normalized":true,
			"type":"VEC4"
		},
		{
			"bufferView":5,
			"componentType":5123,
			"count":288,
			"type":"SCALAR"
		},
		{
			"bufferView":6,
			"componentType":5126,
			"count":28,
			"max":[
				2,
				3.000000476837158,
				-0.2000000774860382
			],
			"min":[
				-2,
				0,
				-0.2000000923871994
			],
			"type":"VEC3"
		},
		{
			"bufferView":7,
			"componentType":5126,
			"count":28,
			"type":"VEC3"
		},
		{
			"bufferView":8,
			"componentType":5126,
			"count":28,
			"type":"VEC2"
		},
		{
			"bufferView":9,
			"componentType":5126,
			"count":28,
			"type":"VEC2"
		},
		{
			"bufferView":10,
			"componentType":5123,
			"count":28,
			"normalized":true,
			"type":"VEC4"
		},
		{
			"bufferView":11,
			"componentType":5123,
			"count":60,
			"type":"SCALAR"
		},
		{
			"bufferView":12,
			"componentType":5126,
			"count":1413,
			"max":[
				1.2296206951141357,
				2.548305034637451,
				-0.12514078617095947
			],
			"min":[
				-1.2265024185180664,
				0.48326918482780457,
				-0.26050737500190735
			],
			"type":"VEC3"
		},
		{
			"bufferView":13,
			"componentType":5126,
			"count":1413,
			"type":"VEC3"
		},
		{
			"bufferView":14,
			"componentType":5126,
			"count":1413,
			"type":"VEC2"
		},
		{
			"bufferView":15,
			"componentType":5126,
			"count":1413,
			"type":"VEC2"
		},
		{
			"bufferView":16,
			"componentType":5123,
			"count":1413,
			"normalized":true,
			"type":"VEC4"
		},
		{
			"bufferView":17,
			"componentType":5123,
			"count":2985,
			"type":"SCALAR"
		},
		{
			"bufferView":18,
			"componentType":5126,
			"count":48,
			"max":[
				1.1542718410491943,
				2.152480125427246,
				-0.19170989096164703
			],
			"min":[
				-1.1542716026306152,
				0.5631401538848877,
				-0.19171002507209778
			],
			"type":"VEC3"
		},
		{
			"bufferView":19,
			"componentType":5126,
			"count":48,
			"type":"VEC3"
		},
		{
			"bufferView":20,
			"componentType":5126,
			"count":48,
			"type":"VEC2"
		},
		{
			"bufferView":21,
			"componentType":5126,
			"count":48,
			"type":"VEC2"
		},
		{
			"bufferView":22,
			"componentType":5123,
			"count":48,
			"normalized":true,
			"type":"VEC4"
		},
		{
			"bufferView":23,
			"componentType":5123,
			"count":72,
			"type":"SCALAR"
		},
		{
			"bufferView":24,
			"componentType":5126,
			"count":4,
			"max":[
				1.4260249137878418,
				2.8756752014160156,
				-0.1970006227493286
			],
			"min":[
				-1.4260249137878418,
				0.09556138515472412,
				-0.1970006227493286
			],
			"type":"VEC3"
		},
		{
			"bufferView":25,
			"componentType":5126,
			"count":4,
			"type":"VEC3"
		},
		{
			"bufferView":26,
			"componentType":5126,
			"count":4,
			"type":"VEC2"
		},
		{
			"bufferView":27,
			"componentType":5126,
			"count":4,
			"type":"VEC2"
		},
		{
			"bufferView":28,
			"componentType":5123,
			"count":4,
			"normalized":true,
			"type":"VEC4"
		},
		{
			"bufferView":29,
			"componentType":5123,
			"count":6,
			"type":"SCALAR"
		}
	],
	"bufferViews":[
		{
			"buffer":0,
			"byteLength":1512,
			"byteOffset":0,
			"target":34962
		},
		{
			"buffer":0,
			"byteLength":1512,
			"byteOffset":1512,
			"target":34962
		},
		{
			"buffer":0,
			"byteLength":1008,
			"byteOffset":3024,
			"target":34962
		},
		{
			"buffer":0,
			"byteLength":1008,
			"byteOffset":4032,
			"target":34962
		},
		{
			"buffer":0,
			"byteLength":1008,
			"byteOffset":5040,
			"target":34962
		},
		{
			"buffer":0,
			"byteLength":576,
			"byteOffset":6048,
			"target":34963
		},
		{
			"buffer":0,
			"byteLength":336,
			"byteOffset":6624,
			"target":34962
		},
		{
			"buffer":0,
			"byteLength":336,
			"byteOffset":6960,
			"target":34962
		},
		{
			"buffer":0,
			"byteLength":224,
			"byteOffset":7296,
			"target":34962
		},
		{
			"buffer":0,
			"byteLength":224,
			"byteOffset":7520,
			"target":34962
		},
		{
			"buffer":0,
			"byteLength":224,
			"byteOffset":7744,
			"target":34962
		},
		{
			"buffer":0,
			"byteLength":120,
			"byteOffset":7968,
			"target":34963
		},
		{
			"buffer":0,
			"byteLength":16956,
			"byteOffset":8088,
			"target":34962
		},
		{
			"buffer":0,
			"byteLength":16956,
			"byteOffset":25044,
			"target":34962
		},
		{
			"buffer":0,
			"byteLength":11304,
			"byteOffset":42000,
			"target":34962
		},
		{
			"buffer":0,
			"byteLength":11304,
			"byteOffset":53304,
			"target":34962
		},
		{
			"buffer":0,
			"byteLength":11304,
			"byteOffset":64608,
			"target":34962
		},
		{
			"buffer":0,
			"byteLength":5970,
			"byteOffset":75912,
			"target":34963
		},
		{
			"buffer":0,
			"byteLength":576,
			"byteOffset":81884,
			"target":34962
		},
		{
			"buffer":0,
			"byteLength":576,
			"byteOffset":82460,
			"target":34962
		},
		{
			"buffer":0,
			"byteLength":384,
			"byteOffset":83036,
			"target":34962
		},
		{
			"buffer":0,
			"byteLength":384,
			"byteOffset":83420,
			"target":34962
		},
		{
			"buffer":0,
			"byteLength":384,
			"byteOffset":83804,
			"target":34962
		},
		{
			"buffer":0,
			"byteLength":144,
			"byteOffset":84188,
			"target":34963
		},
		{
			"buffer":0,
			"byteLength":48,
			"byteOffset":84332,
			"target":34962
		},
		{
			"buffer":0,
			"byteLength":48,
			"byteOffset":84380,
			"target":34962
		},
		{
			"buffer":0,
			"byteLength":32,
			"byteOffset":84428,
			"target":34962
		},
		{
			"buffer":0,
			"byteLength":32,
			"byteOffset":84460,
			"target":34962
		},
		{
			"buffer":0,
			"byteLength":32,
			"byteOffset":84492,
			"target":34962
		},
		{
			"buffer":0,
			"byteLength":12,
			"byteOffset":84524,
			"target":34963
		}
	],
	"samplers":[
		{
			"magFilter":9729,
			"minFilter":9987
		}
	],
	"buffers":[
		{
			"byteLength":84536,
			"uri":"Brick_Window_CurvedDouble.bin"
		}
	]
}
