{
	"asset":{
		"generator":"Khronos glTF Blender I/O v4.3.47",
		"version":"2.0"
	},
	"scene":0,
	"scenes":[
		{
			"name":"Scene",
			"nodes":[
				0
			]
		}
	],
	"nodes":[
		{
			"mesh":0,
			"name":"Brick_Ornament_Horizontal"
		}
	],
	"materials":[
		{
			"doubleSided":true,
			"name":"MI_RedBrick",
			"normalTexture":{
				"index":0
			},
			"pbrMetallicRoughness":{
				"baseColorTexture":{
					"index":1
				},
				"metallicRoughnessTexture":{
					"index":2
				}
			}
		}
	],
	"meshes":[
		{
			"name":"Cube.032",
			"primitives":[
				{
					"attributes":{
						"POSITION":0,
						"NORMAL":1,
						"TEXCOORD_0":2,
						"TEXCOORD_1":3
					},
					"indices":4,
					"material":0
				}
			]
		}
	],
	"textures":[
		{
			"sampler":0,
			"source":0
		},
		{
			"sampler":0,
			"source":1
		},
		{
			"sampler":0,
			"source":2
		}
	],
	"images":[
		{
			"mimeType":"image/png",
			"name":"T_RedBrick_Normal",
			"uri":"T_RedBrick_Normal.png"
		},
		{
			"mimeType":"image/png",
			"name":"T_RedBrick_BaseColor",
			"uri":"T_RedBrick_BaseColor.png"
		},
		{
			"mimeType":"image/png",
			"name":"T_RedBrick_ORM",
			"uri":"T_RedBrick_ORM.png"
		}
	],
	"accessors":[
		{
			"bufferView":0,
			"componentType":5126,
			"count":576,
			"max":[
				1,
				0.14586517214775085,
				0.05255234241485596
			],
			"min":[
				-1,
				-0.16814112663269043,
				0.0011495667276903987
			],
			"type":"VEC3"
		},
		{
			"bufferView":1,
			"componentType":5126,
			"count":576,
			"type":"VEC3"
		},
		{
			"bufferView":2,
			"componentType":5126,
			"count":576,
			"type":"VEC2"
		},
		{
			"bufferView":3,
			"componentType":5126,
			"count":576,
			"type":"VEC2"
		},
		{
			"bufferView":4,
			"componentType":5123,
			"count":936,
			"type":"SCALAR"
		}
	],
	"bufferViews":[
		{
			"buffer":0,
			"byteLength":6912,
			"byteOffset":0,
			"target":34962
		},
		{
			"buffer":0,
			"byteLength":6912,
			"byteOffset":6912,
			"target":34962
		},
		{
			"buffer":0,
			"byteLength":4608,
			"byteOffset":13824,
			"target":34962
		},
		{
			"buffer":0,
			"byteLength":4608,
			"byteOffset":18432,
			"target":34962
		},
		{
			"buffer":0,
			"byteLength":1872,
			"byteOffset":23040,
			"target":34963
		}
	],
	"samplers":[
		{
			"magFilter":9729,
			"minFilter":9987
		}
	],
	"buffers":[
		{
			"byteLength":24912,
			"uri":"Brick_Ornament_Horizontal.bin"
		}
	]
}
