{
	"asset":{
		"generator":"Khronos glTF Blender I/O v4.3.47",
		"version":"2.0"
	},
	"scene":0,
	"scenes":[
		{
			"name":"Scene",
			"nodes":[
				0
			]
		}
	],
	"nodes":[
		{
			"mesh":0,
			"name":"Door_3"
		}
	],
	"materials":[
		{
			"doubleSided":true,
			"name":"MI_Trim_MetalConcrete",
			"normalTexture":{
				"index":0
			},
			"pbrMetallicRoughness":{
				"baseColorTexture":{
					"index":1
				},
				"metallicRoughnessTexture":{
					"index":2
				}
			}
		},
		{
			"alphaMode":"BLEND",
			"doubleSided":true,
			"name":"MI_Glass",
			"pbrMetallicRoughness":{
				"baseColorFactor":[
					0.05215025693178177,
					0.05215025693178177,
					0.05215025693178177,
					0.586363673210144
				],
				"metallicFactor":0,
				"roughnessFactor":0.5
			}
		}
	],
	"meshes":[
		{
			"name":"Cube.206",
			"primitives":[
				{
					"attributes":{
						"POSITION":0,
						"NORMAL":1,
						"TEXCOORD_0":2,
						"TEXCOORD_1":3,
						"COLOR_0":4,
						"COLOR_1":5
					},
					"indices":6,
					"material":0
				},
				{
					"attributes":{
						"POSITION":7,
						"NORMAL":8,
						"TEXCOORD_0":9,
						"TEXCOORD_1":10,
						"COLOR_0":11,
						"COLOR_1":12
					},
					"indices":13,
					"material":1
				}
			]
		}
	],
	"textures":[
		{
			"sampler":0,
			"source":0
		},
		{
			"sampler":0,
			"source":1
		},
		{
			"sampler":0,
			"source":2
		}
	],
	"images":[
		{
			"mimeType":"image/png",
			"name":"T_MetalConcrete_Normal",
			"uri":"T_MetalConcrete_Normal.png"
		},
		{
			"mimeType":"image/png",
			"name":"T_MetalConcrete_BaseColor",
			"uri":"T_MetalConcrete_BaseColor.png"
		},
		{
			"mimeType":"image/png",
			"name":"T_MetalConcrete_ORM",
			"uri":"T_MetalConcrete_ORM.png"
		}
	],
	"accessors":[
		{
			"bufferView":0,
			"componentType":5126,
			"count":404,
			"max":[
				1.3510561558405243e-08,
				2.200000047683716,
				0.09371605515480042
			],
			"min":[
				-0.9999997615814209,
				0,
				-0.0946236252784729
			],
			"type":"VEC3"
		},
		{
			"bufferView":1,
			"componentType":5126,
			"count":404,
			"type":"VEC3"
		},
		{
			"bufferView":2,
			"componentType":5126,
			"count":404,
			"type":"VEC2"
		},
		{
			"bufferView":3,
			"componentType":5126,
			"count":404,
			"type":"VEC2"
		},
		{
			"bufferView":4,
			"componentType":5121,
			"count":404,
			"normalized":true,
			"type":"VEC4"
		},
		{
			"bufferView":5,
			"componentType":5123,
			"count":404,
			"normalized":true,
			"type":"VEC4"
		},
		{
			"bufferView":6,
			"componentType":5123,
			"count":828,
			"type":"SCALAR"
		},
		{
			"bufferView":7,
			"componentType":5126,
			"count":4,
			"max":[
				-0.09814181923866272,
				2.0960593223571777,
				0.00324338860809803
			],
			"min":[
				-0.9018582105636597,
				0.1762353926897049,
				0.003243265673518181
			],
			"type":"VEC3"
		},
		{
			"bufferView":8,
			"componentType":5126,
			"count":4,
			"type":"VEC3"
		},
		{
			"bufferView":9,
			"componentType":5126,
			"count":4,
			"type":"VEC2"
		},
		{
			"bufferView":10,
			"componentType":5126,
			"count":4,
			"type":"VEC2"
		},
		{
			"bufferView":11,
			"componentType":5121,
			"count":4,
			"normalized":true,
			"type":"VEC4"
		},
		{
			"bufferView":12,
			"componentType":5123,
			"count":4,
			"normalized":true,
			"type":"VEC4"
		},
		{
			"bufferView":13,
			"componentType":5123,
			"count":6,
			"type":"SCALAR"
		}
	],
	"bufferViews":[
		{
			"buffer":0,
			"byteLength":4848,
			"byteOffset":0,
			"target":34962
		},
		{
			"buffer":0,
			"byteLength":4848,
			"byteOffset":4848,
			"target":34962
		},
		{
			"buffer":0,
			"byteLength":3232,
			"byteOffset":9696,
			"target":34962
		},
		{
			"buffer":0,
			"byteLength":3232,
			"byteOffset":12928,
			"target":34962
		},
		{
			"buffer":0,
			"byteLength":1616,
			"byteOffset":16160,
			"target":34962
		},
		{
			"buffer":0,
			"byteLength":3232,
			"byteOffset":17776,
			"target":34962
		},
		{
			"buffer":0,
			"byteLength":1656,
			"byteOffset":21008,
			"target":34963
		},
		{
			"buffer":0,
			"byteLength":48,
			"byteOffset":22664,
			"target":34962
		},
		{
			"buffer":0,
			"byteLength":48,
			"byteOffset":22712,
			"target":34962
		},
		{
			"buffer":0,
			"byteLength":32,
			"byteOffset":22760,
			"target":34962
		},
		{
			"buffer":0,
			"byteLength":32,
			"byteOffset":22792,
			"target":34962
		},
		{
			"buffer":0,
			"byteLength":16,
			"byteOffset":22824,
			"target":34962
		},
		{
			"buffer":0,
			"byteLength":32,
			"byteOffset":22840,
			"target":34962
		},
		{
			"buffer":0,
			"byteLength":12,
			"byteOffset":22872,
			"target":34963
		}
	],
	"samplers":[
		{
			"magFilter":9729,
			"minFilter":9987
		}
	],
	"buffers":[
		{
			"byteLength":22884,
			"uri":"Door_3.bin"
		}
	]
}
