{
	"asset":{
		"generator":"Khronos glTF Blender I/O v4.3.47",
		"version":"2.0"
	},
	"scene":0,
	"scenes":[
		{
			"name":"Scene",
			"nodes":[
				0
			]
		}
	],
	"nodes":[
		{
			"mesh":0,
			"name":"Door_1"
		}
	],
	"materials":[
		{
			"doubleSided":true,
			"name":"MI_Trim_MetalConcrete",
			"normalTexture":{
				"index":0
			},
			"pbrMetallicRoughness":{
				"baseColorTexture":{
					"index":1
				},
				"metallicRoughnessTexture":{
					"index":2
				}
			}
		}
	],
	"meshes":[
		{
			"name":"Cube.184",
			"primitives":[
				{
					"attributes":{
						"POSITION":0,
						"NORMAL":1,
						"TEXCOORD_0":2,
						"TEXCOORD_1":3
					},
					"indices":4,
					"material":0
				}
			]
		}
	],
	"textures":[
		{
			"sampler":0,
			"source":0
		},
		{
			"sampler":0,
			"source":1
		},
		{
			"sampler":0,
			"source":2
		}
	],
	"images":[
		{
			"mimeType":"image/png",
			"name":"T_MetalConcrete_Normal",
			"uri":"T_MetalConcrete_Normal.png"
		},
		{
			"mimeType":"image/png",
			"name":"T_MetalConcrete_BaseColor",
			"uri":"T_MetalConcrete_BaseColor.png"
		},
		{
			"mimeType":"image/png",
			"name":"T_MetalConcrete_ORM",
			"uri":"T_MetalConcrete_ORM.png"
		}
	],
	"accessors":[
		{
			"bufferView":0,
			"componentType":5126,
			"count":980,
			"max":[
				0,
				2.1999998092651367,
				0.13043706119060516
			],
			"min":[
				-0.9999997615814209,
				0,
				-0.12941691279411316
			],
			"type":"VEC3"
		},
		{
			"bufferView":1,
			"componentType":5126,
			"count":980,
			"type":"VEC3"
		},
		{
			"bufferView":2,
			"componentType":5126,
			"count":980,
			"type":"VEC2"
		},
		{
			"bufferView":3,
			"componentType":5126,
			"count":980,
			"type":"VEC2"
		},
		{
			"bufferView":4,
			"componentType":5123,
			"count":2028,
			"type":"SCALAR"
		}
	],
	"bufferViews":[
		{
			"buffer":0,
			"byteLength":11760,
			"byteOffset":0,
			"target":34962
		},
		{
			"buffer":0,
			"byteLength":11760,
			"byteOffset":11760,
			"target":34962
		},
		{
			"buffer":0,
			"byteLength":7840,
			"byteOffset":23520,
			"target":34962
		},
		{
			"buffer":0,
			"byteLength":7840,
			"byteOffset":31360,
			"target":34962
		},
		{
			"buffer":0,
			"byteLength":4056,
			"byteOffset":39200,
			"target":34963
		}
	],
	"samplers":[
		{
			"magFilter":9729,
			"minFilter":9987
		}
	],
	"buffers":[
		{
			"byteLength":43256,
			"uri":"Door_1.bin"
		}
	]
}
