{
	"asset":{
		"generator":"Khronos glTF Blender I/O v4.3.47",
		"version":"2.0"
	},
	"scene":0,
	"scenes":[
		{
			"name":"Scene",
			"nodes":[
				0
			]
		}
	],
	"nodes":[
		{
			"mesh":0,
			"name":"DoorFrame_Trim"
		}
	],
	"materials":[
		{
			"doubleSided":true,
			"name":"MI_Trim_Green",
			"normalTexture":{
				"index":0
			},
			"pbrMetallicRoughness":{
				"baseColorTexture":{
					"index":1
				},
				"metallicRoughnessTexture":{
					"index":2
				}
			}
		},
		{
			"alphaMode":"BLEND",
			"doubleSided":true,
			"name":"MI_Glass",
			"pbrMetallicRoughness":{
				"baseColorFactor":[
					0.05215025693178177,
					0.05215025693178177,
					0.05215025693178177,
					0.586363673210144
				],
				"metallicFactor":0,
				"roughnessFactor":0.5
			}
		},
		{
			"doubleSided":true,
			"name":"MI_Trim",
			"normalTexture":{
				"index":3
			},
			"pbrMetallicRoughness":{
				"baseColorTexture":{
					"index":4
				},
				"metallicRoughnessTexture":{
					"index":5
				}
			}
		},
		{
			"doubleSided":true,
			"name":"MI_InteriorWall",
			"normalTexture":{
				"index":6
			},
			"pbrMetallicRoughness":{
				"baseColorTexture":{
					"index":7
				},
				"metallicRoughnessTexture":{
					"index":8
				}
			}
		}
	],
	"meshes":[
		{
			"name":"Cube.096",
			"primitives":[
				{
					"attributes":{
						"POSITION":0,
						"NORMAL":1,
						"TEXCOORD_0":2,
						"TEXCOORD_1":3,
						"COLOR_0":4
					},
					"indices":5,
					"material":0
				},
				{
					"attributes":{
						"POSITION":6,
						"NORMAL":7,
						"TEXCOORD_0":8,
						"TEXCOORD_1":9,
						"COLOR_0":10
					},
					"indices":11,
					"material":1
				},
				{
					"attributes":{
						"POSITION":12,
						"NORMAL":13,
						"TEXCOORD_0":14,
						"TEXCOORD_1":15,
						"COLOR_0":16
					},
					"indices":17,
					"material":2
				},
				{
					"attributes":{
						"POSITION":18,
						"NORMAL":19,
						"TEXCOORD_0":20,
						"TEXCOORD_1":21,
						"COLOR_0":22
					},
					"indices":23,
					"material":3
				}
			]
		}
	],
	"textures":[
		{
			"sampler":0,
			"source":0
		},
		{
			"sampler":0,
			"source":1
		},
		{
			"sampler":0,
			"source":2
		},
		{
			"sampler":0,
			"source":0
		},
		{
			"sampler":0,
			"source":1
		},
		{
			"sampler":0,
			"source":2
		},
		{
			"sampler":0,
			"source":3
		},
		{
			"sampler":0,
			"source":4
		},
		{
			"sampler":0,
			"source":5
		}
	],
	"images":[
		{
			"mimeType":"image/png",
			"name":"T_Trim_Normal",
			"uri":"T_Trim_Normal.png"
		},
		{
			"mimeType":"image/png",
			"name":"T_Trim_BaseColor",
			"uri":"T_Trim_BaseColor.png"
		},
		{
			"mimeType":"image/png",
			"name":"T_Trim_ORM",
			"uri":"T_Trim_ORM.png"
		},
		{
			"mimeType":"image/png",
			"name":"T_RedBrick_Normal",
			"uri":"T_RedBrick_Normal.png"
		},
		{
			"mimeType":"image/png",
			"name":"T_RedBrick_BaseColor",
			"uri":"T_RedBrick_BaseColor.png"
		},
		{
			"mimeType":"image/png",
			"name":"T_RedBrick_ORM",
			"uri":"T_RedBrick_ORM.png"
		}
	],
	"accessors":[
		{
			"bufferView":0,
			"componentType":5126,
			"count":428,
			"max":[
				1,
				3,
				1.341104507446289e-07
			],
			"min":[
				-1,
				0,
				-0.1859964281320572
			],
			"type":"VEC3"
		},
		{
			"bufferView":1,
			"componentType":5126,
			"count":428,
			"type":"VEC3"
		},
		{
			"bufferView":2,
			"componentType":5126,
			"count":428,
			"type":"VEC2"
		},
		{
			"bufferView":3,
			"componentType":5126,
			"count":428,
			"type":"VEC2"
		},
		{
			"bufferView":4,
			"componentType":5123,
			"count":428,
			"normalized":true,
			"type":"VEC4"
		},
		{
			"bufferView":5,
			"componentType":5123,
			"count":1032,
			"type":"SCALAR"
		},
		{
			"bufferView":6,
			"componentType":5126,
			"count":36,
			"max":[
				0.5171409845352173,
				2.762408971786499,
				-0.15517371892929077
			],
			"min":[
				-0.5171409845352173,
				2.2776641845703125,
				-0.15517377853393555
			],
			"type":"VEC3"
		},
		{
			"bufferView":7,
			"componentType":5126,
			"count":36,
			"type":"VEC3"
		},
		{
			"bufferView":8,
			"componentType":5126,
			"count":36,
			"type":"VEC2"
		},
		{
			"bufferView":9,
			"componentType":5126,
			"count":36,
			"type":"VEC2"
		},
		{
			"bufferView":10,
			"componentType":5123,
			"count":36,
			"normalized":true,
			"type":"VEC4"
		},
		{
			"bufferView":11,
			"componentType":5123,
			"count":132,
			"type":"SCALAR"
		},
		{
			"bufferView":12,
			"componentType":5126,
			"count":518,
			"max":[
				0.5694343447685242,
				2.8104844093322754,
				-0.04018201306462288
			],
			"min":[
				-0.5693690180778503,
				0,
				-0.22558006644248962
			],
			"type":"VEC3"
		},
		{
			"bufferView":13,
			"componentType":5126,
			"count":518,
			"type":"VEC3"
		},
		{
			"bufferView":14,
			"componentType":5126,
			"count":518,
			"type":"VEC2"
		},
		{
			"bufferView":15,
			"componentType":5126,
			"count":518,
			"type":"VEC2"
		},
		{
			"bufferView":16,
			"componentType":5123,
			"count":518,
			"normalized":true,
			"type":"VEC4"
		},
		{
			"bufferView":17,
			"componentType":5123,
			"count":1284,
			"type":"SCALAR"
		},
		{
			"bufferView":18,
			"componentType":5126,
			"count":48,
			"max":[
				1,
				3.000000476837158,
				-0.2000000923871994
			],
			"min":[
				-1,
				0,
				-0.2000001072883606
			],
			"type":"VEC3"
		},
		{
			"bufferView":19,
			"componentType":5126,
			"count":48,
			"type":"VEC3"
		},
		{
			"bufferView":20,
			"componentType":5126,
			"count":48,
			"type":"VEC2"
		},
		{
			"bufferView":21,
			"componentType":5126,
			"count":48,
			"type":"VEC2"
		},
		{
			"bufferView":22,
			"componentType":5123,
			"count":48,
			"normalized":true,
			"type":"VEC4"
		},
		{
			"bufferView":23,
			"componentType":5123,
			"count":132,
			"type":"SCALAR"
		}
	],
	"bufferViews":[
		{
			"buffer":0,
			"byteLength":5136,
			"byteOffset":0,
			"target":34962
		},
		{
			"buffer":0,
			"byteLength":5136,
			"byteOffset":5136,
			"target":34962
		},
		{
			"buffer":0,
			"byteLength":3424,
			"byteOffset":10272,
			"target":34962
		},
		{
			"buffer":0,
			"byteLength":3424,
			"byteOffset":13696,
			"target":34962
		},
		{
			"buffer":0,
			"byteLength":3424,
			"byteOffset":17120,
			"target":34962
		},
		{
			"buffer":0,
			"byteLength":2064,
			"byteOffset":20544,
			"target":34963
		},
		{
			"buffer":0,
			"byteLength":432,
			"byteOffset":22608,
			"target":34962
		},
		{
			"buffer":0,
			"byteLength":432,
			"byteOffset":23040,
			"target":34962
		},
		{
			"buffer":0,
			"byteLength":288,
			"byteOffset":23472,
			"target":34962
		},
		{
			"buffer":0,
			"byteLength":288,
			"byteOffset":23760,
			"target":34962
		},
		{
			"buffer":0,
			"byteLength":288,
			"byteOffset":24048,
			"target":34962
		},
		{
			"buffer":0,
			"byteLength":264,
			"byteOffset":24336,
			"target":34963
		},
		{
			"buffer":0,
			"byteLength":6216,
			"byteOffset":24600,
			"target":34962
		},
		{
			"buffer":0,
			"byteLength":6216,
			"byteOffset":30816,
			"target":34962
		},
		{
			"buffer":0,
			"byteLength":4144,
			"byteOffset":37032,
			"target":34962
		},
		{
			"buffer":0,
			"byteLength":4144,
			"byteOffset":41176,
			"target":34962
		},
		{
			"buffer":0,
			"byteLength":4144,
			"byteOffset":45320,
			"target":34962
		},
		{
			"buffer":0,
			"byteLength":2568,
			"byteOffset":49464,
			"target":34963
		},
		{
			"buffer":0,
			"byteLength":576,
			"byteOffset":52032,
			"target":34962
		},
		{
			"buffer":0,
			"byteLength":576,
			"byteOffset":52608,
			"target":34962
		},
		{
			"buffer":0,
			"byteLength":384,
			"byteOffset":53184,
			"target":34962
		},
		{
			"buffer":0,
			"byteLength":384,
			"byteOffset":53568,
			"target":34962
		},
		{
			"buffer":0,
			"byteLength":384,
			"byteOffset":53952,
			"target":34962
		},
		{
			"buffer":0,
			"byteLength":264,
			"byteOffset":54336,
			"target":34963
		}
	],
	"samplers":[
		{
			"magFilter":9729,
			"minFilter":9987
		}
	],
	"buffers":[
		{
			"byteLength":54600,
			"uri":"DoorFrame_Trim.bin"
		}
	]
}
