{
	"asset":{
		"generator":"Khronos glTF Blender I/O v4.3.47",
		"version":"2.0"
	},
	"scene":0,
	"scenes":[
		{
			"name":"Scene",
			"nodes":[
				0
			]
		}
	],
	"nodes":[
		{
			"mesh":0,
			"name":"Metal_Window"
		}
	],
	"materials":[
		{
			"doubleSided":true,
			"name":"MI_RedBrick",
			"normalTexture":{
				"index":0
			},
			"pbrMetallicRoughness":{
				"baseColorTexture":{
					"index":1
				},
				"metallicRoughnessTexture":{
					"index":2
				}
			}
		},
		{
			"doubleSided":true,
			"name":"MI_Trim_MetalConcrete",
			"normalTexture":{
				"index":3
			},
			"pbrMetallicRoughness":{
				"baseColorTexture":{
					"index":4
				},
				"metallicRoughnessTexture":{
					"index":5
				}
			}
		},
		{
			"alphaMode":"BLEND",
			"doubleSided":true,
			"name":"MI_Glass",
			"pbrMetallicRoughness":{
				"baseColorFactor":[
					0.05215025693178177,
					0.05215025693178177,
					0.05215025693178177,
					0.586363673210144
				],
				"metallicFactor":0,
				"roughnessFactor":0.5
			}
		},
		{
			"doubleSided":true,
			"name":"MI_FakeInterior",
			"pbrMetallicRoughness":{
				"baseColorFactor":[
					0.800000011920929,
					0.800000011920929,
					0.800000011920929,
					1
				],
				"metallicFactor":0,
				"roughnessFactor":0.5
			}
		},
		{
			"doubleSided":true,
			"name":"MI_InteriorWall",
			"normalTexture":{
				"index":6
			},
			"pbrMetallicRoughness":{
				"baseColorTexture":{
					"index":7
				},
				"metallicRoughnessTexture":{
					"index":8
				}
			}
		}
	],
	"meshes":[
		{
			"name":"Cube.044",
			"primitives":[
				{
					"attributes":{
						"POSITION":0,
						"NORMAL":1,
						"TEXCOORD_0":2,
						"TEXCOORD_1":3,
						"COLOR_0":4,
						"COLOR_1":5
					},
					"indices":6,
					"material":0
				},
				{
					"attributes":{
						"POSITION":7,
						"NORMAL":8,
						"TEXCOORD_0":9,
						"TEXCOORD_1":10,
						"COLOR_0":11,
						"COLOR_1":12
					},
					"indices":13,
					"material":1
				},
				{
					"attributes":{
						"POSITION":14,
						"NORMAL":15,
						"TEXCOORD_0":16,
						"TEXCOORD_1":17,
						"COLOR_0":18,
						"COLOR_1":19
					},
					"indices":20,
					"material":2
				},
				{
					"attributes":{
						"POSITION":21,
						"NORMAL":22,
						"TEXCOORD_0":23,
						"TEXCOORD_1":24,
						"COLOR_0":25,
						"COLOR_1":26
					},
					"indices":27,
					"material":3
				},
				{
					"attributes":{
						"POSITION":28,
						"NORMAL":29,
						"TEXCOORD_0":30,
						"TEXCOORD_1":31,
						"COLOR_0":32,
						"COLOR_1":33
					},
					"indices":34,
					"material":4
				}
			]
		}
	],
	"textures":[
		{
			"sampler":0,
			"source":0
		},
		{
			"sampler":0,
			"source":1
		},
		{
			"sampler":0,
			"source":2
		},
		{
			"sampler":0,
			"source":3
		},
		{
			"sampler":0,
			"source":4
		},
		{
			"sampler":0,
			"source":5
		},
		{
			"sampler":0,
			"source":0
		},
		{
			"sampler":0,
			"source":1
		},
		{
			"sampler":0,
			"source":2
		}
	],
	"images":[
		{
			"mimeType":"image/png",
			"name":"T_RedBrick_Normal",
			"uri":"T_RedBrick_Normal.png"
		},
		{
			"mimeType":"image/png",
			"name":"T_RedBrick_BaseColor",
			"uri":"T_RedBrick_BaseColor.png"
		},
		{
			"mimeType":"image/png",
			"name":"T_RedBrick_ORM",
			"uri":"T_RedBrick_ORM.png"
		},
		{
			"mimeType":"image/png",
			"name":"T_MetalConcrete_Normal",
			"uri":"T_MetalConcrete_Normal.png"
		},
		{
			"mimeType":"image/png",
			"name":"T_MetalConcrete_BaseColor",
			"uri":"T_MetalConcrete_BaseColor.png"
		},
		{
			"mimeType":"image/png",
			"name":"T_MetalConcrete_ORM",
			"uri":"T_MetalConcrete_ORM.png"
		}
	],
	"accessors":[
		{
			"bufferView":0,
			"componentType":5126,
			"count":46,
			"max":[
				2,
				3,
				1.3113415775478643e-07
			],
			"min":[
				-2,
				0,
				-0.1000000610947609
			],
			"type":"VEC3"
		},
		{
			"bufferView":1,
			"componentType":5126,
			"count":46,
			"type":"VEC3"
		},
		{
			"bufferView":2,
			"componentType":5126,
			"count":46,
			"type":"VEC2"
		},
		{
			"bufferView":3,
			"componentType":5126,
			"count":46,
			"type":"VEC2"
		},
		{
			"bufferView":4,
			"componentType":5121,
			"count":46,
			"normalized":true,
			"type":"VEC4"
		},
		{
			"bufferView":5,
			"componentType":5123,
			"count":46,
			"normalized":true,
			"type":"VEC4"
		},
		{
			"bufferView":6,
			"componentType":5123,
			"count":120,
			"type":"SCALAR"
		},
		{
			"bufferView":7,
			"componentType":5126,
			"count":654,
			"max":[
				1.5,
				3,
				0
			],
			"min":[
				-1.5,
				-0.0005897581577301025,
				-0.2239021360874176
			],
			"type":"VEC3"
		},
		{
			"bufferView":8,
			"componentType":5126,
			"count":654,
			"type":"VEC3"
		},
		{
			"bufferView":9,
			"componentType":5126,
			"count":654,
			"type":"VEC2"
		},
		{
			"bufferView":10,
			"componentType":5126,
			"count":654,
			"type":"VEC2"
		},
		{
			"bufferView":11,
			"componentType":5121,
			"count":654,
			"normalized":true,
			"type":"VEC4"
		},
		{
			"bufferView":12,
			"componentType":5123,
			"count":654,
			"normalized":true,
			"type":"VEC4"
		},
		{
			"bufferView":13,
			"componentType":5123,
			"count":1500,
			"type":"SCALAR"
		},
		{
			"bufferView":14,
			"componentType":5126,
			"count":28,
			"max":[
				1.430086612701416,
				2.430180072784424,
				-0.13850083947181702
			],
			"min":[
				-1.430086612701416,
				0.041484713554382324,
				-0.13850083947181702
			],
			"type":"VEC3"
		},
		{
			"bufferView":15,
			"componentType":5126,
			"count":28,
			"type":"VEC3"
		},
		{
			"bufferView":16,
			"componentType":5126,
			"count":28,
			"type":"VEC2"
		},
		{
			"bufferView":17,
			"componentType":5126,
			"count":28,
			"type":"VEC2"
		},
		{
			"bufferView":18,
			"componentType":5121,
			"count":28,
			"normalized":true,
			"type":"VEC4"
		},
		{
			"bufferView":19,
			"componentType":5123,
			"count":28,
			"normalized":true,
			"type":"VEC4"
		},
		{
			"bufferView":20,
			"componentType":5123,
			"count":48,
			"type":"SCALAR"
		},
		{
			"bufferView":21,
			"componentType":5126,
			"count":4,
			"max":[
				1.6066439151763916,
				2.989975929260254,
				-0.14119315147399902
			],
			"min":[
				-1.6066439151763916,
				0.015627866610884666,
				-0.14119315147399902
			],
			"type":"VEC3"
		},
		{
			"bufferView":22,
			"componentType":5126,
			"count":4,
			"type":"VEC3"
		},
		{
			"bufferView":23,
			"componentType":5126,
			"count":4,
			"type":"VEC2"
		},
		{
			"bufferView":24,
			"componentType":5126,
			"count":4,
			"type":"VEC2"
		},
		{
			"bufferView":25,
			"componentType":5121,
			"count":4,
			"normalized":true,
			"type":"VEC4"
		},
		{
			"bufferView":26,
			"componentType":5123,
			"count":4,
			"normalized":true,
			"type":"VEC4"
		},
		{
			"bufferView":27,
			"componentType":5123,
			"count":6,
			"type":"SCALAR"
		},
		{
			"bufferView":28,
			"componentType":5126,
			"count":26,
			"max":[
				2,
				3.000000476837158,
				-0.2000000923871994
			],
			"min":[
				-2,
				0,
				-0.2000000923871994
			],
			"type":"VEC3"
		},
		{
			"bufferView":29,
			"componentType":5126,
			"count":26,
			"type":"VEC3"
		},
		{
			"bufferView":30,
			"componentType":5126,
			"count":26,
			"type":"VEC2"
		},
		{
			"bufferView":31,
			"componentType":5126,
			"count":26,
			"type":"VEC2"
		},
		{
			"bufferView":32,
			"componentType":5121,
			"count":26,
			"normalized":true,
			"type":"VEC4"
		},
		{
			"bufferView":33,
			"componentType":5123,
			"count":26,
			"normalized":true,
			"type":"VEC4"
		},
		{
			"bufferView":34,
			"componentType":5123,
			"count":60,
			"type":"SCALAR"
		}
	],
	"bufferViews":[
		{
			"buffer":0,
			"byteLength":552,
			"byteOffset":0,
			"target":34962
		},
		{
			"buffer":0,
			"byteLength":552,
			"byteOffset":552,
			"target":34962
		},
		{
			"buffer":0,
			"byteLength":368,
			"byteOffset":1104,
			"target":34962
		},
		{
			"buffer":0,
			"byteLength":368,
			"byteOffset":1472,
			"target":34962
		},
		{
			"buffer":0,
			"byteLength":184,
			"byteOffset":1840,
			"target":34962
		},
		{
			"buffer":0,
			"byteLength":368,
			"byteOffset":2024,
			"target":34962
		},
		{
			"buffer":0,
			"byteLength":240,
			"byteOffset":2392,
			"target":34963
		},
		{
			"buffer":0,
			"byteLength":7848,
			"byteOffset":2632,
			"target":34962
		},
		{
			"buffer":0,
			"byteLength":7848,
			"byteOffset":10480,
			"target":34962
		},
		{
			"buffer":0,
			"byteLength":5232,
			"byteOffset":18328,
			"target":34962
		},
		{
			"buffer":0,
			"byteLength":5232,
			"byteOffset":23560,
			"target":34962
		},
		{
			"buffer":0,
			"byteLength":2616,
			"byteOffset":28792,
			"target":34962
		},
		{
			"buffer":0,
			"byteLength":5232,
			"byteOffset":31408,
			"target":34962
		},
		{
			"buffer":0,
			"byteLength":3000,
			"byteOffset":36640,
			"target":34963
		},
		{
			"buffer":0,
			"byteLength":336,
			"byteOffset":39640,
			"target":34962
		},
		{
			"buffer":0,
			"byteLength":336,
			"byteOffset":39976,
			"target":34962
		},
		{
			"buffer":0,
			"byteLength":224,
			"byteOffset":40312,
			"target":34962
		},
		{
			"buffer":0,
			"byteLength":224,
			"byteOffset":40536,
			"target":34962
		},
		{
			"buffer":0,
			"byteLength":112,
			"byteOffset":40760,
			"target":34962
		},
		{
			"buffer":0,
			"byteLength":224,
			"byteOffset":40872,
			"target":34962
		},
		{
			"buffer":0,
			"byteLength":96,
			"byteOffset":41096,
			"target":34963
		},
		{
			"buffer":0,
			"byteLength":48,
			"byteOffset":41192,
			"target":34962
		},
		{
			"buffer":0,
			"byteLength":48,
			"byteOffset":41240,
			"target":34962
		},
		{
			"buffer":0,
			"byteLength":32,
			"byteOffset":41288,
			"target":34962
		},
		{
			"buffer":0,
			"byteLength":32,
			"byteOffset":41320,
			"target":34962
		},
		{
			"buffer":0,
			"byteLength":16,
			"byteOffset":41352,
			"target":34962
		},
		{
			"buffer":0,
			"byteLength":32,
			"byteOffset":41368,
			"target":34962
		},
		{
			"buffer":0,
			"byteLength":12,
			"byteOffset":41400,
			"target":34963
		},
		{
			"buffer":0,
			"byteLength":312,
			"byteOffset":41412,
			"target":34962
		},
		{
			"buffer":0,
			"byteLength":312,
			"byteOffset":41724,
			"target":34962
		},
		{
			"buffer":0,
			"byteLength":208,
			"byteOffset":42036,
			"target":34962
		},
		{
			"buffer":0,
			"byteLength":208,
			"byteOffset":42244,
			"target":34962
		},
		{
			"buffer":0,
			"byteLength":104,
			"byteOffset":42452,
			"target":34962
		},
		{
			"buffer":0,
			"byteLength":208,
			"byteOffset":42556,
			"target":34962
		},
		{
			"buffer":0,
			"byteLength":120,
			"byteOffset":42764,
			"target":34963
		}
	],
	"samplers":[
		{
			"magFilter":9729,
			"minFilter":9987
		}
	],
	"buffers":[
		{
			"byteLength":42884,
			"uri":"Metal_Window.bin"
		}
	]
}
