{
	"asset":{
		"generator":"Khronos glTF Blender I/O v4.3.47",
		"version":"2.0"
	},
	"scene":0,
	"scenes":[
		{
			"name":"Scene",
			"nodes":[
				0
			]
		}
	],
	"nodes":[
		{
			"mesh":0,
			"name":"Metal_Column_Small_Top"
		}
	],
	"materials":[
		{
			"doubleSided":true,
			"name":"MI_Trim_MetalConcrete",
			"normalTexture":{
				"index":0
			},
			"pbrMetallicRoughness":{
				"baseColorTexture":{
					"index":1
				},
				"metallicRoughnessTexture":{
					"index":2
				}
			}
		}
	],
	"meshes":[
		{
			"name":"Cube.456",
			"primitives":[
				{
					"attributes":{
						"POSITION":0,
						"NORMAL":1,
						"TEXCOORD_0":2,
						"TEXCOORD_1":3
					},
					"indices":4,
					"material":0
				}
			]
		}
	],
	"textures":[
		{
			"sampler":0,
			"source":0
		},
		{
			"sampler":0,
			"source":1
		},
		{
			"sampler":0,
			"source":2
		}
	],
	"images":[
		{
			"mimeType":"image/png",
			"name":"T_MetalConcrete_Normal",
			"uri":"T_MetalConcrete_Normal.png"
		},
		{
			"mimeType":"image/png",
			"name":"T_MetalConcrete_BaseColor",
			"uri":"T_MetalConcrete_BaseColor.png"
		},
		{
			"mimeType":"image/png",
			"name":"T_MetalConcrete_ORM",
			"uri":"T_MetalConcrete_ORM.png"
		}
	],
	"accessors":[
		{
			"bufferView":0,
			"componentType":5126,
			"count":233,
			"max":[
				0.1610272228717804,
				2.9956233501434326,
				0.1611490100622177
			],
			"min":[
				-0.16102716326713562,
				0,
				-0.1611488312482834
			],
			"type":"VEC3"
		},
		{
			"bufferView":1,
			"componentType":5126,
			"count":233,
			"type":"VEC3"
		},
		{
			"bufferView":2,
			"componentType":5126,
			"count":233,
			"type":"VEC2"
		},
		{
			"bufferView":3,
			"componentType":5126,
			"count":233,
			"type":"VEC2"
		},
		{
			"bufferView":4,
			"componentType":5123,
			"count":360,
			"type":"SCALAR"
		}
	],
	"bufferViews":[
		{
			"buffer":0,
			"byteLength":2796,
			"byteOffset":0,
			"target":34962
		},
		{
			"buffer":0,
			"byteLength":2796,
			"byteOffset":2796,
			"target":34962
		},
		{
			"buffer":0,
			"byteLength":1864,
			"byteOffset":5592,
			"target":34962
		},
		{
			"buffer":0,
			"byteLength":1864,
			"byteOffset":7456,
			"target":34962
		},
		{
			"buffer":0,
			"byteLength":720,
			"byteOffset":9320,
			"target":34963
		}
	],
	"samplers":[
		{
			"magFilter":9729,
			"minFilter":9987
		}
	],
	"buffers":[
		{
			"byteLength":10040,
			"uri":"Metal_Column_Small_Top.bin"
		}
	]
}
