{
	"asset":{
		"generator":"Khronos glTF Blender I/O v4.3.47",
		"version":"2.0"
	},
	"scene":0,
	"scenes":[
		{
			"name":"Scene",
			"nodes":[
				0
			]
		}
	],
	"nodes":[
		{
			"mesh":0,
			"name":"Metal_FullWindow"
		}
	],
	"materials":[
		{
			"doubleSided":true,
			"name":"MI_Trim_MetalConcrete",
			"normalTexture":{
				"index":0
			},
			"pbrMetallicRoughness":{
				"baseColorTexture":{
					"index":1
				},
				"metallicRoughnessTexture":{
					"index":2
				}
			}
		},
		{
			"alphaMode":"BLEND",
			"doubleSided":true,
			"name":"MI_Glass",
			"pbrMetallicRoughness":{
				"baseColorFactor":[
					0.05215025693178177,
					0.05215025693178177,
					0.05215025693178177,
					0.586363673210144
				],
				"metallicFactor":0,
				"roughnessFactor":0.5
			}
		},
		{
			"doubleSided":true,
			"name":"MI_FakeInterior",
			"pbrMetallicRoughness":{
				"baseColorFactor":[
					0.800000011920929,
					0.800000011920929,
					0.800000011920929,
					1
				],
				"metallicFactor":0,
				"roughnessFactor":0.5
			}
		}
	],
	"meshes":[
		{
			"name":"Cube.168",
			"primitives":[
				{
					"attributes":{
						"POSITION":0,
						"NORMAL":1,
						"TEXCOORD_0":2,
						"TEXCOORD_1":3,
						"COLOR_0":4,
						"COLOR_1":5
					},
					"indices":6,
					"material":0
				},
				{
					"attributes":{
						"POSITION":7,
						"NORMAL":8,
						"TEXCOORD_0":9,
						"TEXCOORD_1":10,
						"COLOR_0":11,
						"COLOR_1":12
					},
					"indices":13,
					"material":1
				},
				{
					"attributes":{
						"POSITION":14,
						"NORMAL":15,
						"TEXCOORD_0":16,
						"TEXCOORD_1":17,
						"COLOR_0":18,
						"COLOR_1":19
					},
					"indices":20,
					"material":2
				}
			]
		}
	],
	"textures":[
		{
			"sampler":0,
			"source":0
		},
		{
			"sampler":0,
			"source":1
		},
		{
			"sampler":0,
			"source":2
		}
	],
	"images":[
		{
			"mimeType":"image/png",
			"name":"T_MetalConcrete_Normal",
			"uri":"T_MetalConcrete_Normal.png"
		},
		{
			"mimeType":"image/png",
			"name":"T_MetalConcrete_BaseColor",
			"uri":"T_MetalConcrete_BaseColor.png"
		},
		{
			"mimeType":"image/png",
			"name":"T_MetalConcrete_ORM",
			"uri":"T_MetalConcrete_ORM.png"
		}
	],
	"accessors":[
		{
			"bufferView":0,
			"componentType":5126,
			"count":268,
			"max":[
				1,
				3,
				0.015472263097763062
			],
			"min":[
				-1,
				0,
				-0.21562494337558746
			],
			"type":"VEC3"
		},
		{
			"bufferView":1,
			"componentType":5126,
			"count":268,
			"type":"VEC3"
		},
		{
			"bufferView":2,
			"componentType":5126,
			"count":268,
			"type":"VEC2"
		},
		{
			"bufferView":3,
			"componentType":5126,
			"count":268,
			"type":"VEC2"
		},
		{
			"bufferView":4,
			"componentType":5121,
			"count":268,
			"normalized":true,
			"type":"VEC4"
		},
		{
			"bufferView":5,
			"componentType":5123,
			"count":268,
			"normalized":true,
			"type":"VEC4"
		},
		{
			"bufferView":6,
			"componentType":5123,
			"count":600,
			"type":"SCALAR"
		},
		{
			"bufferView":7,
			"componentType":5126,
			"count":12,
			"max":[
				0.9026076793670654,
				2.700000286102295,
				-0.06675991415977478
			],
			"min":[
				-0.9026076793670654,
				0.05869913101196289,
				-0.06675997376441956
			],
			"type":"VEC3"
		},
		{
			"bufferView":8,
			"componentType":5126,
			"count":12,
			"type":"VEC3"
		},
		{
			"bufferView":9,
			"componentType":5126,
			"count":12,
			"type":"VEC2"
		},
		{
			"bufferView":10,
			"componentType":5126,
			"count":12,
			"type":"VEC2"
		},
		{
			"bufferView":11,
			"componentType":5121,
			"count":12,
			"normalized":true,
			"type":"VEC4"
		},
		{
			"bufferView":12,
			"componentType":5123,
			"count":12,
			"normalized":true,
			"type":"VEC4"
		},
		{
			"bufferView":13,
			"componentType":5123,
			"count":24,
			"type":"SCALAR"
		},
		{
			"bufferView":14,
			"componentType":5126,
			"count":4,
			"max":[
				0.9872606992721558,
				2.828357219696045,
				-0.06820318102836609
			],
			"min":[
				-0.9872606992721558,
				0.04824328422546387,
				-0.06820318102836609
			],
			"type":"VEC3"
		},
		{
			"bufferView":15,
			"componentType":5126,
			"count":4,
			"type":"VEC3"
		},
		{
			"bufferView":16,
			"componentType":5126,
			"count":4,
			"type":"VEC2"
		},
		{
			"bufferView":17,
			"componentType":5126,
			"count":4,
			"type":"VEC2"
		},
		{
			"bufferView":18,
			"componentType":5121,
			"count":4,
			"normalized":true,
			"type":"VEC4"
		},
		{
			"bufferView":19,
			"componentType":5123,
			"count":4,
			"normalized":true,
			"type":"VEC4"
		},
		{
			"bufferView":20,
			"componentType":5123,
			"count":6,
			"type":"SCALAR"
		}
	],
	"bufferViews":[
		{
			"buffer":0,
			"byteLength":3216,
			"byteOffset":0,
			"target":34962
		},
		{
			"buffer":0,
			"byteLength":3216,
			"byteOffset":3216,
			"target":34962
		},
		{
			"buffer":0,
			"byteLength":2144,
			"byteOffset":6432,
			"target":34962
		},
		{
			"buffer":0,
			"byteLength":2144,
			"byteOffset":8576,
			"target":34962
		},
		{
			"buffer":0,
			"byteLength":1072,
			"byteOffset":10720,
			"target":34962
		},
		{
			"buffer":0,
			"byteLength":2144,
			"byteOffset":11792,
			"target":34962
		},
		{
			"buffer":0,
			"byteLength":1200,
			"byteOffset":13936,
			"target":34963
		},
		{
			"buffer":0,
			"byteLength":144,
			"byteOffset":15136,
			"target":34962
		},
		{
			"buffer":0,
			"byteLength":144,
			"byteOffset":15280,
			"target":34962
		},
		{
			"buffer":0,
			"byteLength":96,
			"byteOffset":15424,
			"target":34962
		},
		{
			"buffer":0,
			"byteLength":96,
			"byteOffset":15520,
			"target":34962
		},
		{
			"buffer":0,
			"byteLength":48,
			"byteOffset":15616,
			"target":34962
		},
		{
			"buffer":0,
			"byteLength":96,
			"byteOffset":15664,
			"target":34962
		},
		{
			"buffer":0,
			"byteLength":48,
			"byteOffset":15760,
			"target":34963
		},
		{
			"buffer":0,
			"byteLength":48,
			"byteOffset":15808,
			"target":34962
		},
		{
			"buffer":0,
			"byteLength":48,
			"byteOffset":15856,
			"target":34962
		},
		{
			"buffer":0,
			"byteLength":32,
			"byteOffset":15904,
			"target":34962
		},
		{
			"buffer":0,
			"byteLength":32,
			"byteOffset":15936,
			"target":34962
		},
		{
			"buffer":0,
			"byteLength":16,
			"byteOffset":15968,
			"target":34962
		},
		{
			"buffer":0,
			"byteLength":32,
			"byteOffset":15984,
			"target":34962
		},
		{
			"buffer":0,
			"byteLength":12,
			"byteOffset":16016,
			"target":34963
		}
	],
	"samplers":[
		{
			"magFilter":9729,
			"minFilter":9987
		}
	],
	"buffers":[
		{
			"byteLength":16028,
			"uri":"Metal_FullWindow.bin"
		}
	]
}
