{
	"asset":{
		"generator":"Khronos glTF Blender I/O v4.3.47",
		"version":"2.0"
	},
	"scene":0,
	"scenes":[
		{
			"name":"Scene",
			"nodes":[
				0
			]
		}
	],
	"nodes":[
		{
			"mesh":0,
			"name":"Prop_ACUnit"
		}
	],
	"materials":[
		{
			"doubleSided":true,
			"name":"MI_Ornaments",
			"normalTexture":{
				"index":0
			},
			"pbrMetallicRoughness":{
				"baseColorTexture":{
					"index":1
				},
				"metallicRoughnessTexture":{
					"index":2
				}
			}
		}
	],
	"meshes":[
		{
			"name":"Cube.169",
			"primitives":[
				{
					"attributes":{
						"POSITION":0,
						"NORMAL":1,
						"TEXCOORD_0":2,
						"TEXCOORD_1":3
					},
					"indices":4,
					"material":0
				}
			]
		}
	],
	"textures":[
		{
			"sampler":0,
			"source":0
		},
		{
			"sampler":0,
			"source":1
		},
		{
			"sampler":0,
			"source":2
		}
	],
	"images":[
		{
			"mimeType":"image/png",
			"name":"T_Ornaments_Normal",
			"uri":"T_Ornaments_Normal.png"
		},
		{
			"mimeType":"image/png",
			"name":"T_Ornaments_BaseColor",
			"uri":"T_Ornaments_BaseColor.png"
		},
		{
			"mimeType":"image/png",
			"name":"T_Ornaments_ORM",
			"uri":"T_Ornaments_ORM.png"
		}
	],
	"accessors":[
		{
			"bufferView":0,
			"componentType":5126,
			"count":136,
			"max":[
				0.482650488615036,
				0.5997380614280701,
				0.3285083770751953
			],
			"min":[
				-0.410518079996109,
				-0.0002619624137878418,
				-0.018562812358140945
			],
			"type":"VEC3"
		},
		{
			"bufferView":1,
			"componentType":5126,
			"count":136,
			"type":"VEC3"
		},
		{
			"bufferView":2,
			"componentType":5126,
			"count":136,
			"type":"VEC2"
		},
		{
			"bufferView":3,
			"componentType":5126,
			"count":136,
			"type":"VEC2"
		},
		{
			"bufferView":4,
			"componentType":5123,
			"count":408,
			"type":"SCALAR"
		}
	],
	"bufferViews":[
		{
			"buffer":0,
			"byteLength":1632,
			"byteOffset":0,
			"target":34962
		},
		{
			"buffer":0,
			"byteLength":1632,
			"byteOffset":1632,
			"target":34962
		},
		{
			"buffer":0,
			"byteLength":1088,
			"byteOffset":3264,
			"target":34962
		},
		{
			"buffer":0,
			"byteLength":1088,
			"byteOffset":4352,
			"target":34962
		},
		{
			"buffer":0,
			"byteLength":816,
			"byteOffset":5440,
			"target":34963
		}
	],
	"samplers":[
		{
			"magFilter":9729,
			"minFilter":9987
		}
	],
	"buffers":[
		{
			"byteLength":6256,
			"uri":"Prop_ACUnit.bin"
		}
	]
}
