{
	"asset":{
		"generator":"Khronos glTF Blender I/O v4.3.47",
		"version":"2.0"
	},
	"scene":0,
	"scenes":[
		{
			"name":"Scene",
			"nodes":[
				0
			]
		}
	],
	"nodes":[
		{
			"mesh":0,
			"name":"Street_4WayIntersection"
		}
	],
	"materials":[
		{
			"doubleSided":true,
			"name":"MI_Asphalt",
			"normalTexture":{
				"index":0
			},
			"pbrMetallicRoughness":{
				"baseColorTexture":{
					"index":1
				},
				"metallicRoughnessTexture":{
					"index":2
				}
			}
		},
		{
			"alphaMode":"BLEND",
			"doubleSided":true,
			"name":"MI_StreetDecals",
			"pbrMetallicRoughness":{
				"baseColorTexture":{
					"index":3
				},
				"metallicFactor":0,
				"roughnessFactor":0.5
			}
		},
		{
			"doubleSided":true,
			"name":"MI_Trim_MetalConcrete",
			"normalTexture":{
				"index":4
			},
			"pbrMetallicRoughness":{
				"baseColorTexture":{
					"index":5
				},
				"metallicRoughnessTexture":{
					"index":6
				}
			}
		}
	],
	"meshes":[
		{
			"name":"Plane.039",
			"primitives":[
				{
					"attributes":{
						"POSITION":0,
						"NORMAL":1,
						"TEXCOORD_0":2,
						"TEXCOORD_1":3,
						"COLOR_0":4
					},
					"indices":5,
					"material":0
				},
				{
					"attributes":{
						"POSITION":6,
						"NORMAL":7,
						"TEXCOORD_0":8,
						"TEXCOORD_1":9,
						"COLOR_0":10
					},
					"indices":11,
					"material":1
				},
				{
					"attributes":{
						"POSITION":12,
						"NORMAL":13,
						"TEXCOORD_0":14,
						"TEXCOORD_1":15,
						"COLOR_0":16
					},
					"indices":17,
					"material":2
				}
			]
		}
	],
	"textures":[
		{
			"sampler":0,
			"source":0
		},
		{
			"sampler":0,
			"source":1
		},
		{
			"sampler":0,
			"source":2
		},
		{
			"sampler":0,
			"source":3
		},
		{
			"sampler":0,
			"source":4
		},
		{
			"sampler":0,
			"source":5
		},
		{
			"sampler":0,
			"source":6
		}
	],
	"images":[
		{
			"mimeType":"image/png",
			"name":"T_Concrete_Normal",
			"uri":"T_Concrete_Normal.png"
		},
		{
			"mimeType":"image/png",
			"name":"T_Concrete_Asphalt_BaseColor",
			"uri":"T_Concrete_Asphalt_BaseColor.png"
		},
		{
			"mimeType":"image/png",
			"name":"T_Concrete_ORM",
			"uri":"T_Concrete_ORM.png"
		},
		{
			"mimeType":"image/png",
			"name":"T_Street_Decals",
			"uri":"T_Street_Decals.png"
		},
		{
			"mimeType":"image/png",
			"name":"T_MetalConcrete_Normal",
			"uri":"T_MetalConcrete_Normal.png"
		},
		{
			"mimeType":"image/png",
			"name":"T_MetalConcrete_BaseColor",
			"uri":"T_MetalConcrete_BaseColor.png"
		},
		{
			"mimeType":"image/png",
			"name":"T_MetalConcrete_ORM",
			"uri":"T_MetalConcrete_ORM.png"
		}
	],
	"accessors":[
		{
			"bufferView":0,
			"componentType":5126,
			"count":89,
			"max":[
				9.00000286102295,
				-0.15000000596046448,
				9.00000286102295
			],
			"min":[
				-9,
				-0.15000000596046448,
				-9
			],
			"type":"VEC3"
		},
		{
			"bufferView":1,
			"componentType":5126,
			"count":89,
			"type":"VEC3"
		},
		{
			"bufferView":2,
			"componentType":5126,
			"count":89,
			"type":"VEC2"
		},
		{
			"bufferView":3,
			"componentType":5126,
			"count":89,
			"type":"VEC2"
		},
		{
			"bufferView":4,
			"componentType":5123,
			"count":89,
			"normalized":true,
			"type":"VEC4"
		},
		{
			"bufferView":5,
			"componentType":5123,
			"count":216,
			"type":"SCALAR"
		},
		{
			"bufferView":6,
			"componentType":5126,
			"count":136,
			"max":[
				12.33313274383545,
				-0.14600001275539398,
				12.33313274383545
			],
			"min":[
				-12.333130836486816,
				-0.14800000190734863,
				-12.333131790161133
			],
			"type":"VEC3"
		},
		{
			"bufferView":7,
			"componentType":5126,
			"count":136,
			"type":"VEC3"
		},
		{
			"bufferView":8,
			"componentType":5126,
			"count":136,
			"type":"VEC2"
		},
		{
			"bufferView":9,
			"componentType":5126,
			"count":136,
			"type":"VEC2"
		},
		{
			"bufferView":10,
			"componentType":5123,
			"count":136,
			"normalized":true,
			"type":"VEC4"
		},
		{
			"bufferView":11,
			"componentType":5123,
			"count":336,
			"type":"SCALAR"
		},
		{
			"bufferView":12,
			"componentType":5126,
			"count":796,
			"max":[
				9,
				2.9802322387695312e-08,
				9.00000286102295
			],
			"min":[
				-9.00000286102295,
				-0.15000000596046448,
				-9
			],
			"type":"VEC3"
		},
		{
			"bufferView":13,
			"componentType":5126,
			"count":796,
			"type":"VEC3"
		},
		{
			"bufferView":14,
			"componentType":5126,
			"count":796,
			"type":"VEC2"
		},
		{
			"bufferView":15,
			"componentType":5126,
			"count":796,
			"type":"VEC2"
		},
		{
			"bufferView":16,
			"componentType":5123,
			"count":796,
			"normalized":true,
			"type":"VEC4"
		},
		{
			"bufferView":17,
			"componentType":5123,
			"count":2124,
			"type":"SCALAR"
		}
	],
	"bufferViews":[
		{
			"buffer":0,
			"byteLength":1068,
			"byteOffset":0,
			"target":34962
		},
		{
			"buffer":0,
			"byteLength":1068,
			"byteOffset":1068,
			"target":34962
		},
		{
			"buffer":0,
			"byteLength":712,
			"byteOffset":2136,
			"target":34962
		},
		{
			"buffer":0,
			"byteLength":712,
			"byteOffset":2848,
			"target":34962
		},
		{
			"buffer":0,
			"byteLength":712,
			"byteOffset":3560,
			"target":34962
		},
		{
			"buffer":0,
			"byteLength":432,
			"byteOffset":4272,
			"target":34963
		},
		{
			"buffer":0,
			"byteLength":1632,
			"byteOffset":4704,
			"target":34962
		},
		{
			"buffer":0,
			"byteLength":1632,
			"byteOffset":6336,
			"target":34962
		},
		{
			"buffer":0,
			"byteLength":1088,
			"byteOffset":7968,
			"target":34962
		},
		{
			"buffer":0,
			"byteLength":1088,
			"byteOffset":9056,
			"target":34962
		},
		{
			"buffer":0,
			"byteLength":1088,
			"byteOffset":10144,
			"target":34962
		},
		{
			"buffer":0,
			"byteLength":672,
			"byteOffset":11232,
			"target":34963
		},
		{
			"buffer":0,
			"byteLength":9552,
			"byteOffset":11904,
			"target":34962
		},
		{
			"buffer":0,
			"byteLength":9552,
			"byteOffset":21456,
			"target":34962
		},
		{
			"buffer":0,
			"byteLength":6368,
			"byteOffset":31008,
			"target":34962
		},
		{
			"buffer":0,
			"byteLength":6368,
			"byteOffset":37376,
			"target":34962
		},
		{
			"buffer":0,
			"byteLength":6368,
			"byteOffset":43744,
			"target":34962
		},
		{
			"buffer":0,
			"byteLength":4248,
			"byteOffset":50112,
			"target":34963
		}
	],
	"samplers":[
		{
			"magFilter":9729,
			"minFilter":9987
		}
	],
	"buffers":[
		{
			"byteLength":54360,
			"uri":"Street_4WayIntersection.bin"
		}
	]
}
