{
	"asset":{
		"generator":"Khronos glTF Blender I/O v4.3.47",
		"version":"2.0"
	},
	"scene":0,
	"scenes":[
		{
			"name":"Scene",
			"nodes":[
				0
			]
		}
	],
	"nodes":[
		{
			"mesh":0,
			"name":"Street_Curve_2Lane"
		}
	],
	"materials":[
		{
			"doubleSided":true,
			"name":"MI_Asphalt",
			"normalTexture":{
				"index":0
			},
			"pbrMetallicRoughness":{
				"baseColorTexture":{
					"index":1
				},
				"metallicRoughnessTexture":{
					"index":2
				}
			}
		},
		{
			"alphaMode":"BLEND",
			"doubleSided":true,
			"name":"MI_StreetDecals",
			"pbrMetallicRoughness":{
				"baseColorTexture":{
					"index":3
				},
				"metallicFactor":0,
				"roughnessFactor":0.5
			}
		},
		{
			"doubleSided":true,
			"name":"MI_Trim_MetalConcrete",
			"normalTexture":{
				"index":4
			},
			"pbrMetallicRoughness":{
				"baseColorTexture":{
					"index":5
				},
				"metallicRoughnessTexture":{
					"index":6
				}
			}
		}
	],
	"meshes":[
		{
			"name":"Plane.061",
			"primitives":[
				{
					"attributes":{
						"POSITION":0,
						"NORMAL":1,
						"TEXCOORD_0":2,
						"TEXCOORD_1":3,
						"COLOR_0":4
					},
					"indices":5,
					"material":0
				},
				{
					"attributes":{
						"POSITION":6,
						"NORMAL":7,
						"TEXCOORD_0":8,
						"TEXCOORD_1":9,
						"COLOR_0":10
					},
					"indices":11,
					"material":1
				},
				{
					"attributes":{
						"POSITION":12,
						"NORMAL":13,
						"TEXCOORD_0":14,
						"TEXCOORD_1":15,
						"COLOR_0":16
					},
					"indices":17,
					"material":2
				}
			]
		}
	],
	"textures":[
		{
			"sampler":0,
			"source":0
		},
		{
			"sampler":0,
			"source":1
		},
		{
			"sampler":0,
			"source":2
		},
		{
			"sampler":0,
			"source":3
		},
		{
			"sampler":0,
			"source":4
		},
		{
			"sampler":0,
			"source":5
		},
		{
			"sampler":0,
			"source":6
		}
	],
	"images":[
		{
			"mimeType":"image/png",
			"name":"T_Concrete_Normal",
			"uri":"T_Concrete_Normal.png"
		},
		{
			"mimeType":"image/png",
			"name":"T_Concrete_Asphalt_BaseColor",
			"uri":"T_Concrete_Asphalt_BaseColor.png"
		},
		{
			"mimeType":"image/png",
			"name":"T_Concrete_ORM",
			"uri":"T_Concrete_ORM.png"
		},
		{
			"mimeType":"image/png",
			"name":"T_Street_Decals",
			"uri":"T_Street_Decals.png"
		},
		{
			"mimeType":"image/png",
			"name":"T_MetalConcrete_Normal",
			"uri":"T_MetalConcrete_Normal.png"
		},
		{
			"mimeType":"image/png",
			"name":"T_MetalConcrete_BaseColor",
			"uri":"T_MetalConcrete_BaseColor.png"
		},
		{
			"mimeType":"image/png",
			"name":"T_MetalConcrete_ORM",
			"uri":"T_MetalConcrete_ORM.png"
		}
	],
	"accessors":[
		{
			"bufferView":0,
			"componentType":5126,
			"count":37,
			"max":[
				10,
				-0.15000000596046448,
				10
			],
			"min":[
				-3.2584136988589307e-06,
				-0.15000000596046448,
				0
			],
			"type":"VEC3"
		},
		{
			"bufferView":1,
			"componentType":5126,
			"count":37,
			"type":"VEC3"
		},
		{
			"bufferView":2,
			"componentType":5126,
			"count":37,
			"type":"VEC2"
		},
		{
			"bufferView":3,
			"componentType":5126,
			"count":37,
			"type":"VEC2"
		},
		{
			"bufferView":4,
			"componentType":5123,
			"count":37,
			"normalized":true,
			"type":"VEC4"
		},
		{
			"bufferView":5,
			"componentType":5123,
			"count":144,
			"type":"SCALAR"
		},
		{
			"bufferView":6,
			"componentType":5126,
			"count":60,
			"max":[
				8.79999828338623,
				-0.14600001275539398,
				8.80000114440918
			],
			"min":[
				-1.9073486328125e-06,
				-0.14800000190734863,
				-4.76837158203125e-07
			],
			"type":"VEC3"
		},
		{
			"bufferView":7,
			"componentType":5126,
			"count":60,
			"type":"VEC3"
		},
		{
			"bufferView":8,
			"componentType":5126,
			"count":60,
			"type":"VEC2"
		},
		{
			"bufferView":9,
			"componentType":5126,
			"count":60,
			"type":"VEC2"
		},
		{
			"bufferView":10,
			"componentType":5123,
			"count":60,
			"normalized":true,
			"type":"VEC4"
		},
		{
			"bufferView":11,
			"componentType":5123,
			"count":168,
			"type":"SCALAR"
		},
		{
			"bufferView":12,
			"componentType":5126,
			"count":386,
			"max":[
				11.99999713897705,
				2.682209014892578e-07,
				12.000000953674316
			],
			"min":[
				-2.86102294921875e-06,
				-0.15000024437904358,
				-4.76837158203125e-07
			],
			"type":"VEC3"
		},
		{
			"bufferView":13,
			"componentType":5126,
			"count":386,
			"type":"VEC3"
		},
		{
			"bufferView":14,
			"componentType":5126,
			"count":386,
			"type":"VEC2"
		},
		{
			"bufferView":15,
			"componentType":5126,
			"count":386,
			"type":"VEC2"
		},
		{
			"bufferView":16,
			"componentType":5123,
			"count":386,
			"normalized":true,
			"type":"VEC4"
		},
		{
			"bufferView":17,
			"componentType":5123,
			"count":1203,
			"type":"SCALAR"
		}
	],
	"bufferViews":[
		{
			"buffer":0,
			"byteLength":444,
			"byteOffset":0,
			"target":34962
		},
		{
			"buffer":0,
			"byteLength":444,
			"byteOffset":444,
			"target":34962
		},
		{
			"buffer":0,
			"byteLength":296,
			"byteOffset":888,
			"target":34962
		},
		{
			"buffer":0,
			"byteLength":296,
			"byteOffset":1184,
			"target":34962
		},
		{
			"buffer":0,
			"byteLength":296,
			"byteOffset":1480,
			"target":34962
		},
		{
			"buffer":0,
			"byteLength":288,
			"byteOffset":1776,
			"target":34963
		},
		{
			"buffer":0,
			"byteLength":720,
			"byteOffset":2064,
			"target":34962
		},
		{
			"buffer":0,
			"byteLength":720,
			"byteOffset":2784,
			"target":34962
		},
		{
			"buffer":0,
			"byteLength":480,
			"byteOffset":3504,
			"target":34962
		},
		{
			"buffer":0,
			"byteLength":480,
			"byteOffset":3984,
			"target":34962
		},
		{
			"buffer":0,
			"byteLength":480,
			"byteOffset":4464,
			"target":34962
		},
		{
			"buffer":0,
			"byteLength":336,
			"byteOffset":4944,
			"target":34963
		},
		{
			"buffer":0,
			"byteLength":4632,
			"byteOffset":5280,
			"target":34962
		},
		{
			"buffer":0,
			"byteLength":4632,
			"byteOffset":9912,
			"target":34962
		},
		{
			"buffer":0,
			"byteLength":3088,
			"byteOffset":14544,
			"target":34962
		},
		{
			"buffer":0,
			"byteLength":3088,
			"byteOffset":17632,
			"target":34962
		},
		{
			"buffer":0,
			"byteLength":3088,
			"byteOffset":20720,
			"target":34962
		},
		{
			"buffer":0,
			"byteLength":2406,
			"byteOffset":23808,
			"target":34963
		}
	],
	"samplers":[
		{
			"magFilter":9729,
			"minFilter":9987
		}
	],
	"buffers":[
		{
			"byteLength":26216,
			"uri":"Street_Curve_2Lane.bin"
		}
	]
}
