{
	"asset":{
		"generator":"Khronos glTF Blender I/O v4.3.47",
		"version":"2.0"
	},
	"scene":0,
	"scenes":[
		{
			"name":"Scene",
			"nodes":[
				0
			]
		}
	],
	"nodes":[
		{
			"mesh":0,
			"name":"Street_Curve_4Lane_Short_Curb"
		}
	],
	"materials":[
		{
			"doubleSided":true,
			"name":"MI_Trim_MetalConcrete",
			"normalTexture":{
				"index":0
			},
			"pbrMetallicRoughness":{
				"baseColorTexture":{
					"index":1
				},
				"metallicRoughnessTexture":{
					"index":2
				}
			}
		}
	],
	"meshes":[
		{
			"name":"Plane.074",
			"primitives":[
				{
					"attributes":{
						"POSITION":0,
						"NORMAL":1,
						"TEXCOORD_0":2,
						"TEXCOORD_1":3,
						"COLOR_0":4
					},
					"indices":5,
					"material":0
				}
			]
		}
	],
	"textures":[
		{
			"sampler":0,
			"source":0
		},
		{
			"sampler":0,
			"source":1
		},
		{
			"sampler":0,
			"source":2
		}
	],
	"images":[
		{
			"mimeType":"image/png",
			"name":"T_MetalConcrete_Normal",
			"uri":"T_MetalConcrete_Normal.png"
		},
		{
			"mimeType":"image/png",
			"name":"T_MetalConcrete_BaseColor",
			"uri":"T_MetalConcrete_BaseColor.png"
		},
		{
			"mimeType":"image/png",
			"name":"T_MetalConcrete_ORM",
			"uri":"T_MetalConcrete_ORM.png"
		}
	],
	"accessors":[
		{
			"bufferView":0,
			"componentType":5126,
			"count":324,
			"max":[
				17.999988555908203,
				2.682209014892578e-07,
				18
			],
			"min":[
				-2.86102294921875e-06,
				-0.15000024437904358,
				-1.1444091796875e-05
			],
			"type":"VEC3"
		},
		{
			"bufferView":1,
			"componentType":5126,
			"count":324,
			"type":"VEC3"
		},
		{
			"bufferView":2,
			"componentType":5126,
			"count":324,
			"type":"VEC2"
		},
		{
			"bufferView":3,
			"componentType":5126,
			"count":324,
			"type":"VEC2"
		},
		{
			"bufferView":4,
			"componentType":5123,
			"count":324,
			"normalized":true,
			"type":"VEC4"
		},
		{
			"bufferView":5,
			"componentType":5123,
			"count":1008,
			"type":"SCALAR"
		}
	],
	"bufferViews":[
		{
			"buffer":0,
			"byteLength":3888,
			"byteOffset":0,
			"target":34962
		},
		{
			"buffer":0,
			"byteLength":3888,
			"byteOffset":3888,
			"target":34962
		},
		{
			"buffer":0,
			"byteLength":2592,
			"byteOffset":7776,
			"target":34962
		},
		{
			"buffer":0,
			"byteLength":2592,
			"byteOffset":10368,
			"target":34962
		},
		{
			"buffer":0,
			"byteLength":2592,
			"byteOffset":12960,
			"target":34962
		},
		{
			"buffer":0,
			"byteLength":2016,
			"byteOffset":15552,
			"target":34963
		}
	],
	"samplers":[
		{
			"magFilter":9729,
			"minFilter":9987
		}
	],
	"buffers":[
		{
			"byteLength":17568,
			"uri":"Street_Curve_4Lane_Short_Curb.bin"
		}
	]
}
